<?xml version="1.0" encoding="UTF-8"?>
<svg xmlns="http://www.w3.org/2000/svg" version="1.1" viewBox="0 0 490.4 40">
  <defs>
    <style>
      .cls-1, .cls-2, .cls-3, .cls-4, .cls-5, .cls-6 {
        isolation: isolate;
      }

      .cls-1, .cls-2, .cls-6 {
        font-family: ArialMT, Arial;
      }

      .cls-1, .cls-4 {
        font-size: 2px;
      }

      .cls-2, .cls-5 {
        font-size: 2.4px;
      }

      .cls-7, .cls-8, .cls-9 {
        fill: none;
      }

      .cls-7, .cls-8, .cls-9, .cls-10 {
        stroke-width: .5px;
      }

      .cls-7, .cls-9, .cls-10 {
        stroke: #000;
      }

      .cls-8 {
        stroke: #d3d3d3;
      }

      .cls-9 {
        stroke-miterlimit: 10;
      }

      .cls-4, .cls-5 {
        font-family: AdobeSongStd-Light-GBpc-EUC-H, 'Adobe Song Std';
        font-weight: 300;
      }

      .cls-6 {
        font-size: 1.7px;
      }
    </style>
  </defs>
  <!-- Generator: Adobe Illustrator 28.6.0, SVG Export Plug-In . SVG Version: 1.2.0 Build 709)  -->
  <g>
    <g id="_图层_1" data-name="图层_1">
      <g id="_图层_1-2" data-name="_图层_1">
        <g id="clust1">
          <path class="cls-8" d="M3.6,18h223.6c1,0,1.9-1,1.9-2V4.2c0-1-1-2-1.9-2H3.6c-1,0-1.9,1-1.9,2v11.7c0,1,1,2,1.9,2"/>
          <g class="cls-3">
            <text class="cls-6" transform="translate(107.8 4.5)"><tspan x="0" y="0">RNA-seq (3 batches)</tspan></text>
          </g>
        </g>
        <g>
          <rect class="cls-9" x="43.8" y="6.7" width="25.1" height="5.9"/>
          <g class="cls-3">
            <text class="cls-1" transform="translate(45.7 9.1)"><tspan x="0" y="0">Alignment &amp; gene counts</tspan></text>
            <text class="cls-4" transform="translate(44.7 11.6)"><tspan x="0" y="0">（</tspan></text>
            <text class="cls-1" transform="translate(46.8 11.6)"><tspan x="0" y="0">STAR + featureCounts</tspan></text>
            <text class="cls-4" transform="translate(67.2 11.6)"><tspan x="0" y="0">）</tspan></text>
          </g>
        </g>
        <g>
          <g class="cls-3">
            <text class="cls-1" transform="translate(6.7 9)"><tspan x="0" y="0">Raw QC &amp; trimming</tspan></text>
            <text class="cls-1" transform="translate(4 11.4)"><tspan x="0" y="0">(FastQC / fastp / MultiQC)</tspan></text>
          </g>
          <rect class="cls-9" x="3.3" y="7.1" width="25.1" height="5.9"/>
        </g>
        <g>
          <rect class="cls-9" x="85.4" y="6.9" width="42.8" height="5.9"/>
          <g class="cls-3">
            <text class="cls-2" transform="translate(85.6 9.1)"><tspan x="0" y="0">Merged counts + batch-aware DE</tspan></text>
            <text class="cls-5" transform="translate(85.6 12)"><tspan x="0" y="0">（</tspan></text>
            <text class="cls-2" transform="translate(87.9 12)"><tspan x="0" y="0">DESeq2, design = ~ batch + group</tspan></text>
            <text class="cls-5" transform="translate(124.4 12)"><tspan x="0" y="0">）</tspan></text>
          </g>
        </g>
        <g>
          <rect class="cls-9" x="143.5" y="6.6" width="30.9" height="5.9"/>
          <g class="cls-3">
            <text class="cls-2" transform="translate(143.7 10.4)"><tspan x="0" y="0">Per-gene log2FC (per batch)</tspan></text>
          </g>
        </g>
        <g>
          <rect class="cls-9" x="189.9" y="6.6" width="37" height="5.9"/>
          <g class="cls-3">
            <text class="cls-2" transform="translate(190.1 10.8)"><tspan x="0" y="0">Mechanism gene-set Z (axis-level)</tspan></text>
          </g>
        </g>
        <g id="edge1">
          <path class="cls-7" d="M31.5,9.6h8"/>
          <polygon class="cls-10" points="39.5 9 40.8 9.6 39.5 10.2 39.5 9"/>
        </g>
        <g id="edge1-2">
          <path class="cls-7" d="M73,9.6h8"/>
          <polygon class="cls-10" points="81 9 82.3 9.6 81 10.2 81 9"/>
        </g>
        <g id="edge1-3">
          <path class="cls-7" d="M131.2,9.6h8"/>
          <polygon class="cls-10" points="139.2 9 140.4 9.6 139.2 10.2 139.2 9"/>
        </g>
        <g id="edge1-4">
          <path class="cls-7" d="M177.5,9.6h8"/>
          <polygon class="cls-10" points="185.6 9 186.8 9.6 185.6 10.2 185.6 9"/>
        </g>
        <g id="clust1-2">
          <path class="cls-8" d="M4.1,37.2h223.6c1,0,1.9-1,1.9-2v-11.7c0-1-1-2-1.9-2H4.1c-1,0-1.9,1-1.9,2v11.7c0,1,1,2,1.9,2"/>
          <g class="cls-3">
            <text class="cls-6" transform="translate(108.3 23.7)"><tspan x="0" y="0">Lipidomics (batches 1–3, untargeted)</tspan></text>
          </g>
        </g>
        <g>
          <rect class="cls-9" x="44.2" y="25.9" width="25.1" height="5.9"/>
          <g>
            <path d="M46.3,28.4l-.4-1.5h.2l.2,1c0,.1,0,.2,0,.3,0-.2,0-.2,0-.3l.3-1h.2l.2.7c0,.2,0,.4.1.5,0,0,0-.2,0-.3l.2-.9h.2l-.4,1.5h-.2l-.3-1.1c0,0,0-.2,0-.2,0,0,0,.1,0,.2l-.3,1.1h-.2,0Z"/>
            <path d="M48,27.1v-.2h.2v.2h-.2ZM48,28.4v-1.1h.2v1.1h-.2Z"/>
            <path d="M48.8,28.2v.2h-.1c0,0-.1,0-.2,0s0,0,0,0,0-.1,0-.2v-.6h-.1c0-.1.1-.1.1-.1v-.3h.2c0-.1,0,.3,0,.3h.2c0,.1-.2.1-.2.1v.6h0c0,.1,0,.1,0,.1h.2,0Z"/>
            <path d="M49,28.4v-1.5h.2v.5c0-.1.2-.2.3-.2s.2,0,.2,0,.1,0,.1.1,0,.1,0,.2v.7h-.2v-.7c0,0,0-.2,0-.2s-.1,0-.2,0-.1,0-.2,0,0,0-.1.1,0,.1,0,.2v.6h-.2,0Z"/>
            <path d="M50.1,27.1v-.2h.2v.2h-.2ZM50.1,28.4v-1.1h.2v1.1h-.2Z"/>
            <path d="M50.6,28.4v-1.1h.2v.2c0-.1.2-.2.3-.2s.1,0,.2,0,0,0,.1,0,0,0,0,.1v.8h-.2v-.6c0,0,0-.1,0-.2s0,0,0,0,0,0-.1,0c0,0-.1,0-.2,0s0,.1,0,.3v.6h-.2,0Z"/>
            <path d="M51.6,27.9v-.2h.5v.2h-.5Z"/>
            <path d="M52.5,28.4h-.2v-1.5h.2v.5c0-.1.2-.1.3-.1s.1,0,.2,0,.1,0,.1.1,0,.1,0,.2,0,.1,0,.2c0,.2,0,.3-.1.4s-.2.2-.3.2-.2,0-.3-.2h0c0,.1,0,.1,0,.1ZM52.5,27.8c0,.1,0,.2,0,.3,0,0,.1.1.2.1s.2,0,.2-.1,0-.2,0-.3,0-.2,0-.3-.1-.1-.2-.1-.2,0-.2.1,0,.2,0,.3h0Z"/>
            <path d="M54.2,28.3c0,0-.1.1-.2.1s-.1,0-.2,0-.2,0-.3,0-.1-.1-.1-.2,0-.1,0-.1,0,0,0-.1,0,0,.1,0,0,0,.2,0c.2,0,.3,0,.3,0h0c0-.1,0-.2,0-.2s-.1,0-.2,0-.2,0-.2,0,0,0,0,.2h-.2c0-.1,0-.2,0-.2s0,0,.2-.1.2,0,.2,0,.2,0,.2,0,.1,0,.1,0,0,0,0,.1v.7c0,0,0,0,0,.1h-.2s0,0,0-.1h0ZM54.2,27.8c0,0-.2,0-.3,0,0,0-.1,0-.2,0s0,0,0,0,0,0,0,0c0,0,0,0,0,.1s0,0,.2,0,.1,0,.2,0,0,0,.1-.1c0,0,0-.1,0-.2h0c0,0,0,0,0,0Z"/>
            <path d="M55,28.2v.2h-.1c0,0-.1,0-.2,0s0,0,0,0,0-.1,0-.2v-.6h-.1c0-.1.1-.1.1-.1v-.3h.2c0-.1,0,.3,0,.3h.2c0,.1-.2.1-.2.1v.6h0c0,.1,0,.1,0,.1h.2,0Z"/>
            <path d="M55.9,28h.2c0,.1,0,.2-.2.3s-.2.1-.3.1-.3,0-.4-.1-.1-.2-.1-.4,0-.2,0-.3.1-.2.2-.2.2,0,.3,0,.2,0,.3,0,.1.1.1.3h-.2s0,0,0-.1,0,0-.2,0-.2,0-.2.1,0,.2,0,.3,0,.2,0,.3.1.1.2.1.1,0,.2,0,0-.1,0-.2h0Z"/>
            <path d="M56.2,28.4v-1.5h.2v.5c0-.1.2-.2.3-.2s.2,0,.2,0,.1,0,.1.1,0,.1,0,.2v.7h-.2v-.7c0,0,0-.2,0-.2s-.1,0-.2,0-.1,0-.2,0,0,0-.1.1,0,.1,0,.2v.6h-.2,0Z"/>
            <path d="M57.9,28.4v-1.5h.8c0,0,.1,0,.2,0s0,0,.1.1,0,.1,0,.2,0,.2-.1.3-.2.1-.4.1h-.4v.6h-.2ZM58.1,27.6h.4c.1,0,.2,0,.3,0s0-.1,0-.2,0-.1,0-.2,0,0-.1,0h-.6v.5h0Z"/>
            <path d="M60.4,28.2c0,0,.2.1.3.1h0c-.1.1-.2,0-.3,0-.1,0-.2,0-.4,0s-.3,0-.4-.1-.2-.2-.3-.3,0-.2,0-.4,0-.3,0-.4.1-.2.3-.3.2,0,.4,0,.3,0,.4.1.2.2.3.3,0,.2,0,.4,0,.2,0,.3,0,.2-.2.3h0ZM60,28c.1,0,.2,0,.3.1.1-.1.2-.3.2-.5s0-.2,0-.3-.1-.2-.2-.2-.2,0-.3,0c-.1,0-.3,0-.4.2s-.1.2-.1.4,0,.3.1.4.2.2.4.2.1,0,.2,0c0,0-.1,0-.2,0h0v-.2Z"/>
            <path d="M60.9,28.4v-1.5h.2l.8,1.1v-1.1h.2v1.5h-.2l-.8-1.2v1.2h-.2Z"/>
            <path d="M62.9,28.4v-1.1h.2v.2c0-.1.2-.2.3-.2s.1,0,.2,0,0,0,.1,0,0,0,0,.1v.8h-.2v-.6c0,0,0-.1,0-.2s0,0,0,0,0,0-.1,0c0,0-.1,0-.2,0s0,.1,0,.3v.6h-.2,0Z"/>
            <path d="M64,27.8c0-.2,0-.3.2-.4,0,0,.2-.1.3-.1s.3,0,.4.1.1.2.1.4,0,.2,0,.3-.1.1-.2.2-.2,0-.3,0c-.2,0-.3,0-.4-.1s-.1-.2-.1-.4h0ZM64.1,27.8c0,.1,0,.2,0,.3s.1.1.2.1.2,0,.2-.1,0-.2,0-.3,0-.2,0-.3-.1-.1-.2-.1-.2,0-.2.1,0,.2,0,.3h0Z"/>
            <path d="M65.1,28.4v-1.1h.2v.2c0,0,0-.1.1-.2s0,0,.1,0,.1,0,.2,0v.2c-.1,0-.2,0-.2,0s0,0-.1,0,0,0,0,.1c0,0,0,.1,0,.2v.6h-.2,0Z"/>
            <path d="M65.8,28.4v-1.1h.2v.2c0,0,0,0,.1-.1s.1,0,.2,0,.1,0,.2,0,0,0,.1.1c0-.1.2-.2.3-.2s.2,0,.2,0,0,.2,0,.3v.7h-.2v-.7c0,0,0-.1,0-.2s0,0,0,0,0,0-.1,0c0,0-.1,0-.2,0s0,.1,0,.2v.6h-.2v-.7c0,0,0-.1,0-.2s0,0-.1,0-.1,0-.1,0,0,0,0,.1,0,.1,0,.2v.5h-.2,0Z"/>
            <path d="M68.2,28.3c0,0-.1.1-.2.1s-.1,0-.2,0-.2,0-.3,0-.1-.1-.1-.2,0-.1,0-.1,0,0,0-.1,0,0,.1,0,0,0,.2,0c.2,0,.3,0,.3,0h0c0-.1,0-.2,0-.2s-.1,0-.2,0-.2,0-.2,0,0,0,0,.2h-.2c0-.1,0-.2,0-.2s0,0,.2-.1.2,0,.2,0,.2,0,.2,0,.1,0,.1,0,0,0,0,.1v.7c0,0,0,0,0,.1h-.2s0,0,0-.1h0ZM68.2,27.8c0,0-.2,0-.3,0,0,0-.1,0-.2,0s0,0,0,0,0,0,0,0c0,0,0,0,0,.1s0,0,.2,0,.1,0,.2,0,0,0,.1-.1c0,0,0-.1,0-.2h0c0,0,0,0,0,0Z"/>
            <path d="M68.6,28.4v-1.5h.2v1.5h-.2Z"/>
            <path d="M45.5,29.6v-.2h.2v.2h-.2ZM45.5,30.8v-1.1h.2v1.1h-.2Z"/>
            <path d="M45.9,30.8v-.2l.7-.8h-.6v-.2h.9c0,.1-.6.8-.6.8h-.1c0,.1.2.1.2.1h.5v.2h-.9,0Z"/>
            <path d="M47.7,30.7c0,0-.1.1-.2.1s-.1,0-.2,0-.2,0-.3,0-.1-.1-.1-.2,0-.1,0-.1,0,0,0-.1,0,0,.1,0,0,0,.2,0c.2,0,.3,0,.3,0h0c0-.1,0-.2,0-.2s-.1,0-.2,0-.2,0-.2,0,0,0,0,.2h-.2c0-.1,0-.2,0-.2s0,0,.2-.1.2,0,.2,0,.2,0,.2,0,.1,0,.1,0,0,0,0,.1v.7c0,0,0,0,0,.1h-.2s0,0,0-.1h0ZM47.6,30.3c0,0-.2,0-.3,0,0,0-.1,0-.2,0s0,0,0,0,0,0,0,0c0,0,0,0,0,.1s0,0,.2,0,.1,0,.2,0,0,0,.1-.1c0,0,0-.1,0-.2h0c0,0,0,0,0,0Z"/>
            <path d="M48.5,30.7v.2h-.1c0,0-.1,0-.2,0s0,0,0,0,0-.1,0-.2v-.6h-.1c0-.1.1-.1.1-.1v-.3h.2c0-.1,0,.3,0,.3h.2c0,.1-.2.1-.2.1v.6h0c0,.1,0,.1,0,.1h.2,0Z"/>
            <path d="M48.7,29.6v-.2h.2v.2h-.2ZM48.7,30.8v-1.1h.2v1.1h-.2Z"/>
            <path d="M49,30.3c0-.2,0-.3.2-.4,0,0,.2-.1.3-.1s.3,0,.4.1.1.2.1.4,0,.2,0,.3-.1.1-.2.2-.2,0-.3,0c-.2,0-.3,0-.4-.1s-.1-.2-.1-.4h0ZM49.2,30.3c0,.1,0,.2,0,.3s.1.1.2.1.2,0,.2-.1,0-.2,0-.3,0-.2,0-.3-.1-.1-.2-.1-.2,0-.2.1,0,.2,0,.3h0Z"/>
            <path d="M50.2,30.8v-1.1h.2v.2c0-.1.2-.2.3-.2s.1,0,.2,0,0,0,.1,0,0,0,0,.1v.8h-.2v-.6c0,0,0-.1,0-.2s0,0,0,0,0,0-.1,0c0,0-.1,0-.2,0s0,.1,0,.3v.6h-.2,0Z"/>
            <path d="M52.3,31.3c-.1-.1-.2-.3-.3-.4s-.1-.3-.1-.5,0-.3,0-.5c0-.2.2-.3.3-.5h.1c0,.1-.1.2-.2.3,0,0,0,.2-.1.3,0,.1,0,.3,0,.4,0,.3.1.6.3,1h-.1Z"/>
            <path d="M53.7,30.7c0,0,.2.1.3.1h0c-.1.1-.2,0-.3,0-.1,0-.2,0-.4,0s-.3,0-.4-.1-.2-.2-.3-.3,0-.2,0-.4,0-.3,0-.4.1-.2.3-.3.2,0,.4,0,.3,0,.4.1.2.2.3.3,0,.2,0,.4,0,.2,0,.3,0,.2-.2.3h0ZM53.3,30.4c.1,0,.2,0,.3.1.1-.1.2-.3.2-.5s0-.2,0-.3-.1-.2-.2-.2-.2,0-.3,0c-.1,0-.3,0-.4.2s-.1.2-.1.4,0,.3.1.4.2.2.4.2.1,0,.2,0c0,0-.1,0-.2,0h0v-.2Z"/>
            <path d="M55.3,30.3h.2c0,.2-.1.3-.2.4s-.2.1-.4.1-.3,0-.4-.1-.2-.2-.2-.3,0-.3,0-.4,0-.3,0-.4.1-.2.3-.3.2,0,.4,0,.3,0,.4.1.2.2.2.3h-.2c0,0,0-.1-.2-.2s-.2,0-.2,0-.2,0-.3,0-.1.1-.2.2,0,.2,0,.3,0,.2,0,.3,0,.2.2.2.2,0,.3,0,.2,0,.3-.1.1-.2.2-.3h0Z"/>
            <path d="M56.2,30.8v-1.1h.2v.2c0,0,0,0,.1-.1s.1,0,.2,0,.1,0,.2,0,0,0,.1.1c0-.1.2-.2.3-.2s.2,0,.2,0,0,.2,0,.3v.7h-.2v-.7c0,0,0-.1,0-.2s0,0,0,0,0,0-.1,0c0,0-.1,0-.2,0s0,.1,0,.2v.6h-.2v-.7c0,0,0-.1,0-.2s0,0-.1,0-.1,0-.1,0,0,0,0,.1,0,.1,0,.2v.5h-.2,0Z"/>
            <path d="M58.6,30.5h.2c0,.1,0,.2-.2.3s-.2,0-.3,0-.3,0-.4-.1-.1-.2-.1-.4,0-.3.1-.4.2-.2.4-.2.3,0,.3.1.1.2.1.4,0,0,0,0h-.8c0,.1,0,.2.1.3s.1,0,.2,0,.1,0,.2,0,0,0,.1-.2h0ZM58.1,30.2h.6c0,0,0-.2,0-.2,0,0-.1-.1-.2-.1s-.2,0-.2,0,0,.1,0,.2h0Z"/>
            <path d="M59.7,30.8h0c0,0-.2,0-.3,0s-.2,0-.2,0-.1-.1-.2-.2,0-.2,0-.3,0-.2,0-.3,0-.2.2-.2.2,0,.2,0,.1,0,.2,0,0,0,.1.1v-.5h.2v1.5h-.2,0ZM59.2,30.3c0,.1,0,.2,0,.3s.1.1.2.1.2,0,.2-.1,0-.2,0-.3,0-.3,0-.3-.1-.1-.2-.1-.2,0-.2.1,0,.2,0,.3h0Z"/>
            <path d="M60.2,29.6v-.2h.2v.2h-.2ZM60.2,30.8v-1.1h.2v1.1h-.2Z"/>
            <path d="M61.3,30.7c0,0-.1.1-.2.1s-.1,0-.2,0-.2,0-.3,0-.1-.1-.1-.2,0-.1,0-.1,0,0,0-.1,0,0,.1,0,0,0,.2,0c.2,0,.3,0,.3,0h0c0-.1,0-.2,0-.2s-.1,0-.2,0-.2,0-.2,0,0,0,0,.2h-.2c0-.1,0-.2,0-.2s0,0,.2-.1.2,0,.2,0,.2,0,.2,0,.1,0,.1,0,0,0,0,.1v.7c0,0,0,0,0,.1h-.2s0,0,0-.1h0ZM61.3,30.3c0,0-.2,0-.3,0,0,0-.1,0-.2,0s0,0,0,0,0,0,0,0c0,0,0,0,0,.1s0,0,.2,0,.1,0,.2,0,0,0,.1-.1c0,0,0-.1,0-.2h0c0,0,0,0,0,0Z"/>
            <path d="M61.8,30.8v-1.1h.2v.2c0-.1.2-.2.3-.2s.1,0,.2,0,0,0,.1,0,0,0,0,.1v.8h-.2v-.6c0,0,0-.1,0-.2s0,0,0,0,0,0-.1,0c0,0-.1,0-.2,0s0,.1,0,.3v.6h-.2,0Z"/>
            <path d="M63.5,31.2v-1.5h.2c0,0,0,0,.1,0s.1,0,.2,0,.2,0,.2,0,.1.1.2.2,0,.2,0,.3,0,.2,0,.3-.1.2-.2.2-.2,0-.2,0-.1,0-.2,0,0,0-.1-.1v.5h-.2,0ZM63.6,30.3c0,.1,0,.2,0,.3s.1.1.2.1.2,0,.2-.1,0-.2,0-.3,0-.2,0-.3-.1-.1-.2-.1-.1,0-.2.1,0,.2,0,.3Z"/>
            <path d="M64.6,30.8v-1.1h.2v.2c0,0,0-.1.1-.2s0,0,.1,0,.1,0,.2,0v.2c-.1,0-.2,0-.2,0s0,0-.1,0,0,0,0,.1c0,0,0,.1,0,.2v.6h-.2,0Z"/>
            <path d="M65.2,30.3c0-.2,0-.3.2-.4,0,0,.2-.1.3-.1s.3,0,.4.1.1.2.1.4,0,.2,0,.3-.1.1-.2.2-.2,0-.3,0c-.2,0-.3,0-.4-.1s-.1-.2-.1-.4h0ZM65.4,30.3c0,.1,0,.2,0,.3s.1.1.2.1.2,0,.2-.1,0-.2,0-.3,0-.2,0-.3-.1-.1-.2-.1-.2,0-.2.1,0,.2,0,.3h0Z"/>
            <path d="M66.4,30.8v-.9h-.2c0-.1.2-.1.2-.1h0c0-.2,0-.2,0-.3,0,0,0,0,0-.1s.1,0,.2,0,.1,0,.2,0v.2h-.1c0,0,0,0-.1,0s0,0,0,.1h0c0,.1.2.1.2.1h0c0,.1-.2.1-.2.1v.9h-.2,0Z"/>
            <path d="M67,29.6v-.2h.2v.2h-.2ZM67,30.8v-1.1h.2v1.1h-.2Z"/>
            <path d="M67.4,30.8v-1.5h.2v1.5h-.2Z"/>
            <path d="M68.6,30.5h.2c0,.1,0,.2-.2.3s-.2,0-.3,0-.3,0-.4-.1-.1-.2-.1-.4,0-.3.1-.4.2-.2.4-.2.3,0,.3.1.1.2.1.4,0,0,0,0h-.8c0,.1,0,.2.1.3s.1,0,.2,0,.1,0,.2,0,0,0,.1-.2h0ZM68,30.2h.6c0,0,0-.2,0-.2,0,0-.1-.1-.2-.1s-.2,0-.2,0,0,.1,0,.2h0Z"/>
            <path d="M69.1,31.3h-.1c.2-.3.3-.6.3-1s0-.3,0-.4c0-.1,0-.2-.1-.3s0-.2-.2-.3h.1c.1.2.2.3.3.5,0,.2,0,.3,0,.5s0,.4-.1.5-.2.3-.3.4h0Z"/>
          </g>
        </g>
        <g>
          <g>
            <path d="M4.3,28.5v-1.5h1v.2h-.8v.5h.7v.2h-.7v.7h-.2,0Z"/>
            <path d="M6.3,28.1h.2c0,.1,0,.2-.2.3s-.2,0-.3,0-.3,0-.4-.1-.1-.2-.1-.4,0-.3.1-.4.2-.2.4-.2.3,0,.3.1.1.2.1.4,0,0,0,0h-.8c0,.1,0,.2.1.3s.1,0,.2,0,.1,0,.2,0,0,0,.1-.2h0ZM5.7,27.8h.6c0,0,0-.2,0-.2,0,0-.1-.1-.2-.1s-.2,0-.2,0,0,.1,0,.2h0Z"/>
            <path d="M7.4,28.3c0,0-.1.1-.2.1s-.1,0-.2,0-.2,0-.3,0-.1-.1-.1-.2,0-.1,0-.1,0,0,0-.1,0,0,.1,0,0,0,.2,0c.2,0,.3,0,.3,0h0c0-.1,0-.2,0-.2s-.1,0-.2,0-.2,0-.2,0,0,0,0,.2h-.2c0-.1,0-.2,0-.2s0,0,.2-.1.2,0,.2,0,.2,0,.2,0,.1,0,.1,0,0,0,0,.1v.7c0,0,0,0,0,.1h-.2s0,0,0-.1h0ZM7.3,27.9c0,0-.2,0-.3,0,0,0-.1,0-.2,0s0,0,0,0,0,0,0,0c0,0,0,0,0,.1s0,0,.2,0,.1,0,.2,0,0,0,.1-.1c0,0,0-.1,0-.2h0c0,0,0,0,0,0Z"/>
            <path d="M8.2,28.3v.2h-.1c0,0-.1,0-.2,0s0,0,0,0,0-.1,0-.2v-.6h-.1c0-.1.1-.1.1-.1v-.3h.2c0-.1,0,.3,0,.3h.2c0,.1-.2.1-.2.1v.6h0c0,.1,0,.1,0,.1h.2,0Z"/>
            <path d="M9,28.5v-.2c0,.1-.2.2-.3.2s-.1,0-.2,0-.1,0-.1,0,0,0,0-.1v-.8h.2v.8c0,0,0,0,0,.1s0,0,.1,0,.1,0,.2,0,0,0,.1-.1,0-.1,0-.2v-.6h.2v1.1h-.2Z"/>
            <path d="M9.5,28.5v-1.1h.2v.2c0,0,0-.1.1-.2s0,0,.1,0,.1,0,.2,0v.2c-.1,0-.2,0-.2,0s0,0-.1,0,0,0,0,.1c0,0,0,.1,0,.2v.6h-.2,0Z"/>
            <path d="M10.9,28.1h.2c0,.1,0,.2-.2.3s-.2,0-.3,0-.3,0-.4-.1-.1-.2-.1-.4,0-.3.1-.4.2-.2.4-.2.3,0,.3.1.1.2.1.4,0,0,0,0h-.8c0,.1,0,.2.1.3s.1,0,.2,0,.1,0,.2,0,0,0,.1-.2h0ZM10.3,27.8h.6c0,0,0-.2,0-.2,0,0-.1-.1-.2-.1s-.2,0-.2,0,0,.1,0,.2h0Z"/>
            <path d="M11.2,28v-.2h.5v.2h-.5Z"/>
            <path d="M12,28.5v-1.5h.2v1.5h-.2Z"/>
            <path d="M13.1,28.1h.2c0,.1,0,.2-.2.3s-.2,0-.3,0-.3,0-.4-.1-.1-.2-.1-.4,0-.3.1-.4.2-.2.4-.2.3,0,.3.1.1.2.1.4,0,0,0,0h-.8c0,.1,0,.2.1.3s.1,0,.2,0,.1,0,.2,0,0,0,.1-.2h0ZM12.5,27.8h.6c0,0,0-.2,0-.2,0,0-.1-.1-.2-.1s-.2,0-.2,0,0,.1,0,.2h0Z"/>
            <path d="M13.8,28.5l-.4-1.1h.2l.2.6c0,0,0,.1,0,.2,0,0,0-.1,0-.2l.2-.6h.2l-.4,1.1h-.2,0Z"/>
            <path d="M15.3,28.1h.2c0,.1,0,.2-.2.3s-.2,0-.3,0-.3,0-.4-.1-.1-.2-.1-.4,0-.3.1-.4.2-.2.4-.2.3,0,.3.1.1.2.1.4,0,0,0,0h-.8c0,.1,0,.2.1.3s.1,0,.2,0,.1,0,.2,0,0,0,.1-.2h0ZM14.7,27.8h.6c0,0,0-.2,0-.2,0,0-.1-.1-.2-.1s-.2,0-.2,0,0,.1,0,.2h0Z"/>
            <path d="M15.7,28.5v-1.5h.2v1.5h-.2Z"/>
            <path d="M17.8,28.3c0,0,.2.1.3.1h0c-.1.1-.2,0-.3,0-.1,0-.2,0-.4,0s-.3,0-.4-.1-.2-.2-.3-.3,0-.2,0-.4,0-.3,0-.4.1-.2.3-.3.2,0,.4,0,.3,0,.4.1.2.2.3.3,0,.2,0,.4,0,.2,0,.3,0,.2-.2.3h0ZM17.4,28.1c.1,0,.2,0,.3.1.1-.1.2-.3.2-.5s0-.2,0-.3-.1-.2-.2-.2-.2,0-.3,0c-.1,0-.3,0-.4.2s-.1.2-.1.4,0,.3.1.4.2.2.4.2.1,0,.2,0c0,0-.1,0-.2,0h0v-.2Z"/>
            <path d="M19.4,27.9h.2c0,.2-.1.3-.2.4s-.2.1-.4.1-.3,0-.4-.1-.2-.2-.2-.3,0-.3,0-.4,0-.3,0-.4.1-.2.3-.3.2,0,.4,0,.3,0,.4.1.2.2.2.3h-.2c0,0,0-.1-.2-.2s-.2,0-.2,0-.2,0-.3,0-.1.1-.2.2,0,.2,0,.3,0,.2,0,.3,0,.2.2.2.2,0,.3,0,.2,0,.3-.1.1-.2.2-.3h0Z"/>
            <path d="M21.1,28.3c0,0-.1.1-.2.2s-.2,0-.2,0c-.2,0-.3,0-.4-.2,0,0-.1-.2-.1-.3s0-.2,0-.2.2-.1.3-.2c0,0-.1-.1-.1-.2s0,0,0-.1c0,0,0-.2.1-.2s.2-.1.3-.1.2,0,.2,0,.1.1.1.2c0,.1,0,.3-.3.4l.3.3c0,0,0-.1,0-.2h.2c0,.2,0,.3-.1.4,0,0,.1.2.2.2h-.1c0,0-.2,0-.2,0h0ZM21,28.1l-.3-.4c-.1,0-.2.1-.2.2s0,.1,0,.2,0,.1,0,.2.1.1.2.1.1,0,.2,0,.1,0,.1-.1ZM20.8,27.5c0,0,.1,0,.2-.1s0,0,0-.1,0,0,0-.1,0,0-.1,0,0,0-.1,0,0,0,0,.1,0,0,0,0,0,0,0,0h0Z"/>
            <path d="M22.9,28.5h0c0,0-.2,0-.3,0s-.2,0-.2,0-.1-.1-.2-.2,0-.2,0-.3,0-.2,0-.3,0-.2.2-.2.2,0,.2,0,.1,0,.2,0,0,0,.1.1v-.5h.2v1.5h-.2,0ZM22.4,27.9c0,.1,0,.2,0,.3s.1.1.2.1.2,0,.2-.1,0-.2,0-.3,0-.3,0-.3-.1-.1-.2-.1-.2,0-.2.1,0,.2,0,.3h0Z"/>
            <path d="M24.1,28.1h.2c0,.1,0,.2-.2.3s-.2,0-.3,0-.3,0-.4-.1-.1-.2-.1-.4,0-.3.1-.4.2-.2.4-.2.3,0,.3.1.1.2.1.4,0,0,0,0h-.8c0,.1,0,.2.1.3s.1,0,.2,0,.1,0,.2,0,0,0,.1-.2h0ZM23.5,27.8h.6c0,0,0-.2,0-.2,0,0-.1-.1-.2-.1s-.2,0-.2,0,0,.1,0,.2h0Z"/>
            <path d="M25.2,28.5h0c0,0-.2,0-.3,0s-.2,0-.2,0-.1-.1-.2-.2,0-.2,0-.3,0-.2,0-.3,0-.2.2-.2.2,0,.2,0,.1,0,.2,0,0,0,.1.1v-.5h.2v1.5h-.2,0ZM24.6,27.9c0,.1,0,.2,0,.3s.1.1.2.1.2,0,.2-.1,0-.2,0-.3,0-.3,0-.3-.1-.1-.2-.1-.2,0-.2.1,0,.2,0,.3h0Z"/>
            <path d="M26.3,28.5v-.2c0,.1-.2.2-.3.2s-.1,0-.2,0-.1,0-.1,0,0,0,0-.1v-.8h.2v.8c0,0,0,0,0,.1s0,0,.1,0,.1,0,.2,0,0,0,.1-.1,0-.1,0-.2v-.6h.2v1.1h-.2Z"/>
            <path d="M26.8,28.9v-1.5h.2c0,0,0,0,.1,0s.1,0,.2,0,.2,0,.2,0,.1.1.2.2,0,.2,0,.3,0,.2,0,.3-.1.2-.2.2-.2,0-.2,0-.1,0-.2,0,0,0-.1-.1v.5h-.2ZM26.9,27.9c0,.1,0,.2,0,.3s.1.1.2.1.2,0,.2-.1,0-.2,0-.3,0-.2,0-.3-.1-.1-.2-.1-.1,0-.2.1,0,.2,0,.3Z"/>
            <path d="M7.8,31.3c-.1-.1-.2-.3-.3-.4s-.1-.3-.1-.5,0-.3,0-.5c0-.2.2-.3.3-.5h.1c0,.1-.1.2-.2.3,0,0,0,.2-.1.3,0,.1,0,.3,0,.4,0,.3.1.6.3,1h-.1Z"/>
            <path d="M9.3,30.8c0,0,.2.1.3.1h0c-.1.1-.2,0-.3,0-.1,0-.2,0-.4,0s-.3,0-.4-.1-.2-.2-.3-.3,0-.2,0-.4,0-.3,0-.4.1-.2.3-.3.2,0,.4,0,.3,0,.4.1.2.2.3.3,0,.2,0,.4,0,.2,0,.3,0,.2-.2.3h0ZM8.9,30.5c.1,0,.2,0,.3.1.1-.1.2-.3.2-.5s0-.2,0-.3-.1-.2-.2-.2-.2,0-.3,0c-.1,0-.3,0-.4.2s-.1.2-.1.4,0,.3.1.4.2.2.4.2.1,0,.2,0c0,0-.1,0-.2,0h0c0-.1,0-.2,0-.2Z"/>
            <path d="M10.8,30.4h.2c0,.2-.1.3-.2.4s-.2.1-.4.1-.3,0-.4-.1-.2-.2-.2-.3,0-.3,0-.4,0-.3,0-.4.1-.2.3-.3.2,0,.4,0,.3,0,.4.1.2.2.2.3h-.2c0,0,0-.1-.2-.2s-.2,0-.2,0-.2,0-.3,0-.1.1-.2.2,0,.2,0,.3,0,.2,0,.3,0,.2.2.2.2,0,.3,0,.2,0,.3-.1.1-.2.2-.3h0Z"/>
            <path d="M11.2,30.5v-.2h.5v.2h-.5Z"/>
            <path d="M12.1,30.9h-.2v-1.5h.2v.5c0-.1.2-.1.3-.1s.1,0,.2,0,.1,0,.1.1,0,.1,0,.2,0,.1,0,.2c0,.2,0,.3-.1.4s-.2.2-.3.2-.2,0-.3-.2h0c0,.1,0,.1,0,.1ZM12.1,30.4c0,.1,0,.2,0,.3,0,0,.1.1.2.1s.2,0,.2-.1,0-.2,0-.3,0-.2,0-.3-.1-.1-.2-.1-.2,0-.2.1,0,.2,0,.3h0Z"/>
            <path d="M13.7,30.8c0,0-.1.1-.2.1s-.1,0-.2,0-.2,0-.3,0-.1-.1-.1-.2,0-.1,0-.1,0,0,0-.1,0,0,.1,0,0,0,.2,0c.2,0,.3,0,.3,0h0c0-.1,0-.2,0-.2s-.1,0-.2,0-.2,0-.2,0,0,0,0,.2h-.2c0-.1,0-.2,0-.2s0,0,.2-.1.2,0,.2,0,.2,0,.2,0,.1,0,.1,0,0,0,0,.1v.7c0,0,0,0,0,.1h-.2s0,0,0-.1h0ZM13.7,30.4c0,0-.2,0-.3,0,0,0-.1,0-.2,0s0,0,0,0,0,0,0,0c0,0,0,0,0,.1s0,0,.2,0,.1,0,.2,0,0,0,.1-.1c0,0,0-.1,0-.2h0c0,0,0,0,0,0Z"/>
            <path d="M14.1,30.6h.2s0,0,0,.1.1,0,.2,0,.1,0,.2,0,0,0,0-.1,0,0,0-.1c0,0,0,0-.2,0-.1,0-.2,0-.3,0s0,0-.1-.1,0,0,0-.1,0,0,0-.1,0,0,0-.1c0,0,0,0,.1,0s.1,0,.2,0c0,0,.2,0,.2,0s.1,0,.1.1,0,.1,0,.2h-.2s0,0,0-.1,0,0-.2,0-.1,0-.2,0,0,0,0,.1,0,0,0,0c0,0,0,0,0,0,0,0,0,0,.2,0,.1,0,.2,0,.3,0s0,0,.1.1,0,0,0,.2,0,.1,0,.2,0,.1-.2.1-.1,0-.2,0c-.1,0-.2,0-.3,0s-.1-.1-.1-.3h0Z"/>
            <path d="M15.9,30.6h.2c0,.1,0,.2-.2.3s-.2,0-.3,0-.3,0-.4-.1-.1-.2-.1-.4,0-.3.1-.4.2-.2.4-.2.3,0,.3.1.1.2.1.4,0,0,0,0h-.8c0,.1,0,.2.1.3s.1,0,.2,0,.1,0,.2,0,0,0,.1-.2h0ZM15.3,30.3h.6c0,0,0-.2,0-.2,0,0-.1-.1-.2-.1s-.2,0-.2,0,0,.1,0,.2h0Z"/>
            <path d="M17,30.9h0c0,0-.2,0-.3,0s-.2,0-.2,0-.1-.1-.2-.2,0-.2,0-.3,0-.2,0-.3,0-.2.2-.2.2,0,.2,0,.1,0,.2,0,0,0,.1.1v-.5h.2v1.5h-.2,0ZM16.4,30.4c0,.1,0,.2,0,.3s.1.1.2.1.2,0,.2-.1,0-.2,0-.3,0-.3,0-.3-.1-.1-.2-.1-.2,0-.2.1,0,.2,0,.3h0Z"/>
            <path d="M18.1,30.9v-.9h-.2c0-.1.2-.1.2-.1h0c0-.2,0-.2,0-.3,0,0,0,0,0-.1s.1,0,.2,0,.1,0,.2,0v.2h-.1c0,0,0,0-.1,0s0,0,0,.1h0c0,.1.2.1.2.1h0c0,.1-.2.1-.2.1v.9h-.2Z"/>
            <path d="M18.6,29.6v-.2h.2v.2h-.2ZM18.6,30.9v-1.1h.2v1.1h-.2Z"/>
            <path d="M19,30.9v-1.5h.2v1.5h-.2Z"/>
            <path d="M19.9,30.7v.2h-.1c0,0-.1,0-.2,0s0,0,0,0,0-.1,0-.2v-.6h-.1c0-.1.1-.1.1-.1v-.3h.2c0-.1,0,.3,0,.3h.2c0,.1-.2.1-.2.1v.6h0c0,.1,0,.1,0,.1h.2,0Z"/>
            <path d="M20.8,30.6h.2c0,.1,0,.2-.2.3s-.2,0-.3,0-.3,0-.4-.1-.1-.2-.1-.4,0-.3.1-.4.2-.2.4-.2.3,0,.3.1.1.2.1.4,0,0,0,0h-.8c0,.1,0,.2.1.3s.1,0,.2,0,.1,0,.2,0,0,0,.1-.2h0ZM20.2,30.3h.6c0,0,0-.2,0-.2,0,0-.1-.1-.2-.1s-.2,0-.2,0,0,.1,0,.2h0Z"/>
            <path d="M21.2,30.9v-1.1h.2v.2c0,0,0-.1.1-.2s0,0,.1,0,.1,0,.2,0v.2c-.1,0-.2,0-.2,0s0,0-.1,0,0,0,0,.1c0,0,0,.1,0,.2v.6h-.2,0Z"/>
            <path d="M21.8,29.6v-.2h.2v.2h-.2ZM21.8,30.9v-1.1h.2v1.1h-.2Z"/>
            <path d="M22.3,30.9v-1.1h.2v.2c0-.1.2-.2.3-.2s.1,0,.2,0,0,0,.1,0,0,0,0,.1v.8h-.2v-.6c0,0,0-.1,0-.2s0,0,0,0,0,0-.1,0c0,0-.1,0-.2,0s0,.1,0,.3v.6h-.2,0Z"/>
            <path d="M23.4,31h.2c0,0,0,.1,0,.2,0,0,.1,0,.2,0s.2,0,.2,0,0,0,0-.1v-.2c0,0-.2.1-.3.1s-.3,0-.3-.2-.1-.2-.1-.4,0-.2,0-.3,0-.2.2-.2.2,0,.2,0,.2,0,.3.2h0c0-.1.2-.1.2-.1v.9c0,.2,0,.3,0,.4s0,.1-.2.2-.2,0-.3,0-.2,0-.3,0-.1-.1-.1-.3h0ZM23.5,30.4c0,.1,0,.2,0,.3s.1.1.2.1.2,0,.2-.1,0-.2,0-.3,0-.2,0-.3-.1-.1-.2-.1-.2,0-.2.1,0,.2,0,.3Z"/>
            <path d="M24.7,31.3h-.1c.2-.3.3-.6.3-1s0-.3,0-.4c0-.1,0-.2-.1-.3,0,0,0-.2-.2-.3h.1c.1.2.2.3.3.5,0,.2,0,.3,0,.5s0,.4-.1.5-.2.3-.3.4h0Z"/>
          </g>
          <rect class="cls-9" x="3.8" y="26.3" width="25.1" height="5.9"/>
        </g>
        <g>
          <rect class="cls-9" x="85.8" y="26.1" width="42.8" height="5.9"/>
          <g>
            <path d="M86.2,28.4v-1.7h.3l.4,1.2c0,.1,0,.2,0,.3,0,0,0-.2,0-.3l.4-1.2h.3v1.7h-.2v-1.4l-.5,1.4h-.2l-.5-1.4v1.4h-.2Z"/>
            <path d="M89,28h.2c0,.2-.1.3-.2.3s-.2.1-.4.1-.3,0-.4-.2-.2-.3-.2-.5,0-.4.2-.5.2-.2.4-.2.3,0,.4.2.2.3.2.5,0,0,0,0h-.9c0,.1,0,.2.1.3s.2.1.3.1.1,0,.2,0,.1-.1.1-.2h0ZM88.3,27.6h.7c0-.1,0-.2,0-.2,0,0-.2-.1-.3-.1s-.2,0-.2.1-.1.2-.1.3h0Z"/>
            <path d="M90.3,27.9h.2c0,.2,0,.3-.2.4s-.2.1-.3.1-.3,0-.4-.2-.2-.3-.2-.5,0-.3,0-.4.1-.2.2-.2.2,0,.3,0,.2,0,.3.1.1.2.2.3h-.2c0,0,0-.1-.1-.2s-.1,0-.2,0c-.1,0-.2,0-.3.1s-.1.2-.1.4,0,.3.1.4.2.1.3.1.2,0,.2,0,0-.1.1-.2h0Z"/>
            <path d="M90.7,28.4v-1.7h.2v.6c.1-.1.2-.2.4-.2s.2,0,.2,0,.1,0,.2.2,0,.2,0,.3v.8h-.2v-.8c0-.1,0-.2,0-.2s-.1,0-.2,0-.1,0-.2,0-.1,0-.1.1,0,.1,0,.2v.7h-.2Z"/>
            <path d="M92.8,28.2c0,0-.2.1-.2.1s-.2,0-.2,0c-.1,0-.2,0-.3-.1s-.1-.2-.1-.3,0-.1,0-.2,0,0,.1-.1.1,0,.2,0c0,0,.1,0,.2,0,.2,0,.3,0,.4,0h0c0-.1,0-.2,0-.2,0,0-.1,0-.2,0s-.2,0-.2,0,0,.1-.1.2h-.2c0-.1,0-.2,0-.2s.1-.1.2-.1.2,0,.3,0,.2,0,.3,0,.1,0,.2.1,0,0,0,.1v.8c0,0,0,.1,0,.2h-.2c0,0,0-.1,0-.2h0ZM92.8,27.7c0,0-.2,0-.3,0,0,0-.2,0-.2,0s0,0,0,0,0,0,0,.1c0,0,0,.1,0,.1s.1,0,.2,0,.2,0,.2,0,.1,0,.1-.2c0,0,0-.1,0-.2h0c0,0,0,0,0,0Z"/>
            <path d="M93.3,28.4v-1.2h.2v.2c0-.1.2-.2.4-.2s.1,0,.2,0,.1,0,.1.1,0,.1,0,.2v1h-.2v-.7c0,0,0-.2,0-.2s0,0,0-.1,0,0-.2,0-.2,0-.2,0-.1.2-.1.3v.7h-.2,0Z"/>
            <path d="M94.6,26.9v-.2h.2v.2h-.2ZM94.6,28.4v-1.2h.2v1.2h-.2Z"/>
            <path d="M95.1,28h.2c0,0,0,.1.1.2s.1,0,.2,0,.2,0,.2,0,0,0,0-.1,0,0,0-.1c0,0-.1,0-.2,0-.2,0-.3,0-.3-.1s-.1,0-.1-.1,0-.1,0-.2,0-.1,0-.2,0,0,.1-.1c0,0,0,0,.1,0s.1,0,.2,0c.1,0,.2,0,.3,0s.1,0,.2.1,0,.1,0,.2h-.2s0,0,0-.1-.1,0-.2,0-.2,0-.2,0,0,0,0,.1,0,0,0,0c0,0,0,0,0,0,0,0,0,0,.2,0,.2,0,.3,0,.3.1s.1,0,.1.1,0,.1,0,.2,0,.1,0,.2-.1.1-.2.1-.2,0-.3,0c-.2,0-.3,0-.4-.1s-.1-.2-.2-.3h0Z"/>
            <path d="M96.8,28.2v.2s0,0-.1,0c0,0-.1,0-.2,0s0,0,0-.1,0-.1,0-.3v-.7h-.2v-.2h.2v-.3h.2c0-.1,0,.3,0,.3h.2v.2h-.2v.7h0c0,.1,0,.2,0,.2h.2Z"/>
            <path d="M97,26.9v-.2h.2v.2h-.2ZM97,28.4v-1.2h.2v1.2h-.2Z"/>
            <path d="M98.3,27.9h.2c0,.2,0,.3-.2.4s-.2.1-.3.1-.3,0-.4-.2-.2-.3-.2-.5,0-.3,0-.4.1-.2.2-.2.2,0,.3,0,.2,0,.3.1.1.2.2.3h-.2c0,0,0-.1-.1-.2s-.1,0-.2,0c-.1,0-.2,0-.3.1s-.1.2-.1.4,0,.3.1.4.2.1.3.1.2,0,.2,0,0-.1.1-.2h0Z"/>
            <path d="M99.4,26.9v-.2h.2v.2h-.2ZM99.4,28.4v-1.2h.2v1.2h-.2Z"/>
            <path d="M99.9,28.4v-1.2h.2v.2c0-.1.2-.2.4-.2s.1,0,.2,0,.1,0,.1.1,0,.1,0,.2v1h-.2v-.7c0,0,0-.2,0-.2s0,0,0-.1,0,0-.2,0-.2,0-.2,0-.1.2-.1.3v.7h-.2,0Z"/>
            <path d="M102,28.4v-.2c0,.1-.2.2-.3.2s-.2,0-.3,0-.2-.1-.2-.2,0-.2,0-.3,0-.2,0-.3.1-.2.2-.2.2,0,.3,0,.1,0,.2,0,.1,0,.1.1v-.6h.2v1.7h-.2ZM101.3,27.8c0,.2,0,.3.1.4s.2.1.2.1.2,0,.2-.1.1-.2.1-.3,0-.3-.1-.4-.2-.1-.2-.1-.2,0-.2.1-.1.2-.1.4h0Z"/>
            <path d="M102.5,26.9v-.2h.2v.2h-.2ZM102.5,28.4v-1.2h.2v1.2h-.2Z"/>
            <path d="M103.8,27.9h.2c0,.2,0,.3-.2.4s-.2.1-.3.1-.3,0-.4-.2-.2-.3-.2-.5,0-.3,0-.4.1-.2.2-.2.2,0,.3,0,.2,0,.3.1.1.2.2.3h-.2c0,0,0-.1-.1-.2s-.1,0-.2,0c-.1,0-.2,0-.3.1s-.1.2-.1.4,0,.3.1.4.2.1.3.1.2,0,.2,0,0-.1.1-.2h0Z"/>
            <path d="M105,28.2c0,0-.2.1-.2.1s-.2,0-.2,0c-.1,0-.2,0-.3-.1s-.1-.2-.1-.3,0-.1,0-.2,0,0,.1-.1.1,0,.2,0c0,0,.1,0,.2,0,.2,0,.3,0,.4,0h0c0-.1,0-.2,0-.2,0,0-.1,0-.2,0s-.2,0-.2,0,0,.1-.1.2h-.2c0-.1,0-.2,0-.2s.1-.1.2-.1.2,0,.3,0,.2,0,.3,0,.1,0,.2.1,0,0,0,.1v.8c0,0,0,.1,0,.2h-.2c0,0,0-.1,0-.2h0ZM105,27.7c0,0-.2,0-.3,0,0,0-.2,0-.2,0s0,0,0,0,0,0,0,.1c0,0,0,.1,0,.1s.1,0,.2,0,.2,0,.2,0,.1,0,.1-.2c0,0,0-.1,0-.2h0c0,0,0,0,0,0Z"/>
            <path d="M106,28.2v.2s0,0-.1,0c0,0-.1,0-.2,0s0,0,0-.1,0-.1,0-.3v-.7h-.2v-.2h.2v-.3h.2c0-.1,0,.3,0,.3h.2v.2h-.2v.7h0c0,.1,0,.2,0,.2h.2Z"/>
            <path d="M106.1,27.8c0-.2,0-.4.2-.5.1,0,.2-.1.4-.1s.3,0,.4.2.2.3.2.5,0,.3,0,.4-.1.2-.2.2-.2,0-.3,0c-.2,0-.3,0-.4-.2s-.2-.3-.2-.5h0ZM106.3,27.8c0,.2,0,.3.1.4s.2.1.3.1.2,0,.3-.1.1-.2.1-.4,0-.3-.1-.3-.2-.1-.3-.1-.2,0-.3.1-.1.2-.1.4h0Z"/>
            <path d="M107.5,28.4v-1.2h.2v.2c0,0,0-.2.1-.2s0,0,.1,0,.1,0,.2,0v.2c-.1,0-.2,0-.2,0s0,0-.1,0,0,0,0,.1c0,0,0,.2,0,.2v.6h-.2Z"/>
            <path d="M108.2,28h.2c0,0,0,.1.1.2s.1,0,.2,0,.2,0,.2,0,0,0,0-.1,0,0,0-.1c0,0-.1,0-.2,0-.2,0-.3,0-.3-.1s-.1,0-.1-.1,0-.1,0-.2,0-.1,0-.2,0,0,.1-.1c0,0,0,0,.1,0s.1,0,.2,0c.1,0,.2,0,.3,0s.1,0,.2.1,0,.1,0,.2h-.2s0,0,0-.1-.1,0-.2,0-.2,0-.2,0,0,0,0,.1,0,0,0,0c0,0,0,0,0,0,0,0,0,0,.2,0,.2,0,.3,0,.3.1s.1,0,.1.1,0,.1,0,.2,0,.1,0,.2-.1.1-.2.1-.2,0-.3,0c-.2,0-.3,0-.4-.1s-.1-.2-.2-.3h0Z"/>
            <path d="M109.6,27.4v-.2h.2v.2h-.2ZM109.6,28.4v-.2h.2v.2h-.2Z"/>
            <path d="M112.1,27.8h.2c0,.2-.1.4-.3.5s-.3.2-.4.2-.3,0-.4-.1-.2-.2-.3-.3,0-.3,0-.5,0-.3.1-.5.2-.2.3-.3.3-.1.4-.1.3,0,.4.1.2.2.2.4h-.2c0,0-.1-.2-.2-.2s-.2,0-.3,0-.2,0-.3.1-.2.2-.2.3,0,.2,0,.3,0,.3,0,.4.1.2.2.2.2,0,.3,0,.2,0,.3-.1.2-.2.2-.3h0Z"/>
            <path d="M112.5,28.4v-1.7h.2v1.5h.8v.2h-1.1,0Z"/>
            <path d="M113.7,28.4l.5-1.8h.2l-.5,1.8h-.2Z"/>
            <path d="M114.5,28.4v-1.7h.9c0,0,.2,0,.2,0s.1.1.1.2,0,.2,0,.2c0,.2,0,.3-.1.4s-.3.2-.5.2h-.4v.7h-.2ZM114.8,27.5h.4c.2,0,.3,0,.3,0s0-.1,0-.2,0-.1,0-.2,0,0-.1-.1h-.6v.6h0Z"/>
            <path d="M116.9,27.7v-.2h.7v.6c-.1,0-.2.2-.3.2s-.2,0-.4,0-.3,0-.5-.1-.2-.2-.3-.3-.1-.3-.1-.5,0-.3.1-.5.2-.3.3-.3.3-.1.4-.1.2,0,.3,0,.2.1.2.2.1.2.1.3h-.2s0-.1-.1-.2,0,0-.2-.1-.2,0-.2,0-.2,0-.3,0-.1,0-.2.1,0,.1-.1.2c0,.1,0,.2,0,.3s0,.3,0,.4.1.2.2.2.2,0,.3,0,.2,0,.3,0,.2,0,.2-.1v-.3h-.5Z"/>
            <path d="M118,28.4v-.2h.2v.2c0,0,0,.2,0,.2s0,.1-.2.1h0c0-.1,0-.1.1-.2s0,0,0-.2h-.1Z"/>
            <path d="M119.3,28.4v-1.7h.3l.4,1.2c0,.1,0,.2,0,.3,0,0,0-.2,0-.3l.4-1.2h.3v1.7h-.2v-1.4l-.5,1.4h-.2l-.5-1.4v1.4h-.2Z"/>
            <path d="M121.2,28.4v-1.7h.2v1.5h.8v.2h-1.1,0Z"/>
            <path d="M123.8,27.8h.2c0,.2-.1.4-.3.5s-.3.2-.4.2-.3,0-.4-.1-.2-.2-.3-.3,0-.3,0-.5,0-.3.1-.5.2-.2.3-.3.3-.1.4-.1.3,0,.4.1.2.2.2.4h-.2c0,0-.1-.2-.2-.2s-.2,0-.3,0-.2,0-.3.1-.2.2-.2.3,0,.2,0,.3,0,.3,0,.4.1.2.2.2.2,0,.3,0,.2,0,.3-.1.2-.2.2-.3h0Z"/>
            <path d="M124.3,28.4v-1.7h.2v1.5h.8v.2h-1.1,0Z"/>
            <path d="M125.4,28.4l.5-1.8h.2l-.5,1.8h-.2Z"/>
            <path d="M87.4,30.6h.2c0,.2-.1.4-.3.5s-.3.2-.4.2-.3,0-.4-.1c-.1,0-.2-.2-.3-.3s0-.3,0-.5,0-.3.1-.5c0-.1.2-.2.3-.3s.3-.1.4-.1.3,0,.4.1.2.2.2.4h-.2c0,0-.1-.2-.2-.2s-.2,0-.3,0-.2,0-.3.1-.2.2-.2.3,0,.2,0,.3,0,.3,0,.4.1.2.2.2.2,0,.3,0,.2,0,.3-.1c0,0,.2-.2.2-.3h0Z"/>
            <path d="M87.9,31.2v-1.7h.2v1.5h.8v.2h-1.1,0Z"/>
            <path d="M89.3,31.2v-.2h.2v.2c0,0,0,.2,0,.2,0,0,0,.1-.2.1h0c0-.1,0-.1.1-.2s0,0,0-.2h-.1Z"/>
            <path d="M90.5,30.6c0-.2,0-.4.2-.5.1,0,.2-.1.4-.1s.3,0,.4.2c.1.1.2.3.2.5s0,.3,0,.4c0,0-.1.2-.2.2,0,0-.2,0-.3,0-.2,0-.3,0-.4-.2-.1-.1-.2-.3-.2-.5h0ZM90.7,30.6c0,.2,0,.3.1.4,0,0,.2.1.3.1s.2,0,.3-.1.1-.2.1-.4,0-.3-.1-.3c0,0-.2-.1-.3-.1s-.2,0-.3.1-.1.2-.1.4h0Z"/>
            <path d="M91.7,31.2l.5-.6-.4-.6h.3l.2.3c0,0,0,.1,0,.1,0,0,0-.1.1-.1l.2-.3h.3l-.4.6.5.6h-.3l-.3-.4h0c0-.1-.3.4-.3.4h-.3,0Z"/>
            <path d="M94.3,30.6h.2c0,.2-.1.4-.3.5s-.3.2-.4.2-.3,0-.4-.1c-.1,0-.2-.2-.3-.3s0-.3,0-.5,0-.3.1-.5c0-.1.2-.2.3-.3s.3-.1.4-.1.3,0,.4.1.2.2.2.4h-.2c0,0-.1-.2-.2-.2s-.2,0-.3,0-.2,0-.3.1-.2.2-.2.3,0,.2,0,.3,0,.3,0,.4.1.2.2.2.2,0,.3,0,.2,0,.3-.1c0,0,.2-.2.2-.3h0Z"/>
            <path d="M94.8,31.2v-1.7h.2v1.5h.8v.2h-1.1,0Z"/>
            <path d="M95.9,31.3l.5-1.8h.2l-.5,1.8h-.2Z"/>
            <path d="M98,30.6h.2c0,.2-.1.4-.3.5s-.3.2-.4.2-.3,0-.4-.1c-.1,0-.2-.2-.3-.3s0-.3,0-.5,0-.3.1-.5c0-.1.2-.2.3-.3s.3-.1.4-.1.3,0,.4.1.2.2.2.4h-.2c0,0-.1-.2-.2-.2s-.2,0-.3,0-.2,0-.3.1-.2.2-.2.3,0,.2,0,.3,0,.3,0,.4.1.2.2.2.2,0,.3,0,.2,0,.3-.1c0,0,.2-.2.2-.3h0Z"/>
            <path d="M98.5,31.2v-1.7h.2v1.5h.8v.2h-1.1,0Z"/>
            <path d="M99.8,31.2v-.2h.2v.2c0,0,0,.2,0,.2,0,0,0,.1-.2.1h0c0-.1,0-.1.1-.2s0,0,0-.2h-.1Z"/>
            <path d="M102.2,29.5v.2h-.9l.6.6-.6.7h1v.2h-1.2v-.2l.6-.6-.6-.6v-.2h1.2Z"/>
            <path d="M103.8,30.6h.2c0,.2-.1.4-.3.5s-.3.2-.4.2-.3,0-.4-.1c-.1,0-.2-.2-.3-.3s0-.3,0-.5,0-.3.1-.5c0-.1.2-.2.3-.3s.3-.1.4-.1.3,0,.4.1.2.2.2.4h-.2c0,0-.1-.2-.2-.2s-.2,0-.3,0-.2,0-.3.1-.2.2-.2.3,0,.2,0,.3,0,.3,0,.4.1.2.2.2.2,0,.3,0,.2,0,.3-.1c0,0,.2-.2.2-.3h0Z"/>
            <path d="M104.3,31.2v-1.7h.2v1.5h.8v.2h-1.1,0Z"/>
            <path d="M105.6,31.2v-.2h.2v.2c0,0,0,.2,0,.2,0,0,0,.1-.2.1h0c0-.1,0-.1.1-.2s0,0,0-.2h-.1Z"/>
            <path d="M108.1,29.5v.2h-.9l.6.6-.6.7h1v.2h-1.2v-.2l.6-.6-.6-.6v-.2h1.2Z"/>
            <path d="M108.4,31.2v-1.7h.9c0,0,.2,0,.2,0,0,0,.1.1.1.2s0,.2,0,.2c0,.2,0,.3-.1.4,0,.1-.3.2-.5.2h-.4v.7h-.2ZM108.6,30.3h.4c.2,0,.3,0,.3,0,0,0,0-.1,0-.2s0-.1,0-.2,0,0-.1-.1h-.6v.6h0Z"/>
            <path d="M110.7,30.6v-.2h.7v.6c-.1,0-.2.2-.3.2s-.2,0-.4,0-.3,0-.5-.1c-.1,0-.2-.2-.3-.3,0-.1-.1-.3-.1-.5s0-.3.1-.5c0-.1.2-.3.3-.3s.3-.1.4-.1.2,0,.3,0c.1,0,.2.1.2.2,0,0,.1.2.1.3h-.2s0-.1-.1-.2c0,0,0,0-.2-.1,0,0-.2,0-.2,0s-.2,0-.3,0-.1,0-.2.1,0,.1-.1.2c0,.1,0,.2,0,.3s0,.3,0,.4.1.2.2.2c.1,0,.2,0,.3,0s.2,0,.3,0c0,0,.2,0,.2-.1v-.3h-.5Z"/>
            <path d="M111.8,31.2v-.2h.2v.2c0,0,0,.2,0,.2,0,0,0,.1-.2.1h0c0-.1,0-.1.1-.2s0,0,0-.2h-.1Z"/>
            <path d="M113.2,31.2v-.2h.2v.2h-.2ZM114,31.2v-.2h.2v.2h-.2ZM114.8,31.2v-.2h.2v.2h-.2Z"/>
          </g>
        </g>
        <g>
          <rect class="cls-9" x="143.9" y="25.9" width="30.9" height="5.9"/>
          <g class="cls-3">
            <text class="cls-2" transform="translate(144.1 28.2)"><tspan x="0" y="0">Batch-specific axis Z</tspan></text>
            <text class="cls-2" transform="translate(144.1 31)"><tspan x="0" y="0" xml:space="preserve"> (lipid mechanistic axis scores)</tspan></text>
          </g>
        </g>
        <g>
          <rect class="cls-9" x="190.3" y="25.9" width="37" height="5.9"/>
          <g class="cls-3">
            <text class="cls-2" transform="translate(195.6 28.2)"><tspan x="0" y="0">HO vs WT axis-level effects</tspan></text>
            <text class="cls-2" transform="translate(199.2 31)"><tspan x="0" y="0">(δ_axis, z_lipid_axis)</tspan></text>
          </g>
        </g>
        <g id="edge1-5">
          <path class="cls-7" d="M31.9,28.8h8"/>
          <polygon class="cls-10" points="39.9 28.2 41.2 28.8 39.9 29.4 39.9 28.2"/>
        </g>
        <g id="edge1-6">
          <path class="cls-7" d="M73.5,28.8h8"/>
          <polygon class="cls-10" points="81.5 28.2 82.8 28.8 81.5 29.4 81.5 28.2"/>
        </g>
        <g id="edge1-7">
          <path class="cls-7" d="M131.6,28.8h8"/>
          <polygon class="cls-10" points="139.6 28.2 140.9 28.8 139.6 29.4 139.6 28.2"/>
        </g>
        <g id="edge1-8">
          <path class="cls-7" d="M178,28.8h8"/>
          <polygon class="cls-10" points="186 28.2 187.3 28.8 186 29.4 186 28.2"/>
        </g>
        <polyline class="cls-7" points="229.3 8.9 233 8.9 233 30.2 229.3 30.2"/>
        <g>
          <line class="cls-7" x1="233" y1="19.6" x2="241.1" y2="19.6"/>
          <polygon points="240.9 20.4 242.3 19.6 240.9 18.7 240.9 20.4"/>
        </g>
        <g id="clust1-3">
          <path class="cls-8" d="M245,27.7h241.8c1,0,2.1-1,2.1-2v-11.7c0-1-1-2-2.1-2h-241.8c-1,0-2.1,1-2.1,2v11.7c0,1,1,2,2.1,2"/>
          <g class="cls-3">
            <text class="cls-6" transform="translate(357.7 14.2)"><tspan x="0" y="0">Mechanistic axis scores (RNA &amp; lipid, per batch)</tspan></text>
          </g>
        </g>
        <g>
          <rect class="cls-9" x="293.7" y="16.4" width="38.7" height="5.9"/>
          <g class="cls-3">
            <text class="cls-1" transform="translate(294.8 18.9)"><tspan x="0" y="0">Upstream &amp; downstream RNA pathway Z</tspan></text>
            <text class="cls-4" transform="translate(297.7 21.4)"><tspan x="0" y="0">（上游通路</tspan></text>
            <text class="cls-1" transform="translate(307.8 21.4)"><tspan x="0" y="0" xml:space="preserve"> + EphB1 </tspan></text>
            <text class="cls-4" transform="translate(316.8 21.4)"><tspan x="0" y="0">下游基因集）</tspan></text>
          </g>
        </g>
        <g>
          <g class="cls-3">
            <text class="cls-1" transform="translate(253.3 19)"><tspan x="0" y="0">Axis-level multi-omics integration</tspan></text>
            <text class="cls-4" transform="translate(244.9 21.4)"><tspan x="0" y="0">（</tspan></text>
            <text class="cls-1" transform="translate(246.9 21.4)"><tspan x="0" y="0">Stouffer </tspan></text>
            <text class="cls-4" transform="translate(254.6 21.4)"><tspan x="0" y="0">等权合并，得到</tspan></text>
            <text class="cls-1" transform="translate(268.8 21.4)"><tspan x="0" y="0" xml:space="preserve"> per-axis multi-omics Z</tspan></text>
            <text class="cls-4" transform="translate(289.3 21.4)"><tspan x="0" y="0">）</tspan></text>
          </g>
          <rect class="cls-9" x="244.5" y="16.9" width="46.2" height="5.9"/>
        </g>
        <g>
          <rect class="cls-9" x="335.5" y="16.6" width="44.7" height="5.9"/>
          <g class="cls-3">
            <text class="cls-1" transform="translate(347 19)"><tspan x="0" y="0">Axis–pathway alignment</tspan></text>
            <text class="cls-4" transform="translate(334.7 21.4)"><tspan x="0" y="0">（</tspan></text>
            <text class="cls-1" transform="translate(336.7 21.4)"><tspan x="0" y="0">axis × pathway </tspan></text>
            <text class="cls-4" transform="translate(350.8 21.4)"><tspan x="0" y="0">跨批次</tspan></text>
            <text class="cls-1" transform="translate(356.9 21.4)"><tspan x="0" y="0" xml:space="preserve"> mean_Z, cor, support_Z</tspan></text>
            <text class="cls-4" transform="translate(379.1 21.4)"><tspan x="0" y="0">）</tspan></text>
          </g>
        </g>
        <g>
          <rect class="cls-9" x="384.2" y="16.4" width="60" height="5.9"/>
          <g class="cls-3">
            <text class="cls-1" transform="translate(400.4 18.9)"><tspan x="0" y="0">Sample-level RNA–lipid scores</tspan></text>
            <text class="cls-4" transform="translate(383.4 21.3)"><tspan x="0" y="0">（</tspan></text>
            <text class="cls-1" transform="translate(385.4 21.3)"><tspan x="0" y="0">EphB1 </tspan></text>
            <text class="cls-4" transform="translate(392.1 21.3)"><tspan x="0" y="0">下游</tspan></text>
            <text class="cls-1" transform="translate(396.1 21.3)"><tspan x="0" y="0" xml:space="preserve"> M_score_RNA</tspan></text>
            <text class="cls-4" transform="translate(409.9 21.3)"><tspan x="0" y="0">，轴级</tspan></text>
            <text class="cls-1" transform="translate(416 21.3)"><tspan x="0" y="0" xml:space="preserve"> Y_score_RNA / Y_score_lipid</tspan></text>
            <text class="cls-4" transform="translate(443.3 21.3)"><tspan x="0" y="0">）</tspan></text>
          </g>
        </g>
        <g>
          <rect class="cls-9" x="447.6" y="16.4" width="40.1" height="5.9"/>
          <g class="cls-3">
            <text class="cls-1" transform="translate(459.5 18.7)"><tspan x="0" y="0">Mediation analysis</tspan></text>
            <text class="cls-1" transform="translate(451.2 21.2)"><tspan x="0" y="0">(X = group, M = RNA, Y = lipid / axis)</tspan></text>
          </g>
        </g>
      </g>
    </g>
  </g>
</svg>