<?xml version="1.0" encoding="UTF-8" standalone="no"?>
<!DOCTYPE svg PUBLIC "-//W3C//DTD SVG 1.1//EN"
 "http://www.w3.org/Graphics/SVG/1.1/DTD/svg11.dtd">
<!-- Generated by graphviz version 14.0.4 (0)
 -->
<!-- Title: panel_1c_pipeline Pages: 1 -->
<svg width="2087pt" height="343pt"
 viewBox="0.00 0.00 2087.00 343.00" xmlns="http://www.w3.org/2000/svg" xmlns:xlink="http://www.w3.org/1999/xlink">
<g id="graph0" class="graph" transform="scale(1 1) rotate(0) translate(4 339)">
<title>panel_1c_pipeline</title>
<polygon fill="white" stroke="none" points="-4,4 -4,-339 2082.97,-339 2082.97,4 -4,4"/>
<g id="clust1" class="cluster">
<title>cluster_rna</title>
<path fill="none" stroke="lightgrey" d="M20,-234C20,-234 1393.17,-234 1393.17,-234 1399.17,-234 1405.17,-240 1405.17,-246 1405.17,-246 1405.17,-315 1405.17,-315 1405.17,-321 1399.17,-327 1393.17,-327 1393.17,-327 20,-327 20,-327 14,-327 8,-321 8,-315 8,-315 8,-246 8,-246 8,-240 14,-234 20,-234"/>
<text xml:space="preserve" text-anchor="middle" x="706.58" y="-313.5" font-family="Helvetica,sans-Serif" font-size="10.00">RNA&#45;seq (3 batches)</text>
</g>
<g id="clust2" class="cluster">
<title>cluster_lipid</title>
<path fill="none" stroke="lightgrey" d="M110,-109C110,-109 1379.35,-109 1379.35,-109 1385.35,-109 1391.35,-115 1391.35,-121 1391.35,-121 1391.35,-214 1391.35,-214 1391.35,-220 1385.35,-226 1379.35,-226 1379.35,-226 110,-226 110,-226 104,-226 98,-220 98,-214 98,-214 98,-121 98,-121 98,-115 104,-109 110,-109"/>
<text xml:space="preserve" text-anchor="middle" x="744.67" y="-212.5" font-family="Helvetica,sans-Serif" font-size="10.00">Lipidomics (Batch1–3, untargeted)</text>
</g>
<g id="clust3" class="cluster">
<title>cluster_cl</title>
<path fill="none" stroke="lightgrey" d="M642.12,-8C642.12,-8 1398.78,-8 1398.78,-8 1404.78,-8 1410.78,-14 1410.78,-20 1410.78,-20 1410.78,-89 1410.78,-89 1410.78,-95 1404.78,-101 1398.78,-101 1398.78,-101 642.12,-101 642.12,-101 636.12,-101 630.12,-95 630.12,-89 630.12,-89 630.12,-20 630.12,-20 630.12,-14 636.12,-8 642.12,-8"/>
<text xml:space="preserve" text-anchor="middle" x="1020.45" y="-87.5" font-family="Helvetica,sans-Serif" font-size="10.00">CL targeted panel (Batch4)</text>
</g>
<!-- r1 -->
<g id="node1" class="node">
<title>r1</title>
<ellipse fill="none" stroke="black" cx="43" cy="-271" rx="27" ry="18"/>
<text xml:space="preserve" text-anchor="middle" x="43" y="-265.95" font-family="Times,serif" font-size="14.00">QC</text>
</g>
<!-- r2 -->
<g id="node2" class="node">
<title>r2</title>
<ellipse fill="none" stroke="black" cx="196.25" cy="-271" rx="50.84" ry="18"/>
<text xml:space="preserve" text-anchor="middle" x="196.25" y="-265.95" font-family="Times,serif" font-size="14.00">Alignment</text>
</g>
<!-- r1&#45;&gt;r2 -->
<g id="edge1" class="edge">
<title>r1&#45;&gt;r2</title>
<path fill="none" stroke="black" d="M70.35,-271C87.86,-271 111.62,-271 133.71,-271"/>
<polygon fill="black" stroke="black" points="133.56,-274.5 143.56,-271 133.56,-267.5 133.56,-274.5"/>
</g>
<!-- r3 -->
<g id="node3" class="node">
<title>r3</title>
<ellipse fill="none" stroke="black" cx="434.75" cy="-271" rx="60.56" ry="18"/>
<text xml:space="preserve" text-anchor="middle" x="434.75" y="-265.95" font-family="Times,serif" font-size="14.00">Count matrix</text>
</g>
<!-- r2&#45;&gt;r3 -->
<g id="edge2" class="edge">
<title>r2&#45;&gt;r3</title>
<path fill="none" stroke="black" d="M247.41,-271C280.95,-271 325.59,-271 362.77,-271"/>
<polygon fill="black" stroke="black" points="362.53,-274.5 372.53,-271 362.53,-267.5 362.53,-274.5"/>
</g>
<!-- r4 -->
<g id="node4" class="node">
<title>r4</title>
<ellipse fill="none" stroke="black" cx="724.79" cy="-271" rx="141.77" ry="28.99"/>
<text xml:space="preserve" text-anchor="middle" x="724.79" y="-274.2" font-family="Times,serif" font-size="14.00">Normalization + Batch correction</text>
<text xml:space="preserve" text-anchor="middle" x="724.79" y="-257.7" font-family="Times,serif" font-size="14.00">(DESeq2: ~ batch + group)</text>
</g>
<!-- r3&#45;&gt;r4 -->
<g id="edge3" class="edge">
<title>r3&#45;&gt;r4</title>
<path fill="none" stroke="black" d="M495.78,-271C518.07,-271 544.49,-271 571.29,-271"/>
<polygon fill="black" stroke="black" points="571.28,-274.5 581.28,-271 571.28,-267.5 571.28,-274.5"/>
</g>
<!-- r5 -->
<g id="node5" class="node">
<title>r5</title>
<ellipse fill="none" stroke="black" cx="1032.67" cy="-268" rx="81.55" ry="18"/>
<text xml:space="preserve" text-anchor="middle" x="1032.67" y="-262.95" font-family="Times,serif" font-size="14.00">Gene&#45;level log2FC</text>
</g>
<!-- r4&#45;&gt;r5 -->
<g id="edge4" class="edge">
<title>r4&#45;&gt;r5</title>
<path fill="none" stroke="black" d="M866.64,-269.62C891.32,-269.38 916.42,-269.13 939.36,-268.91"/>
<polygon fill="black" stroke="black" points="939.3,-272.41 949.27,-268.81 939.23,-265.41 939.3,-272.41"/>
</g>
<!-- r6 -->
<g id="node6" class="node">
<title>r6</title>
<ellipse fill="none" stroke="black" cx="1300.78" cy="-265" rx="96.39" ry="18"/>
<text xml:space="preserve" text-anchor="middle" x="1300.78" y="-259.95" font-family="Times,serif" font-size="14.00">Mechanism gene&#45;set Z</text>
</g>
<!-- r5&#45;&gt;r6 -->
<g id="edge5" class="edge">
<title>r5&#45;&gt;r6</title>
<path fill="none" stroke="black" d="M1114.59,-267.09C1139.24,-266.81 1166.71,-266.5 1192.79,-266.21"/>
<polygon fill="black" stroke="black" points="1192.8,-269.71 1202.76,-266.09 1192.72,-262.71 1192.8,-269.71"/>
</g>
<!-- meta -->
<g id="node15" class="node">
<title>meta</title>
<polygon fill="lightblue" stroke="lightblue" points="1666.5,-176 1438.78,-158 1666.5,-140 1894.22,-158 1666.5,-176"/>
<text xml:space="preserve" text-anchor="middle" x="1666.5" y="-152.2" font-family="Helvetica,sans-Serif" font-size="14.00">Meta&#45;analysis / Multi&#45;omics integration</text>
</g>
<!-- r6&#45;&gt;meta -->
<g id="edge12" class="edge">
<title>r6&#45;&gt;meta</title>
<path fill="none" stroke="black" d="M1353.89,-249.67C1420.45,-230.09 1535.41,-196.27 1605.54,-175.64"/>
<polygon fill="black" stroke="black" points="1606.34,-179.05 1614.94,-172.87 1604.36,-172.34 1606.34,-179.05"/>
</g>
<!-- l1 -->
<g id="node7" class="node">
<title>l1</title>
<ellipse fill="none" stroke="black" cx="196.25" cy="-158" rx="90.25" ry="18"/>
<text xml:space="preserve" text-anchor="middle" x="196.25" y="-152.95" font-family="Times,serif" font-size="14.00">QC &amp; Normalization</text>
</g>
<!-- l2 -->
<g id="node8" class="node">
<title>l2</title>
<ellipse fill="none" stroke="black" cx="434.75" cy="-158" rx="112.26" ry="18"/>
<text xml:space="preserve" text-anchor="middle" x="434.75" y="-152.95" font-family="Times,serif" font-size="14.00">Batch correction (ComBat)</text>
</g>
<!-- l1&#45;&gt;l2 -->
<g id="edge6" class="edge">
<title>l1&#45;&gt;l2</title>
<path fill="none" stroke="black" d="M286.66,-158C294.57,-158 302.67,-158 310.8,-158"/>
<polygon fill="black" stroke="black" points="310.78,-161.5 320.78,-158 310.78,-154.5 310.78,-161.5"/>
</g>
<!-- l3 -->
<g id="node9" class="node">
<title>l3</title>
<ellipse fill="none" stroke="black" cx="724.79" cy="-158" rx="93.83" ry="18"/>
<text xml:space="preserve" text-anchor="middle" x="724.79" y="-152.95" font-family="Times,serif" font-size="14.00">ALR / CLR transform</text>
</g>
<!-- l2&#45;&gt;l3 -->
<g id="edge7" class="edge">
<title>l2&#45;&gt;l3</title>
<path fill="none" stroke="black" d="M547.11,-158C570.79,-158 595.7,-158 619.11,-158"/>
<polygon fill="black" stroke="black" points="618.96,-161.5 628.96,-158 618.96,-154.5 618.96,-161.5"/>
</g>
<!-- l4 -->
<g id="node10" class="node">
<title>l4</title>
<ellipse fill="none" stroke="black" cx="1032.67" cy="-158" rx="130.11" ry="40.66"/>
<text xml:space="preserve" text-anchor="middle" x="1032.67" y="-169.45" font-family="Times,serif" font-size="14.00">Derive:</text>
<text xml:space="preserve" text-anchor="middle" x="1032.67" y="-152.95" font-family="Times,serif" font-size="14.00">CL/PG, MLCL/CL, oxCL/CL,</text>
<text xml:space="preserve" text-anchor="middle" x="1032.67" y="-136.45" font-family="Times,serif" font-size="14.00">ΣCL, ΣPG</text>
</g>
<!-- l3&#45;&gt;l4 -->
<g id="edge8" class="edge">
<title>l3&#45;&gt;l4</title>
<path fill="none" stroke="black" d="M818.81,-158C841.59,-158 866.49,-158 890.96,-158"/>
<polygon fill="black" stroke="black" points="890.66,-161.5 900.66,-158 890.66,-154.5 890.66,-161.5"/>
</g>
<!-- l5 -->
<g id="node11" class="node">
<title>l5</title>
<ellipse fill="none" stroke="black" cx="1300.78" cy="-158" rx="82.57" ry="18"/>
<text xml:space="preserve" text-anchor="middle" x="1300.78" y="-152.95" font-family="Times,serif" font-size="14.00">Mechanism lipid Z</text>
</g>
<!-- l4&#45;&gt;l5 -->
<g id="edge9" class="edge">
<title>l4&#45;&gt;l5</title>
<path fill="none" stroke="black" d="M1163.21,-158C1177.92,-158 1192.68,-158 1206.78,-158"/>
<polygon fill="black" stroke="black" points="1206.42,-161.5 1216.42,-158 1206.42,-154.5 1206.42,-161.5"/>
</g>
<!-- l5&#45;&gt;meta -->
<g id="edge13" class="edge">
<title>l5&#45;&gt;meta</title>
<path fill="none" stroke="black" d="M1383.4,-158C1395.35,-158 1408.13,-158 1421.42,-158"/>
<polygon fill="black" stroke="black" points="1421.18,-161.5 1431.18,-158 1421.18,-154.5 1421.18,-161.5"/>
</g>
<!-- c1 -->
<g id="node12" class="node">
<title>c1</title>
<ellipse fill="none" stroke="black" cx="724.79" cy="-45" rx="86.67" ry="18"/>
<text xml:space="preserve" text-anchor="middle" x="724.79" y="-39.95" font-family="Times,serif" font-size="14.00">Targeted CL species</text>
</g>
<!-- c2 -->
<g id="node13" class="node">
<title>c2</title>
<ellipse fill="none" stroke="black" cx="1032.67" cy="-45" rx="113.67" ry="28.99"/>
<text xml:space="preserve" text-anchor="middle" x="1032.67" y="-48.2" font-family="Times,serif" font-size="14.00">Derived indices:</text>
<text xml:space="preserve" text-anchor="middle" x="1032.67" y="-31.7" font-family="Times,serif" font-size="14.00">Total CL, Oxidation index</text>
</g>
<!-- c1&#45;&gt;c2 -->
<g id="edge10" class="edge">
<title>c1&#45;&gt;c2</title>
<path fill="none" stroke="black" d="M811.81,-45C841.44,-45 875.26,-45 907.33,-45"/>
<polygon fill="black" stroke="black" points="907.08,-48.5 917.08,-45 907.08,-41.5 907.08,-48.5"/>
</g>
<!-- c3 -->
<g id="node14" class="node">
<title>c3</title>
<ellipse fill="none" stroke="black" cx="1300.78" cy="-45" rx="102" ry="28.99"/>
<text xml:space="preserve" text-anchor="middle" x="1300.78" y="-48.2" font-family="Times,serif" font-size="14.00">Validation phenotypes /</text>
<text xml:space="preserve" text-anchor="middle" x="1300.78" y="-31.7" font-family="Times,serif" font-size="14.00">Mechanistic indicators</text>
</g>
<!-- c2&#45;&gt;c3 -->
<g id="edge11" class="edge">
<title>c2&#45;&gt;c3</title>
<path fill="none" stroke="black" d="M1146.52,-45C1160.02,-45 1173.81,-45 1187.31,-45"/>
<polygon fill="black" stroke="black" points="1187.05,-48.5 1197.05,-45 1187.05,-41.5 1187.05,-48.5"/>
</g>
<!-- c3&#45;&gt;meta -->
<g id="edge14" class="edge">
<title>c3&#45;&gt;meta</title>
<path fill="none" stroke="black" d="M1370.62,-66.39C1439.15,-87.68 1543.15,-119.99 1607.57,-140"/>
<polygon fill="black" stroke="black" points="1606.31,-143.28 1616.9,-142.9 1608.39,-136.59 1606.31,-143.28"/>
</g>
<!-- note -->
<g id="node16" class="node">
<title>note</title>
<polygon fill="none" stroke="black" points="2072.97,-176.62 1930.22,-176.62 1930.22,-139.38 2078.97,-139.38 2078.97,-170.62 2072.97,-176.62"/>
<polyline fill="none" stroke="black" points="2072.97,-176.62 2072.97,-170.62"/>
<polyline fill="none" stroke="black" points="2078.97,-170.62 2072.97,-170.62"/>
<text xml:space="preserve" text-anchor="middle" x="2004.59" y="-164.07" font-family="Helvetica,sans-Serif" font-size="9.00">All analyses performed within</text>
<text xml:space="preserve" text-anchor="middle" x="2004.59" y="-154.32" font-family="Helvetica,sans-Serif" font-size="9.00">each batch first, then combined</text>
<text xml:space="preserve" text-anchor="middle" x="2004.59" y="-144.57" font-family="Helvetica,sans-Serif" font-size="9.00">using meta&#45;analytic approaches.</text>
</g>
<!-- meta&#45;&gt;note -->
<g id="edge15" class="edge">
<title>meta&#45;&gt;note</title>
<path fill="none" stroke="black" stroke-dasharray="5,2" d="M1900.47,-158C1910.7,-158 1920.55,-158 1929.84,-158"/>
</g>
</g>
</svg>
