<?xml version="1.0" encoding="UTF-8"?>
<svg xmlns="http://www.w3.org/2000/svg" version="1.1" viewBox="0 0 561.2 263.9">
  <defs>
    <style>
      .cls-1 {
        font-family: AdobeSongStd-Light-GBpc-EUC-H, 'Adobe Song Std';
        font-weight: 300;
      }

      .cls-1, .cls-2 {
        font-size: 12px;
      }

      .cls-3 {
        font-size: 11px;
      }

      .cls-3, .cls-2 {
        font-family: ArialMT, Arial;
        isolation: isolate;
      }

      .cls-4 {
        fill: #fff;
      }

      .cls-5 {
        fill: none;
        stroke: #000;
        stroke-miterlimit: 10;
      }
    </style>
  </defs>
  <!-- Generator: Adobe Illustrator 28.6.0, SVG Export Plug-In . SVG Version: 1.2.0 Build 709)  -->
  <g>
    <g id="_图层_1" data-name="图层_1">
      <g id="figure_1">
        <g id="patch_1">
          <path class="cls-4" d="M0,263.9h432.9V0H0v263.9Z"/>
        </g>
        <g id="axes_1">
          <g id="text_1">
            <text class="cls-3" transform="translate(29.6 103.9)"><tspan x="0" y="0">EphB1 loss</tspan></text>
            <text class="cls-3" transform="translate(28.4 115.7)"><tspan x="0" y="0">(HO vs WT)</tspan></text>
          </g>
          <g id="text_2">
            <text class="cls-3" transform="translate(159.9 53.2)"><tspan x="0" y="0">PGC-1α /</tspan></text>
            <text class="cls-3" transform="translate(150.3 64.9)"><tspan x="0" y="0">mitochondrial</tspan></text>
            <text class="cls-3" transform="translate(156.7 76.5)"><tspan x="0" y="0">biogenesis</tspan></text>
          </g>
          <g id="text_3">
            <text class="cls-3" transform="translate(164.3 148.8)"><tspan x="0" y="0">NF-κB /</tspan></text>
            <text class="cls-3" transform="translate(138 160.6)"><tspan x="0" y="0">inflammatory ROS</tspan></text>
          </g>
          <g id="text_4">
            <text class="cls-3" transform="translate(269.1 59)"><tspan x="0" y="0">Synthesis axis ↓</tspan></text>
            <text class="cls-3" transform="translate(268.8 70.9)"><tspan x="0" y="0">(CL_PG_ratio ↓)</tspan></text>
          </g>
          <g id="text_5">
            <text class="cls-3" transform="translate(269.7 148.8)"><tspan x="0" y="0">Oxidation axis ↑</tspan></text>
            <text class="cls-3" transform="translate(263.9 160.7)"><tspan x="0" y="0">(oxCL_CL_ratio ↑)</tspan></text>
          </g>
          <g id="text_6">
            <text class="cls-3" transform="translate(461.1 94.3)"><tspan x="0" y="0">CL availability ↓</tspan></text>
            <text class="cls-3" transform="translate(459.2 106.2)"><tspan x="0" y="0">(tetra-18:2 CL ↓)</tspan></text>
            <text class="cls-3" transform="translate(462.6 118.1)"><tspan x="0" y="0">IL-1β release ↓</tspan></text>
          </g>
          <g id="text_7">
            <text class="cls-2" transform="translate(20.3 23.3)"><tspan x="0" y="0">EphB1-dependent signaling pathways mediating the cardiolipin bottleneck</tspan></text>
          </g>
          <g>
            <line class="cls-5" x1="93.3" y1="99.5" x2="137.1" y2="68.1"/>
            <polygon points="138.8 73 142.9 64 133 64.9 138.8 73"/>
          </g>
          <g>
            <line class="cls-5" x1="91.5" y1="113.1" x2="138.1" y2="140"/>
            <polygon points="134.4 143.6 144.3 143.6 139.3 135 134.4 143.6"/>
          </g>
          <g>
            <line class="cls-5" x1="221.6" y1="61.1" x2="253.7" y2="61.1"/>
            <polygon points="252.3 66.1 260.9 61.1 252.3 56.1 252.3 66.1"/>
          </g>
          <g>
            <line class="cls-5" x1="232.2" y1="150.9" x2="257.2" y2="150.9"/>
            <polygon points="255.7 155.9 264.3 150.9 255.7 145.9 255.7 155.9"/>
          </g>
          <g>
            <line class="cls-5" x1="359.5" y1="148.3" x2="445.6" y2="114"/>
            <polygon points="446 119.2 452.2 111.3 442.4 109.9 446 119.2"/>
          </g>
          <g>
            <line class="cls-5" x1="355.5" y1="66.2" x2="446.9" y2="103.4"/>
            <polygon points="443.7 107.4 453.5 106.1 447.4 98.2 443.7 107.4"/>
          </g>
          <text class="cls-1" transform="translate(49 206.7)"><tspan x="0" y="0">X</tspan></text>
          <text class="cls-1" transform="translate(169.8 208.2)"><tspan x="0" y="0">M</tspan></text>
          <text class="cls-1" transform="translate(302 206.8)"><tspan x="0" y="0">Y</tspan></text>
        </g>
      </g>
    </g>
  </g>
</svg>