<?xml version="1.0" encoding="UTF-8"?>
<svg xmlns="http://www.w3.org/2000/svg" version="1.1" viewBox="0 0 2901 238.2">
  <defs>
    <style>
      .cls-1 {
        font-family: AdobeSongStd-Light-GBpc-EUC-H, 'Adobe Song Std';
        font-weight: 300;
      }

      .cls-2 {
        font-size: 10px;
        isolation: isolate;
      }

      .cls-2, .cls-3, .cls-4, .cls-5 {
        font-family: ArialMT, Arial;
      }

      .cls-3, .cls-6 {
        font-size: 14px;
      }

      .cls-4, .cls-7 {
        font-size: 12px;
      }

      .cls-8 {
        stroke: #d3d3d3;
      }

      .cls-8, .cls-9, .cls-10 {
        fill: none;
      }

      .cls-9 {
        stroke-miterlimit: 10;
      }

      .cls-9, .cls-11, .cls-10 {
        stroke: #000;
      }
    </style>
  </defs>
  <!-- Generator: Adobe Illustrator 28.6.0, SVG Export Plug-In . SVG Version: 1.2.0 Build 709)  -->
  <g>
    <g id="_图层_1" data-name="图层_1">
      <g id="clust1">
        <path class="cls-8" d="M23.5,105h1321.1c5.8,0,11.5-6,11.5-12V24c0-6-5.8-12-11.5-12H23.5c-5.8,0-11.5,6-11.5,12v69c0,6,5.8,12,11.5,12"/>
        <text class="cls-2" transform="translate(639.2 25.5) scale(1 1)"><tspan x="0" y="0">RNA-seq (3 batches)</tspan></text>
      </g>
      <g>
        <rect class="cls-9" x="260.9" y="38.5" width="148.3" height="34.6"/>
        <text class="cls-7" transform="translate(272.2 53)"><tspan class="cls-5"><tspan x="0" y="0">Alignment &amp; gene counts</tspan></tspan><tspan class="cls-1" x="-5.8" y="14.4">（</tspan><tspan class="cls-5" x="6.2" y="14.4">STAR + featureCounts</tspan><tspan class="cls-1" x="127.2" y="14.4">）</tspan></text>
      </g>
      <g>
        <text class="cls-4" transform="translate(42 52.1)"><tspan x="0" y="0">Raw QC &amp; trimming</tspan><tspan x="-16.3" y="14.4">(FastQC / fastp / MultiQC)</tspan></text>
        <rect class="cls-9" x="21.8" y="40.8" width="148.3" height="34.6"/>
      </g>
      <g>
        <rect class="cls-9" x="506.4" y="39.7" width="252.6" height="34.6"/>
        <text class="cls-6" transform="translate(507.7 53)"><tspan class="cls-5"><tspan x="0" y="0">Merged counts + batch-aware DE</tspan></tspan><tspan class="cls-1" x="0" y="16.8">（</tspan><tspan class="cls-5" x="14" y="16.8">DESeq2, design = ~ batch + group</tspan><tspan class="cls-1" x="229.2" y="16.8">）</tspan></text>
      </g>
      <g>
        <rect class="cls-9" x="849.8" y="38.2" width="182.7" height="34.6"/>
        <text class="cls-3" transform="translate(851.1 60.2)"><tspan x="0" y="0">Per-gene log2FC (per batch)</tspan></text>
      </g>
      <g>
        <rect class="cls-9" x="1123.8" y="38.2" width="218.4" height="34.6"/>
        <text class="cls-3" transform="translate(1125.1 62.7)"><tspan x="0" y="0">Mechanism gene-set Z (axis-level)</tspan></text>
      </g>
      <g id="edge1">
        <path class="cls-10" d="M188.1,55.5h47.5"/>
        <polygon class="cls-11" points="235.4 52 242.9 55.5 235.4 59 235.4 52"/>
      </g>
      <g id="edge1-2" data-name="edge1">
        <path class="cls-10" d="M433.6,55.5h47.5"/>
        <polygon class="cls-11" points="480.9 52 488.4 55.5 480.9 59 480.9 52"/>
      </g>
      <g id="edge1-3" data-name="edge1">
        <path class="cls-10" d="M777,55.5h47.5"/>
        <polygon class="cls-11" points="824.3 52 831.8 55.5 824.3 59 824.3 52"/>
      </g>
      <g id="edge1-4" data-name="edge1">
        <path class="cls-10" d="M1050.9,55.5h47.5"/>
        <polygon class="cls-11" points="1098.3 52 1105.8 55.5 1098.3 59 1098.3 52"/>
      </g>
      <g id="clust1-2" data-name="clust1">
        <path class="cls-8" d="M26.2,218.2h1321.1c5.8,0,11.5-6,11.5-12v-69c0-6-5.8-12-11.5-12H26.2c-5.8,0-11.5,6-11.5,12v69c0,6,5.8,12,11.5,12"/>
        <text class="cls-2" transform="translate(641.8 138.7) scale(1 1)"><tspan x="0" y="0">Lipidomics (batches 1–3, untargeted)</tspan></text>
      </g>
      <g>
        <rect class="cls-9" x="263.5" y="151.7" width="148.3" height="34.6"/>
        <g>
          <path d="M275.9,166.2l-2.3-8.6h1.2l1.3,5.6c.1.6.3,1.2.4,1.8.2-.9.3-1.4.4-1.6l1.6-5.8h1.4l1.2,4.3c.3,1.1.5,2.1.7,3,.1-.5.3-1.2.4-1.9l1.3-5.5h1.1l-2.4,8.6h-1.1l-1.8-6.5c-.2-.5-.2-.9-.3-1,0,.4-.2.7-.3,1l-1.8,6.5h-1.2Z"/>
          <path d="M285.6,158.9v-1.2h1.1v1.2h-1.1ZM285.6,166.2v-6.2h1.1v6.2h-1.1Z"/>
          <path d="M290.6,165.3l.2.9c-.3,0-.6,0-.8,0-.4,0-.7,0-.9-.2s-.4-.3-.4-.5-.1-.6-.1-1.2v-3.6h-.8v-.8h.8v-1.5l1-.6v2.2h1.1v.8h-1.1v3.6c0,.3,0,.5,0,.6s0,.2.2.2.2,0,.4,0,.3,0,.5,0Z"/>
          <path d="M291.6,166.2v-8.6h1.1v3.1c.5-.6,1.1-.9,1.9-.9s.9,0,1.2.3.6.4.7.8.2.8.2,1.4v3.9h-1.1v-3.9c0-.5-.1-.9-.3-1.2s-.6-.4-1-.4-.6,0-.9.2-.5.4-.6.7-.2.7-.2,1.1v3.4h-1.1Z"/>
          <path d="M298.3,158.9v-1.2h1.1v1.2h-1.1ZM298.3,166.2v-6.2h1.1v6.2h-1.1Z"/>
          <path d="M301,166.2v-6.2h.9v.9c.5-.7,1.1-1,2-1s.7,0,1,.2.5.3.7.5.3.5.3.8c0,.2,0,.5,0,1v3.8h-1.1v-3.8c0-.4,0-.8-.1-1s-.2-.4-.4-.5-.5-.2-.7-.2c-.4,0-.8.1-1.2.4s-.5.8-.5,1.6v3.4h-1.1Z"/>
          <path d="M307.2,163.7v-1.1h3.2v1.1h-3.2Z"/>
          <path d="M312.6,166.2h-1v-8.6h1.1v3.1c.4-.6,1-.8,1.7-.8s.7,0,1.1.2.6.4.8.7.4.6.5,1,.2.8.2,1.3c0,1.1-.3,1.9-.8,2.5s-1.2.9-1.9.9-1.3-.3-1.7-.9v.8ZM312.6,163.1c0,.7.1,1.3.3,1.6.3.5.8.8,1.3.8s.9-.2,1.2-.6.5-1,.5-1.8-.2-1.4-.5-1.8-.7-.6-1.2-.6-.9.2-1.2.6-.5,1-.5,1.7Z"/>
          <path d="M322.4,165.5c-.4.3-.8.6-1.1.7s-.7.2-1.2.2c-.7,0-1.2-.2-1.6-.5s-.6-.8-.6-1.3,0-.6.2-.8.3-.5.5-.6.5-.3.8-.3c.2,0,.5-.1.9-.2.9-.1,1.5-.2,1.9-.4,0-.1,0-.2,0-.3,0-.4,0-.7-.3-.9-.3-.2-.7-.4-1.2-.4s-.9,0-1.1.3-.4.5-.5.9h-1c0-.6.2-.9.5-1.2s.5-.5.9-.6.9-.2,1.4-.2,1,0,1.3.2.6.3.7.5.3.4.3.7c0,.2,0,.5,0,1v1.4c0,1,0,1.6,0,1.9s.1.5.3.7h-1.1c-.1-.2-.2-.5-.2-.8ZM322.3,163.1c-.4.2-1,.3-1.7.4-.4,0-.7.1-.9.2s-.3.2-.4.3-.1.3-.1.5c0,.3.1.5.3.7s.5.3.9.3.8,0,1.1-.3.5-.4.7-.7c.1-.2.2-.6.2-1.1v-.4Z"/>
          <path d="M327.3,165.3l.2.9c-.3,0-.6,0-.8,0-.4,0-.7,0-.9-.2s-.4-.3-.4-.5-.1-.6-.1-1.2v-3.6h-.8v-.8h.8v-1.5l1-.6v2.2h1.1v.8h-1.1v3.6c0,.3,0,.5,0,.6s0,.2.2.2.2,0,.4,0,.3,0,.5,0Z"/>
          <path d="M332.4,163.9h1c-.1.8-.4,1.4-.9,1.8s-1,.6-1.7.6-1.5-.3-2.1-.8-.8-1.4-.8-2.4.1-1.3.3-1.8.6-.9,1-1.1,1-.4,1.5-.4,1.2.2,1.7.5.7.8.8,1.5l-1,.2c0-.4-.3-.7-.5-.9s-.5-.3-.9-.3c-.5,0-1,.2-1.3.6s-.5,1-.5,1.8.2,1.4.5,1.8.7.6,1.3.6.8-.1,1-.4.5-.6.5-1.2Z"/>
          <path d="M334.3,166.2v-8.6h1.1v3.1c.5-.6,1.1-.9,1.9-.9s.9,0,1.2.3.6.4.7.8.2.8.2,1.4v3.9h-1.1v-3.9c0-.5-.1-.9-.3-1.2s-.6-.4-1-.4-.6,0-.9.2-.5.4-.6.7-.2.7-.2,1.1v3.4h-1.1Z"/>
          <path d="M344.5,166.2v-8.6h3.2c.6,0,1,0,1.3,0,.4,0,.8.2,1.1.4s.5.5.7.8.3.7.3,1.2c0,.7-.2,1.3-.7,1.9s-1.3.8-2.5.8h-2.2v3.5h-1.1ZM345.6,161.7h2.2c.7,0,1.3-.1,1.6-.4s.5-.7.5-1.2,0-.7-.3-.9-.4-.4-.7-.5c-.2,0-.5,0-1.1,0h-2.2v3.1Z"/>
          <path d="M359,165.3c.5.4,1,.6,1.5.8l-.3.8c-.6-.2-1.2-.6-1.8-1.1-.6.4-1.3.5-2.1.5s-1.5-.2-2.1-.6-1.1-.9-1.5-1.6-.5-1.4-.5-2.3.2-1.6.5-2.3.8-1.2,1.5-1.6,1.3-.5,2.1-.5,1.5.2,2.1.6,1.1.9,1.5,1.6.5,1.4.5,2.3-.1,1.3-.3,1.9-.5,1.1-1,1.5ZM356.5,163.9c.7.2,1.2.5,1.6.8.7-.6,1-1.5,1-2.7s-.1-1.3-.4-1.8-.6-.9-1-1.2-1-.4-1.5-.4c-.8,0-1.6.3-2.1.9s-.8,1.4-.8,2.6.3,2,.8,2.6,1.3.9,2.1.9.8,0,1.1-.2c-.4-.2-.7-.4-1.1-.5l.3-.8Z"/>
          <path d="M361.8,166.2v-8.6h1.2l4.5,6.7v-6.7h1.1v8.6h-1.2l-4.5-6.8v6.8h-1.1Z"/>
          <path d="M373.7,166.2v-6.2h.9v.9c.5-.7,1.1-1,2-1s.7,0,1,.2.5.3.7.5.3.5.3.8c0,.2,0,.5,0,1v3.8h-1.1v-3.8c0-.4,0-.8-.1-1s-.2-.4-.4-.5-.5-.2-.7-.2c-.4,0-.8.1-1.2.4s-.5.8-.5,1.6v3.4h-1.1Z"/>
          <path d="M380,163.1c0-1.2.3-2,1-2.6.5-.5,1.2-.7,2-.7s1.6.3,2.1.8.8,1.3.8,2.3-.1,1.4-.4,1.9-.6.8-1,1.1-1,.4-1.5.4c-.9,0-1.6-.3-2.1-.8s-.8-1.4-.8-2.4ZM381,163.1c0,.8.2,1.4.5,1.8s.8.6,1.3.6,1-.2,1.3-.6.5-1,.5-1.8-.2-1.4-.5-1.7-.8-.6-1.3-.6-1,.2-1.3.6-.5,1-.5,1.8Z"/>
          <path d="M387,166.2v-6.2h.9v.9c.2-.4.5-.7.7-.9s.4-.2.7-.2c.4,0,.7.1,1.1.3l-.4,1c-.3-.2-.5-.2-.8-.2s-.4,0-.6.2-.3.3-.4.6c-.1.4-.2.8-.2,1.2v3.3h-1.1Z"/>
          <path d="M391,166.2v-6.2h.9v.9c.2-.3.5-.5.8-.7s.7-.3,1.1-.3.8,0,1.1.3.5.5.6.8c.5-.7,1.1-1.1,1.9-1.1s1.1.2,1.4.5.5.9.5,1.6v4.3h-1v-3.9c0-.4,0-.7-.1-.9s-.2-.3-.4-.4-.4-.2-.6-.2c-.4,0-.8.1-1.1.4s-.4.8-.4,1.4v3.6h-1.1v-4c0-.5,0-.8-.3-1.1s-.5-.4-.8-.4-.6,0-.8.2-.4.4-.5.7-.2.7-.2,1.3v3.2h-1.1Z"/>
          <path d="M405.1,165.5c-.4.3-.8.6-1.1.7s-.7.2-1.2.2c-.7,0-1.2-.2-1.6-.5s-.6-.8-.6-1.3,0-.6.2-.8.3-.5.5-.6.5-.3.8-.3c.2,0,.5-.1.9-.2.9-.1,1.5-.2,1.9-.4,0-.1,0-.2,0-.3,0-.4,0-.7-.3-.9-.3-.2-.7-.4-1.2-.4s-.9,0-1.1.3-.4.5-.5.9h-1c0-.6.2-.9.5-1.2s.5-.5.9-.6.9-.2,1.4-.2,1,0,1.3.2.6.3.7.5.3.4.3.7c0,.2,0,.5,0,1v1.4c0,1,0,1.6,0,1.9s.1.5.3.7h-1.1c-.1-.2-.2-.5-.2-.8ZM405,163.1c-.4.2-1,.3-1.7.4-.4,0-.7.1-.9.2s-.3.2-.4.3-.1.3-.1.5c0,.3.1.5.3.7s.5.3.9.3.8,0,1.1-.3.5-.4.7-.7c.1-.2.2-.6.2-1.1v-.4Z"/>
          <path d="M407.7,166.2v-8.6h1.1v8.6h-1.1Z"/>
          <path d="M271,173.3v-1.2h1.1v1.2h-1.1ZM271,180.6v-6.2h1.1v6.2h-1.1Z"/>
          <path d="M273.1,180.6v-.9l4-4.5c-.4,0-.8,0-1.2,0h-2.5v-.9h5.1v.7l-3.4,3.9-.7.7c.5,0,.9,0,1.3,0h2.9v.9h-5.5Z"/>
          <path d="M283.7,179.9c-.4.3-.8.6-1.1.7s-.7.2-1.2.2c-.7,0-1.2-.2-1.6-.5s-.6-.8-.6-1.3,0-.6.2-.8.3-.5.5-.6.5-.3.8-.3c.2,0,.5-.1.9-.2.9-.1,1.5-.2,1.9-.4,0-.1,0-.2,0-.3,0-.4,0-.7-.3-.9-.3-.2-.7-.4-1.2-.4s-.9,0-1.1.3-.4.5-.5.9h-1c0-.6.2-.9.5-1.2s.5-.5.9-.6.9-.2,1.4-.2,1,0,1.3.2.6.3.7.5.3.4.3.7c0,.2,0,.5,0,1v1.4c0,1,0,1.6,0,1.9s.1.5.3.7h-1.1c-.1-.2-.2-.5-.2-.8ZM283.6,177.5c-.4.2-1,.3-1.7.4-.4,0-.7.1-.9.2s-.3.2-.4.3-.1.3-.1.5c0,.3.1.5.3.7s.5.3.9.3.8,0,1.1-.3.5-.4.7-.7c.1-.2.2-.6.2-1.1v-.4Z"/>
          <path d="M288.6,179.7l.2.9c-.3,0-.6,0-.8,0-.4,0-.7,0-.9-.2s-.4-.3-.4-.5-.1-.6-.1-1.2v-3.6h-.8v-.8h.8v-1.5l1-.6v2.2h1.1v.8h-1.1v3.6c0,.3,0,.5,0,.6s0,.2.2.2.2,0,.4,0,.3,0,.5,0Z"/>
          <path d="M289.7,173.3v-1.2h1.1v1.2h-1.1ZM289.7,180.6v-6.2h1.1v6.2h-1.1Z"/>
          <path d="M291.9,177.5c0-1.2.3-2,1-2.6.5-.5,1.2-.7,2-.7s1.6.3,2.1.8.8,1.3.8,2.3-.1,1.4-.4,1.9-.6.8-1,1.1-1,.4-1.5.4c-.9,0-1.6-.3-2.1-.8s-.8-1.4-.8-2.4ZM293,177.5c0,.8.2,1.4.5,1.8s.8.6,1.3.6,1-.2,1.3-.6.5-1,.5-1.8-.2-1.4-.5-1.7-.8-.6-1.3-.6-1,.2-1.3.6-.5,1-.5,1.8Z"/>
          <path d="M299,180.6v-6.2h.9v.9c.5-.7,1.1-1,2-1s.7,0,1,.2.5.3.7.5.3.5.3.8c0,.2,0,.5,0,1v3.8h-1.1v-3.8c0-.4,0-.8-.1-1s-.2-.4-.4-.5-.5-.2-.7-.2c-.4,0-.8.1-1.2.4s-.5.8-.5,1.6v3.4h-1.1Z"/>
          <path d="M311,183.2c-.6-.7-1.1-1.6-1.5-2.6s-.6-2-.6-3.1.2-1.8.5-2.7c.4-1,.9-2,1.6-3h.8c-.5.8-.8,1.4-.9,1.7-.2.5-.4,1.1-.6,1.7-.2.7-.3,1.5-.3,2.2,0,1.9.6,3.8,1.8,5.6h-.8Z"/>
          <path d="M319.6,179.7c.5.4,1,.6,1.5.8l-.3.8c-.6-.2-1.2-.6-1.8-1.1-.6.4-1.3.5-2.1.5s-1.5-.2-2.1-.6-1.1-.9-1.5-1.6-.5-1.4-.5-2.3.2-1.6.5-2.3.8-1.2,1.5-1.6,1.3-.5,2.1-.5,1.5.2,2.1.6,1.1.9,1.5,1.6.5,1.4.5,2.3-.1,1.3-.3,1.9-.5,1.1-1,1.5ZM317.1,178.3c.7.2,1.2.5,1.6.8.7-.6,1-1.5,1-2.7s-.1-1.3-.4-1.8-.6-.9-1-1.2-1-.4-1.5-.4c-.8,0-1.6.3-2.1.9s-.8,1.4-.8,2.6.3,2,.8,2.6,1.3.9,2.1.9.8,0,1.1-.2c-.4-.2-.7-.4-1.1-.5l.3-.8Z"/>
          <path d="M328.6,177.6l1.1.3c-.2.9-.7,1.6-1.3,2.1s-1.4.7-2.3.7-1.7-.2-2.3-.6-1-.9-1.3-1.6-.5-1.5-.5-2.3.2-1.7.5-2.3.8-1.2,1.5-1.5,1.3-.5,2.1-.5,1.6.2,2.2.7,1,1.1,1.2,1.8l-1.1.3c-.2-.6-.5-1.1-.9-1.4s-.9-.4-1.4-.4-1.2.2-1.7.5-.8.7-.9,1.3-.3,1.1-.3,1.6.1,1.4.3,1.9.5,1,1,1.2.9.4,1.5.4,1.2-.2,1.6-.6.7-.9.9-1.6Z"/>
          <path d="M334.3,180.6v-6.2h.9v.9c.2-.3.5-.5.8-.7s.7-.3,1.1-.3.8,0,1.1.3.5.5.6.8c.5-.7,1.1-1.1,1.9-1.1s1.1.2,1.4.5.5.9.5,1.6v4.3h-1v-3.9c0-.4,0-.7-.1-.9s-.2-.3-.4-.4-.4-.2-.6-.2c-.4,0-.8.1-1.1.4s-.4.8-.4,1.4v3.6h-1.1v-4c0-.5,0-.8-.3-1.1s-.5-.4-.8-.4-.6,0-.8.2-.4.4-.5.7-.2.7-.2,1.3v3.2h-1.1Z"/>
          <path d="M348.6,178.6h1.1c-.2.8-.5,1.3-1,1.6s-1.1.5-1.8.5-1.6-.3-2.2-.8-.8-1.3-.8-2.4.3-1.9.8-2.4,1.2-.9,2.1-.9,1.5.3,2,.8.8,1.4.8,2.4,0,.2,0,.3h-4.6c0,.7.2,1.2.6,1.6s.8.5,1.3.5.7-.1,1-.3.5-.5.7-1ZM345.1,176.9h3.5c0-.5-.2-.9-.4-1.2-.3-.4-.8-.6-1.3-.6s-.9.2-1.2.5-.5.8-.5,1.3Z"/>
          <path d="M355,180.6v-.8c-.4.6-1,.9-1.7.9s-1-.1-1.4-.4-.7-.7-1-1.1-.3-1.1-.3-1.7.1-1.2.3-1.7.5-.9.9-1.2.9-.4,1.4-.4.7,0,1,.2.5.4.7.6v-3.1h1v8.6h-1ZM351.7,177.5c0,.8.2,1.4.5,1.8s.7.6,1.2.6.9-.2,1.2-.6.5-1,.5-1.7-.2-1.5-.5-1.9-.7-.6-1.2-.6-.9.2-1.2.6-.5,1-.5,1.8Z"/>
          <path d="M357.7,173.3v-1.2h1.1v1.2h-1.1ZM357.7,180.6v-6.2h1.1v6.2h-1.1Z"/>
          <path d="M364.4,179.9c-.4.3-.8.6-1.1.7s-.7.2-1.2.2c-.7,0-1.2-.2-1.6-.5s-.6-.8-.6-1.3,0-.6.2-.8.3-.5.5-.6.5-.3.8-.3c.2,0,.5-.1.9-.2.9-.1,1.5-.2,1.9-.4,0-.1,0-.2,0-.3,0-.4,0-.7-.3-.9-.3-.2-.7-.4-1.2-.4s-.9,0-1.1.3-.4.5-.5.9h-1c0-.6.2-.9.5-1.2s.5-.5.9-.6.9-.2,1.4-.2,1,0,1.3.2.6.3.7.5.3.4.3.7c0,.2,0,.5,0,1v1.4c0,1,0,1.6,0,1.9s.1.5.3.7h-1.1c-.1-.2-.2-.5-.2-.8ZM364.3,177.5c-.4.2-1,.3-1.7.4-.4,0-.7.1-.9.2s-.3.2-.4.3-.1.3-.1.5c0,.3.1.5.3.7s.5.3.9.3.8,0,1.1-.3.5-.4.7-.7c.1-.2.2-.6.2-1.1v-.4Z"/>
          <path d="M367,180.6v-6.2h.9v.9c.5-.7,1.1-1,2-1s.7,0,1,.2.5.3.7.5.3.5.3.8c0,.2,0,.5,0,1v3.8h-1.1v-3.8c0-.4,0-.8-.1-1s-.2-.4-.4-.5-.5-.2-.7-.2c-.4,0-.8.1-1.2.4s-.5.8-.5,1.6v3.4h-1.1Z"/>
          <path d="M377,183v-8.6h1v.8c.2-.3.5-.6.8-.7s.6-.2,1-.2,1,.1,1.4.4.7.7.9,1.2.3,1,.3,1.6-.1,1.2-.3,1.7-.6.9-1,1.2-.9.4-1.4.4-.7,0-.9-.2-.5-.3-.7-.6v3h-1.1ZM378,177.6c0,.8.2,1.4.5,1.8s.7.6,1.2.6.9-.2,1.2-.6.5-1,.5-1.8-.2-1.4-.5-1.8-.7-.6-1.2-.6-.8.2-1.2.6-.5,1-.5,1.8Z"/>
          <path d="M383.7,180.6v-6.2h.9v.9c.2-.4.5-.7.7-.9s.4-.2.7-.2c.4,0,.7.1,1.1.3l-.4,1c-.3-.2-.5-.2-.8-.2s-.4,0-.6.2-.3.3-.4.6c-.1.4-.2.8-.2,1.2v3.3h-1.1Z"/>
          <path d="M387.3,177.5c0-1.2.3-2,1-2.6.5-.5,1.2-.7,2-.7s1.6.3,2.1.8.8,1.3.8,2.3-.1,1.4-.4,1.9-.6.8-1,1.1-1,.4-1.5.4c-.9,0-1.6-.3-2.1-.8s-.8-1.4-.8-2.4ZM388.4,177.5c0,.8.2,1.4.5,1.8s.8.6,1.3.6,1-.2,1.3-.6.5-1,.5-1.8-.2-1.4-.5-1.7-.8-.6-1.3-.6-1,.2-1.3.6-.5,1-.5,1.8Z"/>
          <path d="M394.6,180.6v-5.4h-.9v-.8h.9v-.7c0-.4,0-.7.1-.9.1-.3.3-.5.5-.7s.6-.3,1.1-.3.6,0,1,.1l-.2.9c-.2,0-.4,0-.6,0-.3,0-.5,0-.7.2s-.2.4-.2.8v.6h1.2v.8h-1.2v5.4h-1Z"/>
          <path d="M397.7,173.3v-1.2h1.1v1.2h-1.1ZM397.7,180.6v-6.2h1.1v6.2h-1.1Z"/>
          <path d="M400.3,180.6v-8.6h1.1v8.6h-1.1Z"/>
          <path d="M407.3,178.6h1.1c-.2.8-.5,1.3-1,1.6s-1.1.5-1.8.5-1.6-.3-2.2-.8-.8-1.3-.8-2.4.3-1.9.8-2.4,1.2-.9,2.1-.9,1.5.3,2,.8.8,1.4.8,2.4,0,.2,0,.3h-4.6c0,.7.2,1.2.6,1.6s.8.5,1.3.5.7-.1,1-.3.5-.5.7-1ZM403.8,176.9h3.5c0-.5-.2-.9-.4-1.2-.3-.4-.8-.6-1.3-.6s-.9.2-1.2.5-.5.8-.5,1.3Z"/>
          <path d="M410.4,183.2h-.8c1.2-1.9,1.8-3.8,1.8-5.6s0-1.5-.3-2.2c-.1-.6-.3-1.1-.6-1.7-.2-.4-.5-.9-.9-1.8h.8c.7,1,1.3,2,1.6,3,.3.9.5,1.7.5,2.7s-.2,2.1-.6,3.1-.9,1.8-1.5,2.6Z"/>
        </g>
      </g>
      <g>
        <g>
          <path d="M27.7,166.7v-8.6h5.8v1h-4.7v2.7h4v1h-4v3.9h-1.1Z"/>
          <path d="M39.1,164.7h1.1c-.2.8-.5,1.3-1,1.6s-1.1.5-1.8.5-1.6-.3-2.2-.8-.8-1.3-.8-2.4.3-1.9.8-2.4,1.2-.9,2.1-.9,1.5.3,2,.8.8,1.4.8,2.4,0,.2,0,.3h-4.6c0,.7.2,1.2.6,1.6s.8.5,1.3.5.7-.1,1-.3.5-.5.7-1ZM35.6,163h3.5c0-.5-.2-.9-.4-1.2-.3-.4-.8-.6-1.3-.6s-.9.2-1.2.5-.5.8-.5,1.3Z"/>
          <path d="M45.6,165.9c-.4.3-.8.6-1.1.7s-.7.2-1.2.2c-.7,0-1.2-.2-1.6-.5s-.6-.8-.6-1.3,0-.6.2-.8.3-.5.5-.6.5-.3.8-.3c.2,0,.5-.1.9-.2.9-.1,1.5-.2,1.9-.4,0-.1,0-.2,0-.3,0-.4,0-.7-.3-.9-.3-.2-.7-.4-1.2-.4s-.9,0-1.1.3-.4.5-.5.9h-1c0-.6.2-.9.5-1.2s.5-.5.9-.6.9-.2,1.4-.2,1,0,1.3.2.6.3.7.5.3.4.3.7c0,.2,0,.5,0,1v1.4c0,1,0,1.6,0,1.9s.1.5.3.7h-1.1c-.1-.2-.2-.5-.2-.8ZM45.5,163.6c-.4.2-1,.3-1.7.4-.4,0-.7.1-.9.2s-.3.2-.4.3-.1.3-.1.5c0,.3.1.5.3.7s.5.3.9.3.8,0,1.1-.3.5-.4.7-.7c.1-.2.2-.6.2-1.1v-.4Z"/>
          <path d="M50.5,165.7l.2.9c-.3,0-.6,0-.8,0-.4,0-.7,0-.9-.2s-.4-.3-.4-.5-.1-.6-.1-1.2v-3.6h-.8v-.8h.8v-1.5l1-.6v2.2h1.1v.8h-1.1v3.6c0,.3,0,.5,0,.6s0,.2.2.2.2,0,.4,0,.3,0,.5,0Z"/>
          <path d="M55.6,166.7v-.9c-.5.7-1.1,1.1-2,1.1s-.7,0-1-.2-.6-.3-.7-.5-.3-.5-.3-.8c0-.2,0-.5,0-1v-3.9h1.1v3.5c0,.6,0,.9,0,1.1,0,.3.2.5.4.7s.5.2.8.2.6,0,.9-.2.5-.4.6-.7.2-.7.2-1.2v-3.3h1.1v6.2h-.9Z"/>
          <path d="M58.2,166.7v-6.2h.9v.9c.2-.4.5-.7.7-.9s.4-.2.7-.2c.4,0,.7.1,1.1.3l-.4,1c-.3-.2-.5-.2-.8-.2s-.4,0-.6.2-.3.3-.4.6c-.1.4-.2.8-.2,1.2v3.3h-1.1Z"/>
          <path d="M66.4,164.7h1.1c-.2.8-.5,1.3-1,1.6s-1.1.5-1.8.5-1.6-.3-2.2-.8-.8-1.3-.8-2.4.3-1.9.8-2.4,1.2-.9,2.1-.9,1.5.3,2,.8.8,1.4.8,2.4,0,.2,0,.3h-4.6c0,.7.2,1.2.6,1.6s.8.5,1.3.5.7-.1,1-.3.5-.5.7-1ZM63,163h3.5c0-.5-.2-.9-.4-1.2-.3-.4-.8-.6-1.3-.6s-.9.2-1.2.5-.5.8-.5,1.3Z"/>
          <path d="M68.4,164.1v-1.1h3.2v1.1h-3.2Z"/>
          <path d="M72.8,166.7v-8.6h1.1v8.6h-1.1Z"/>
          <path d="M79.8,164.7h1.1c-.2.8-.5,1.3-1,1.6s-1.1.5-1.8.5-1.6-.3-2.2-.8-.8-1.3-.8-2.4.3-1.9.8-2.4,1.2-.9,2.1-.9,1.5.3,2,.8.8,1.4.8,2.4,0,.2,0,.3h-4.6c0,.7.2,1.2.6,1.6s.8.5,1.3.5.7-.1,1-.3.5-.5.7-1ZM76.3,163h3.5c0-.5-.2-.9-.4-1.2-.3-.4-.8-.6-1.3-.6s-.9.2-1.2.5-.5.8-.5,1.3Z"/>
          <path d="M83.9,166.7l-2.4-6.2h1.1l1.3,3.7c.1.4.3.8.4,1.3,0-.3.2-.7.4-1.2l1.4-3.8h1.1l-2.4,6.2h-1Z"/>
          <path d="M92.4,164.7h1.1c-.2.8-.5,1.3-1,1.6s-1.1.5-1.8.5-1.6-.3-2.2-.8-.8-1.3-.8-2.4.3-1.9.8-2.4,1.2-.9,2.1-.9,1.5.3,2,.8.8,1.4.8,2.4,0,.2,0,.3h-4.6c0,.7.2,1.2.6,1.6s.8.5,1.3.5.7-.1,1-.3.5-.5.7-1ZM89,163h3.5c0-.5-.2-.9-.4-1.2-.3-.4-.8-.6-1.3-.6s-.9.2-1.2.5-.5.8-.5,1.3Z"/>
          <path d="M94.8,166.7v-8.6h1.1v8.6h-1.1Z"/>
          <path d="M107.5,165.8c.5.4,1,.6,1.5.8l-.3.8c-.6-.2-1.2-.6-1.8-1.1-.6.4-1.3.5-2.1.5s-1.5-.2-2.1-.6-1.1-.9-1.5-1.6-.5-1.4-.5-2.3.2-1.6.5-2.3.8-1.2,1.5-1.6,1.3-.5,2.1-.5,1.5.2,2.1.6,1.1.9,1.5,1.6.5,1.4.5,2.3-.1,1.3-.3,1.9-.5,1.1-1,1.5ZM105,164.3c.7.2,1.2.5,1.6.8.7-.6,1-1.5,1-2.7s-.1-1.3-.4-1.8-.6-.9-1-1.2-1-.4-1.5-.4c-.8,0-1.6.3-2.1.9s-.8,1.4-.8,2.6.3,2,.8,2.6,1.3.9,2.1.9.8,0,1.1-.2c-.4-.2-.7-.4-1.1-.5l.3-.8Z"/>
          <path d="M116.5,163.7l1.1.3c-.2.9-.7,1.6-1.3,2.1s-1.4.7-2.3.7-1.7-.2-2.3-.6-1-.9-1.3-1.6-.5-1.5-.5-2.3.2-1.7.5-2.3.8-1.2,1.5-1.5,1.3-.5,2.1-.5,1.6.2,2.2.7,1,1.1,1.2,1.8l-1.1.3c-.2-.6-.5-1.1-.9-1.4s-.9-.4-1.4-.4-1.2.2-1.7.5-.8.7-.9,1.3-.3,1.1-.3,1.6.1,1.4.3,1.9.5,1,1,1.2.9.4,1.5.4,1.2-.2,1.6-.6.7-.9.9-1.6Z"/>
          <path d="M127.1,165.7c-.3.4-.7.7-1.1.9s-.9.3-1.3.3c-.9,0-1.6-.3-2.1-.9-.4-.5-.6-1-.6-1.6s.2-1,.5-1.4.9-.8,1.5-1.1c-.4-.4-.6-.8-.8-1.1s-.2-.5-.2-.8c0-.5.2-1,.6-1.3s.9-.6,1.5-.6,1.1.2,1.4.5.6.8.6,1.3c0,.8-.5,1.5-1.6,2.1l1.5,2c.2-.3.3-.7.4-1.2l1.1.2c-.2.8-.4,1.4-.8,1.9.4.5.8,1,1.3,1.3l-.7.8c-.4-.3-.9-.7-1.3-1.2ZM126.4,164.8l-1.9-2.4c-.6.3-1,.7-1.2.9s-.3.6-.3.9.1.7.4,1.1.7.6,1.2.6.6,0,1-.3.6-.5.8-.8ZM125,161.2c.5-.3.8-.5.9-.7s.2-.4.2-.7,0-.5-.3-.7-.4-.3-.7-.3-.5,0-.7.3-.3.4-.3.7,0,.3.1.4.2.3.3.5l.5.5Z"/>
          <path d="M137.6,166.7v-.8c-.4.6-1,.9-1.7.9s-1-.1-1.4-.4-.7-.7-1-1.1-.3-1.1-.3-1.7.1-1.2.3-1.7.5-.9.9-1.2.9-.4,1.4-.4.7,0,1,.2.5.4.7.6v-3.1h1v8.6h-1ZM134.2,163.6c0,.8.2,1.4.5,1.8s.7.6,1.2.6.9-.2,1.2-.6.5-1,.5-1.7-.2-1.5-.5-1.9-.7-.6-1.2-.6-.9.2-1.2.6-.5,1-.5,1.8Z"/>
          <path d="M144.5,164.7h1.1c-.2.8-.5,1.3-1,1.6s-1.1.5-1.8.5-1.6-.3-2.2-.8-.8-1.3-.8-2.4.3-1.9.8-2.4,1.2-.9,2.1-.9,1.5.3,2,.8.8,1.4.8,2.4,0,.2,0,.3h-4.6c0,.7.2,1.2.6,1.6s.8.5,1.3.5.7-.1,1-.3.5-.5.7-1ZM141,163h3.5c0-.5-.2-.9-.4-1.2-.3-.4-.8-.6-1.3-.6s-.9.2-1.2.5-.5.8-.5,1.3Z"/>
          <path d="M150.9,166.7v-.8c-.4.6-1,.9-1.7.9s-1-.1-1.4-.4-.7-.7-1-1.1-.3-1.1-.3-1.7.1-1.2.3-1.7.5-.9.9-1.2.9-.4,1.4-.4.7,0,1,.2.5.4.7.6v-3.1h1v8.6h-1ZM147.6,163.6c0,.8.2,1.4.5,1.8s.7.6,1.2.6.9-.2,1.2-.6.5-1,.5-1.7-.2-1.5-.5-1.9-.7-.6-1.2-.6-.9.2-1.2.6-.5,1-.5,1.8Z"/>
          <path d="M157.6,166.7v-.9c-.5.7-1.1,1.1-2,1.1s-.7,0-1-.2-.6-.3-.7-.5-.3-.5-.3-.8c0-.2,0-.5,0-1v-3.9h1.1v3.5c0,.6,0,.9,0,1.1,0,.3.2.5.4.7s.5.2.8.2.6,0,.9-.2.5-.4.6-.7.2-.7.2-1.2v-3.3h1.1v6.2h-.9Z"/>
          <path d="M160.2,169.1v-8.6h1v.8c.2-.3.5-.6.8-.7s.6-.2,1-.2,1,.1,1.4.4.7.7.9,1.2.3,1,.3,1.6-.1,1.2-.3,1.7-.6.9-1,1.2-.9.4-1.4.4-.7,0-.9-.2-.5-.3-.7-.6v3h-1.1ZM161.2,163.6c0,.8.2,1.4.5,1.8s.7.6,1.2.6.9-.2,1.2-.6.5-1,.5-1.8-.2-1.4-.5-1.8-.7-.6-1.2-.6-.8.2-1.2.6-.5,1-.5,1.8Z"/>
          <path d="M48.5,183.6c-.6-.7-1.1-1.6-1.5-2.6s-.6-2-.6-3.1.2-1.8.5-2.7c.4-1,.9-2,1.6-3h.8c-.5.8-.8,1.4-.9,1.7-.2.5-.4,1.1-.6,1.7-.2.7-.3,1.5-.3,2.2,0,1.9.6,3.8,1.8,5.6h-.8Z"/>
          <path d="M57.2,180.2c.5.4,1,.6,1.5.8l-.3.8c-.6-.2-1.2-.6-1.8-1.1-.6.4-1.3.5-2.1.5s-1.5-.2-2.1-.6-1.1-.9-1.5-1.6-.5-1.4-.5-2.3.2-1.6.5-2.3.8-1.2,1.5-1.6,1.3-.5,2.1-.5,1.5.2,2.1.6,1.1.9,1.5,1.6.5,1.4.5,2.3-.1,1.3-.3,1.9-.5,1.1-1,1.5ZM54.7,178.7c.7.2,1.2.5,1.6.8.7-.6,1-1.5,1-2.7s-.1-1.3-.4-1.8-.6-.9-1-1.2-1-.4-1.5-.4c-.8,0-1.6.3-2.1.9s-.8,1.4-.8,2.6.3,2,.8,2.6,1.3.9,2.1.9.8,0,1.1-.2c-.4-.2-.7-.4-1.1-.5l.3-.8Z"/>
          <path d="M66.1,178.1l1.1.3c-.2.9-.7,1.6-1.3,2.1s-1.4.7-2.3.7-1.7-.2-2.3-.6-1-.9-1.3-1.6-.5-1.5-.5-2.3.2-1.7.5-2.3.8-1.2,1.5-1.5,1.3-.5,2.1-.5,1.6.2,2.2.7,1,1.1,1.2,1.8l-1.1.3c-.2-.6-.5-1.1-.9-1.4s-.9-.4-1.4-.4-1.2.2-1.7.5-.8.7-.9,1.3-.3,1.1-.3,1.6.1,1.4.3,1.9.5,1,1,1.2.9.4,1.5.4,1.2-.2,1.6-.6.7-.9.9-1.6Z"/>
          <path d="M68.1,178.5v-1.1h3.2v1.1h-3.2Z"/>
          <path d="M73.5,181.1h-1v-8.6h1.1v3.1c.4-.6,1-.8,1.7-.8s.7,0,1.1.2.6.4.8.7.4.6.5,1,.2.8.2,1.3c0,1.1-.3,1.9-.8,2.5s-1.2.9-1.9.9-1.3-.3-1.7-.9v.8ZM73.5,177.9c0,.7.1,1.3.3,1.6.3.5.8.8,1.3.8s.9-.2,1.2-.6.5-1,.5-1.8-.2-1.4-.5-1.8-.7-.6-1.2-.6-.9.2-1.2.6-.5,1-.5,1.7Z"/>
          <path d="M83.2,180.3c-.4.3-.8.6-1.1.7s-.7.2-1.2.2c-.7,0-1.2-.2-1.6-.5s-.6-.8-.6-1.3,0-.6.2-.8.3-.5.5-.6.5-.3.8-.3c.2,0,.5-.1.9-.2.9-.1,1.5-.2,1.9-.4,0-.1,0-.2,0-.3,0-.4,0-.7-.3-.9-.3-.2-.7-.4-1.2-.4s-.9,0-1.1.3-.4.5-.5.9h-1c0-.6.2-.9.5-1.2s.5-.5.9-.6.9-.2,1.4-.2,1,0,1.3.2.6.3.7.5.3.4.3.7c0,.2,0,.5,0,1v1.4c0,1,0,1.6,0,1.9s.1.5.3.7h-1.1c-.1-.2-.2-.5-.2-.8ZM83.2,178c-.4.2-1,.3-1.7.4-.4,0-.7.1-.9.2s-.3.2-.4.3-.1.3-.1.5c0,.3.1.5.3.7s.5.3.9.3.8,0,1.1-.3.5-.4.7-.7c.1-.2.2-.6.2-1.1v-.4Z"/>
          <path d="M85.4,179.2l1-.2c0,.4.2.7.5,1s.6.3,1.1.3.8,0,1.1-.3.4-.4.4-.7-.1-.4-.3-.6c-.1,0-.5-.2-1.1-.4-.8-.2-1.3-.4-1.6-.5s-.5-.3-.7-.6-.2-.5-.2-.8,0-.5.2-.8.3-.4.5-.6c.2-.1.4-.2.7-.3s.6-.1.9-.1c.5,0,.9,0,1.3.2s.6.3.8.6.3.6.4,1h-1c0-.2-.2-.4-.4-.6s-.5-.3-1-.3-.8,0-1,.2-.3.3-.3.6,0,.3.1.4c0,.1.2.2.4.3.1,0,.4.1.9.3.7.2,1.3.4,1.6.5s.5.3.7.6.3.5.3.9-.1.7-.3,1-.5.6-.9.7-.8.3-1.3.3c-.8,0-1.4-.2-1.8-.5s-.7-.8-.8-1.5Z"/>
          <path d="M96.1,179.1h1.1c-.2.8-.5,1.3-1,1.6s-1.1.5-1.8.5-1.6-.3-2.2-.8-.8-1.3-.8-2.4.3-1.9.8-2.4,1.2-.9,2.1-.9,1.5.3,2,.8.8,1.4.8,2.4,0,.2,0,.3h-4.6c0,.7.2,1.2.6,1.6s.8.5,1.3.5.7-.1,1-.3.5-.5.7-1ZM92.7,177.4h3.5c0-.5-.2-.9-.4-1.2-.3-.4-.8-.6-1.3-.6s-.9.2-1.2.5-.5.8-.5,1.3Z"/>
          <path d="M102.6,181.1v-.8c-.4.6-1,.9-1.7.9s-1-.1-1.4-.4-.7-.7-1-1.1-.3-1.1-.3-1.7.1-1.2.3-1.7.5-.9.9-1.2.9-.4,1.4-.4.7,0,1,.2.5.4.7.6v-3.1h1v8.6h-1ZM99.2,178c0,.8.2,1.4.5,1.8s.7.6,1.2.6.9-.2,1.2-.6.5-1,.5-1.7-.2-1.5-.5-1.9-.7-.6-1.2-.6-.9.2-1.2.6-.5,1-.5,1.8Z"/>
          <path d="M108.8,181.1v-5.4h-.9v-.8h.9v-.7c0-.4,0-.7.1-.9.1-.3.3-.5.5-.7s.6-.3,1.1-.3.6,0,1,.1l-.2.9c-.2,0-.4,0-.6,0-.3,0-.5,0-.7.2s-.2.4-.2.8v.6h1.2v.8h-1.2v5.4h-1Z"/>
          <path d="M111.9,173.7v-1.2h1.1v1.2h-1.1ZM111.9,181.1v-6.2h1.1v6.2h-1.1Z"/>
          <path d="M114.5,181.1v-8.6h1.1v8.6h-1.1Z"/>
          <path d="M119.5,180.1l.2.9c-.3,0-.6,0-.8,0-.4,0-.7,0-.9-.2s-.4-.3-.4-.5-.1-.6-.1-1.2v-3.6h-.8v-.8h.8v-1.5l1-.6v2.2h1.1v.8h-1.1v3.6c0,.3,0,.5,0,.6s0,.2.2.2.2,0,.4,0,.3,0,.5,0Z"/>
          <path d="M124.8,179.1h1.1c-.2.8-.5,1.3-1,1.6s-1.1.5-1.8.5-1.6-.3-2.2-.8-.8-1.3-.8-2.4.3-1.9.8-2.4,1.2-.9,2.1-.9,1.5.3,2,.8.8,1.4.8,2.4,0,.2,0,.3h-4.6c0,.7.2,1.2.6,1.6s.8.5,1.3.5.7-.1,1-.3.5-.5.7-1ZM121.3,177.4h3.5c0-.5-.2-.9-.4-1.2-.3-.4-.8-.6-1.3-.6s-.9.2-1.2.5-.5.8-.5,1.3Z"/>
          <path d="M127.2,181.1v-6.2h.9v.9c.2-.4.5-.7.7-.9s.4-.2.7-.2c.4,0,.7.1,1.1.3l-.4,1c-.3-.2-.5-.2-.8-.2s-.4,0-.6.2-.3.3-.4.6c-.1.4-.2.8-.2,1.2v3.3h-1.1Z"/>
          <path d="M131.2,173.7v-1.2h1.1v1.2h-1.1ZM131.2,181.1v-6.2h1.1v6.2h-1.1Z"/>
          <path d="M133.9,181.1v-6.2h.9v.9c.5-.7,1.1-1,2-1s.7,0,1,.2.5.3.7.5.3.5.3.8c0,.2,0,.5,0,1v3.8h-1.1v-3.8c0-.4,0-.8-.1-1s-.2-.4-.4-.5-.5-.2-.7-.2c-.4,0-.8.1-1.2.4s-.5.8-.5,1.6v3.4h-1.1Z"/>
          <path d="M140.4,181.6l1,.2c0,.3.2.5.4.7.3.2.6.3,1.1.3s.9,0,1.1-.3.4-.5.5-.8c0-.2,0-.7,0-1.4-.5.5-1,.8-1.7.8s-1.5-.3-2-.9-.7-1.4-.7-2.2.1-1.1.3-1.6.5-.9.9-1.2.9-.4,1.4-.4,1.3.3,1.8.9v-.8h1v5.4c0,1,0,1.7-.3,2.1s-.5.7-.9,1-1,.4-1.6.4-1.3-.2-1.8-.5-.7-.8-.7-1.5ZM141.2,177.9c0,.8.2,1.4.5,1.8s.7.6,1.2.6.9-.2,1.2-.6.5-1,.5-1.8-.2-1.3-.5-1.7-.7-.6-1.2-.6-.9.2-1.2.6-.5.9-.5,1.7Z"/>
          <path d="M147.9,183.6h-.8c1.2-1.9,1.8-3.8,1.8-5.6s0-1.5-.3-2.2c-.1-.6-.3-1.1-.6-1.7-.2-.4-.5-.9-.9-1.8h.8c.7,1,1.3,2,1.6,3,.3.9.5,1.7.5,2.7s-.2,2.1-.6,3.1-.9,1.8-1.5,2.6Z"/>
        </g>
        <rect class="cls-9" x="24.4" y="154" width="148.3" height="34.6"/>
      </g>
      <g>
        <rect class="cls-9" x="509" y="152.9" width="252.6" height="34.6"/>
        <g>
          <path d="M511.4,166.2v-10h2l2.4,7.1c.2.7.4,1.2.5,1.5.1-.4.3-.9.5-1.6l2.4-7h1.8v10h-1.3v-8.4l-2.9,8.4h-1.2l-2.9-8.5v8.5h-1.3Z"/>
          <path d="M527.9,163.9l1.3.2c-.2.7-.6,1.3-1.1,1.7s-1.2.6-2.1.6-1.9-.3-2.5-1-.9-1.6-.9-2.8.3-2.2.9-2.8,1.4-1,2.4-1,1.8.3,2.4,1,.9,1.6.9,2.8,0,.2,0,.3h-5.4c0,.8.3,1.4.7,1.8s.9.6,1.5.6.8-.1,1.2-.4.6-.6.8-1.1ZM523.9,161.9h4.1c0-.6-.2-1.1-.5-1.4-.4-.5-.9-.7-1.5-.7s-1,.2-1.4.6-.6.9-.6,1.5Z"/>
          <path d="M535.5,163.5l1.2.2c-.1.8-.5,1.5-1,2s-1.2.7-2,.7-1.8-.3-2.4-1-.9-1.6-.9-2.8.1-1.5.4-2.1.7-1,1.2-1.3,1.1-.4,1.7-.4,1.4.2,1.9.6.8,1,1,1.7l-1.2.2c-.1-.5-.3-.9-.6-1.1s-.6-.4-1-.4c-.6,0-1.1.2-1.5.7s-.6,1.1-.6,2.1.2,1.7.6,2.1.9.7,1.5.7.9-.1,1.2-.4.5-.8.6-1.4Z"/>
          <path d="M537.7,166.2v-10h1.2v3.6c.6-.7,1.3-1,2.2-1s1,.1,1.4.3.7.5.9.9.3.9.3,1.6v4.6h-1.2v-4.6c0-.6-.1-1.1-.4-1.3s-.6-.4-1.1-.4-.7,0-1,.3-.6.4-.7.8-.2.8-.2,1.3v4h-1.2Z"/>
          <path d="M550.3,165.3c-.5.4-.9.7-1.3.8s-.9.2-1.4.2c-.8,0-1.4-.2-1.8-.6s-.6-.9-.6-1.5,0-.7.2-1,.4-.5.6-.7.6-.3.9-.4c.2,0,.6-.1,1.1-.2,1-.1,1.7-.3,2.2-.4,0-.2,0-.3,0-.3,0-.5-.1-.9-.3-1.1-.3-.3-.8-.4-1.4-.4s-1,.1-1.3.3-.5.6-.6,1.1l-1.2-.2c.1-.5.3-.9.5-1.2s.6-.6,1.1-.7,1-.3,1.6-.3,1.1,0,1.5.2.7.3.9.6.3.5.4.8c0,.2,0,.6,0,1.1v1.6c0,1.1,0,1.9,0,2.2s.2.6.3.9h-1.3c-.1-.3-.2-.6-.2-.9ZM550.2,162.5c-.4.2-1.1.3-2,.5-.5,0-.9.2-1.1.2s-.4.2-.5.4-.2.4-.2.6c0,.3.1.6.4.8s.6.3,1.1.3.9-.1,1.3-.3.6-.5.8-.9c.1-.3.2-.7.2-1.2v-.5Z"/>
          <path d="M553.3,166.2v-7.3h1.1v1c.5-.8,1.3-1.2,2.3-1.2s.8,0,1.2.2.6.4.8.6.3.6.4.9c0,.2,0,.6,0,1.2v4.5h-1.2v-4.4c0-.5,0-.9-.1-1.1s-.3-.4-.5-.6-.5-.2-.9-.2c-.5,0-1,.2-1.4.5s-.6,1-.6,1.9v4h-1.2Z"/>
          <path d="M561.1,157.6v-1.4h1.2v1.4h-1.2ZM561.1,166.2v-7.3h1.2v7.3h-1.2Z"/>
          <path d="M563.7,164l1.2-.2c0,.5.3.9.6,1.1s.7.4,1.3.4,1-.1,1.3-.3.4-.5.4-.8-.1-.5-.4-.7c-.2-.1-.6-.2-1.3-.4-.9-.2-1.5-.4-1.9-.6s-.6-.4-.8-.7-.3-.6-.3-1,0-.6.2-.9.3-.5.6-.7c.2-.1.5-.3.8-.4s.7-.1,1.1-.1c.6,0,1.1,0,1.5.2s.7.4,1,.7.3.7.4,1.1l-1.2.2c0-.4-.2-.7-.5-.9s-.6-.3-1.1-.3-1,0-1.2.3-.4.4-.4.7,0,.3.2.4c.1.1.3.2.5.3.1,0,.5.2,1.1.3.9.2,1.5.4,1.8.6s.6.4.8.6.3.6.3,1.1-.1.8-.4,1.2-.6.6-1,.8-1,.3-1.5.3c-.9,0-1.7-.2-2.2-.6s-.8-1-.9-1.7Z"/>
          <path d="M573.9,165.1l.2,1.1c-.3,0-.7.1-.9.1-.4,0-.8,0-1-.2s-.4-.3-.5-.6-.2-.7-.2-1.5v-4.2h-.9v-1h.9v-1.8l1.2-.7v2.5h1.2v1h-1.2v4.2c0,.4,0,.6,0,.7s.1.2.2.2.2,0,.4,0,.3,0,.5,0Z"/>
          <path d="M575.1,157.6v-1.4h1.2v1.4h-1.2ZM575.1,166.2v-7.3h1.2v7.3h-1.2Z"/>
          <path d="M583,163.5l1.2.2c-.1.8-.5,1.5-1,2s-1.2.7-2,.7-1.8-.3-2.4-1-.9-1.6-.9-2.8.1-1.5.4-2.1.7-1,1.2-1.3,1.1-.4,1.7-.4,1.4.2,1.9.6.8,1,1,1.7l-1.2.2c-.1-.5-.3-.9-.6-1.1s-.6-.4-1-.4c-.6,0-1.1.2-1.5.7s-.6,1.1-.6,2.1.2,1.7.6,2.1.9.7,1.5.7.9-.1,1.2-.4.5-.8.6-1.4Z"/>
          <path d="M589.1,157.6v-1.4h1.2v1.4h-1.2ZM589.1,166.2v-7.3h1.2v7.3h-1.2Z"/>
          <path d="M592.2,166.2v-7.3h1.1v1c.5-.8,1.3-1.2,2.3-1.2s.8,0,1.2.2.6.4.8.6.3.6.4.9c0,.2,0,.6,0,1.2v4.5h-1.2v-4.4c0-.5,0-.9-.1-1.1s-.3-.4-.5-.6-.5-.2-.9-.2c-.5,0-1,.2-1.4.5s-.6,1-.6,1.9v4h-1.2Z"/>
          <path d="M604.7,166.2v-.9c-.5.7-1.1,1.1-2,1.1s-1.1-.2-1.6-.5-.9-.8-1.1-1.3-.4-1.2-.4-2,.1-1.4.4-2,.6-1,1.1-1.4,1-.5,1.6-.5.8,0,1.2.3.6.4.8.7v-3.6h1.2v10h-1.1ZM600.8,162.6c0,.9.2,1.6.6,2.1s.9.7,1.4.7,1-.2,1.4-.7.6-1.1.6-2-.2-1.7-.6-2.2-.9-.7-1.4-.7-1,.2-1.4.7-.6,1.2-.6,2.1Z"/>
          <path d="M607.8,157.6v-1.4h1.2v1.4h-1.2ZM607.8,166.2v-7.3h1.2v7.3h-1.2Z"/>
          <path d="M615.6,163.5l1.2.2c-.1.8-.5,1.5-1,2s-1.2.7-2,.7-1.8-.3-2.4-1-.9-1.6-.9-2.8.1-1.5.4-2.1.7-1,1.2-1.3,1.1-.4,1.7-.4,1.4.2,1.9.6.8,1,1,1.7l-1.2.2c-.1-.5-.3-.9-.6-1.1s-.6-.4-1-.4c-.6,0-1.1.2-1.5.7s-.6,1.1-.6,2.1.2,1.7.6,2.1.9.7,1.5.7.9-.1,1.2-.4.5-.8.6-1.4Z"/>
          <path d="M622.6,165.3c-.5.4-.9.7-1.3.8s-.9.2-1.4.2c-.8,0-1.4-.2-1.8-.6s-.6-.9-.6-1.5,0-.7.2-1,.4-.5.6-.7.6-.3.9-.4c.2,0,.6-.1,1.1-.2,1-.1,1.7-.3,2.2-.4,0-.2,0-.3,0-.3,0-.5-.1-.9-.3-1.1-.3-.3-.8-.4-1.4-.4s-1,.1-1.3.3-.5.6-.6,1.1l-1.2-.2c.1-.5.3-.9.5-1.2s.6-.6,1.1-.7,1-.3,1.6-.3,1.1,0,1.5.2.7.3.9.6.3.5.4.8c0,.2,0,.6,0,1.1v1.6c0,1.1,0,1.9,0,2.2s.2.6.3.9h-1.3c-.1-.3-.2-.6-.2-.9ZM622.5,162.5c-.4.2-1.1.3-2,.5-.5,0-.9.2-1.1.2s-.4.2-.5.4-.2.4-.2.6c0,.3.1.6.4.8s.6.3,1.1.3.9-.1,1.3-.3.6-.5.8-.9c.1-.3.2-.7.2-1.2v-.5Z"/>
          <path d="M628.4,165.1l.2,1.1c-.3,0-.7.1-.9.1-.4,0-.8,0-1-.2s-.4-.3-.5-.6-.2-.7-.2-1.5v-4.2h-.9v-1h.9v-1.8l1.2-.7v2.5h1.2v1h-1.2v4.2c0,.4,0,.6,0,.7s.1.2.2.2.2,0,.4,0,.3,0,.5,0Z"/>
          <path d="M629.1,162.6c0-1.3.4-2.3,1.1-3,.6-.5,1.4-.8,2.3-.8s1.8.3,2.4,1,1,1.6,1,2.7-.1,1.7-.4,2.2-.7,1-1.2,1.2-1.1.4-1.8.4c-1,0-1.8-.3-2.5-1s-.9-1.6-.9-2.8ZM630.4,162.6c0,.9.2,1.6.6,2.1s.9.7,1.5.7,1.1-.2,1.5-.7.6-1.2.6-2.1-.2-1.6-.6-2-.9-.7-1.5-.7-1.1.2-1.5.7-.6,1.2-.6,2.1Z"/>
          <path d="M637.3,166.2v-7.3h1.1v1.1c.3-.5.5-.9.8-1s.5-.2.8-.2c.4,0,.8.1,1.3.4l-.4,1.1c-.3-.2-.6-.3-.9-.3s-.5,0-.7.2-.4.4-.5.7c-.1.4-.2.9-.2,1.4v3.8h-1.2Z"/>
          <path d="M641.5,164l1.2-.2c0,.5.3.9.6,1.1s.7.4,1.3.4,1-.1,1.3-.3.4-.5.4-.8-.1-.5-.4-.7c-.2-.1-.6-.2-1.3-.4-.9-.2-1.5-.4-1.9-.6s-.6-.4-.8-.7-.3-.6-.3-1,0-.6.2-.9.3-.5.6-.7c.2-.1.5-.3.8-.4s.7-.1,1.1-.1c.6,0,1.1,0,1.5.2s.7.4,1,.7.3.7.4,1.1l-1.2.2c0-.4-.2-.7-.5-.9s-.6-.3-1.1-.3-1,0-1.2.3-.4.4-.4.7,0,.3.2.4c.1.1.3.2.5.3.1,0,.5.2,1.1.3.9.2,1.5.4,1.8.6s.6.4.8.6.3.6.3,1.1-.1.8-.4,1.2-.6.6-1,.8-1,.3-1.5.3c-.9,0-1.7-.2-2.2-.6s-.8-1-.9-1.7Z"/>
          <path d="M649.4,160.3v-1.4h1.4v1.4h-1.4ZM649.4,166.2v-1.4h1.4v1.4h-1.4Z"/>
          <path d="M664.1,162.7l1.3.3c-.3,1.1-.8,1.9-1.5,2.5s-1.6.9-2.6.9-2-.2-2.6-.7-1.2-1.1-1.5-1.9-.5-1.7-.5-2.7.2-2,.6-2.7,1-1.4,1.7-1.8,1.5-.6,2.4-.6,1.8.3,2.5.8,1.2,1.2,1.4,2.2l-1.3.3c-.2-.7-.6-1.3-1-1.6s-1-.5-1.7-.5-1.4.2-1.9.6-.9.9-1.1,1.5-.3,1.3-.3,1.9.1,1.6.4,2.2.6,1.1,1.2,1.4,1.1.5,1.7.5,1.4-.2,1.9-.6.9-1.1,1-1.9Z"/>
          <path d="M667,166.2v-10h1.3v8.8h4.9v1.2h-6.3Z"/>
          <path d="M673.8,166.4l2.9-10.4h1l-2.9,10.4h-1Z"/>
          <path d="M678.7,166.2v-10h3.8c.7,0,1.2,0,1.5,0,.5,0,.9.2,1.2.5s.6.6.8,1,.3.9.3,1.4c0,.9-.3,1.6-.8,2.2s-1.5.9-2.9.9h-2.6v4.1h-1.3ZM680.1,160.9h2.6c.9,0,1.5-.2,1.8-.5s.5-.8.5-1.3-.1-.8-.3-1.1-.5-.5-.8-.6c-.2,0-.6,0-1.2,0h-2.6v3.6Z"/>
          <path d="M692.8,162.3v-1.2h4.2s0,3.7,0,3.7c-.7.5-1.3.9-2,1.2s-1.4.4-2.1.4-1.9-.2-2.7-.6-1.4-1-1.8-1.8-.6-1.7-.6-2.7.2-1.9.6-2.7,1-1.5,1.8-1.9,1.6-.6,2.6-.6,1.4.1,2,.4,1,.6,1.4,1,.6,1,.8,1.6l-1.2.3c-.2-.5-.3-.9-.6-1.2s-.5-.5-1-.7-.9-.3-1.4-.3-1.1,0-1.6.3-.8.4-1.1.7-.5.6-.6,1c-.3.6-.4,1.3-.4,2s.2,1.6.5,2.2.8,1,1.3,1.3,1.2.4,1.9.4,1.1-.1,1.7-.3,1-.5,1.2-.7v-1.9h-2.9Z"/>
          <path d="M699.1,166.2v-1.4h1.4v1.4c0,.5,0,.9-.3,1.2s-.5.6-.9.7l-.3-.5c.3-.1.5-.3.6-.5s.2-.5.2-1h-.7Z"/>
          <path d="M706.7,166.2v-10h2l2.4,7.1c.2.7.4,1.2.5,1.5.1-.4.3-.9.5-1.6l2.4-7h1.8v10h-1.3v-8.4l-2.9,8.4h-1.2l-2.9-8.5v8.5h-1.3Z"/>
          <path d="M718.4,166.2v-10h1.3v8.8h4.9v1.2h-6.3Z"/>
          <path d="M733.4,162.7l1.3.3c-.3,1.1-.8,1.9-1.5,2.5s-1.6.9-2.6.9-2-.2-2.6-.7-1.2-1.1-1.5-1.9-.5-1.7-.5-2.7.2-2,.6-2.7,1-1.4,1.7-1.8,1.5-.6,2.4-.6,1.8.3,2.5.8,1.2,1.2,1.4,2.2l-1.3.3c-.2-.7-.6-1.3-1-1.6s-1-.5-1.7-.5-1.4.2-1.9.6-.9.9-1.1,1.5-.3,1.3-.3,1.9.1,1.6.4,2.2.6,1.1,1.2,1.4,1.1.5,1.7.5,1.4-.2,1.9-.6.9-1.1,1-1.9Z"/>
          <path d="M736.3,166.2v-10h1.3v8.8h4.9v1.2h-6.3Z"/>
          <path d="M743,166.4l2.9-10.4h1l-2.9,10.4h-1Z"/>
          <path d="M518.6,179.5l1.3.3c-.3,1.1-.8,1.9-1.5,2.5-.7.6-1.6.9-2.6.9s-2-.2-2.6-.7c-.7-.4-1.2-1.1-1.5-1.9s-.5-1.7-.5-2.7.2-2,.6-2.7c.4-.8,1-1.4,1.7-1.8s1.5-.6,2.4-.6,1.8.3,2.5.8c.7.5,1.2,1.2,1.4,2.2l-1.3.3c-.2-.7-.6-1.3-1-1.6-.4-.3-1-.5-1.7-.5s-1.4.2-1.9.6-.9.9-1.1,1.5-.3,1.3-.3,1.9.1,1.6.4,2.2.6,1.1,1.2,1.4,1.1.5,1.7.5,1.4-.2,1.9-.6c.5-.4.9-1.1,1-1.9Z"/>
          <path d="M521.5,183v-10h1.3v8.8h4.9v1.2h-6.3Z"/>
          <path d="M529.5,183v-1.4h1.4v1.4c0,.5,0,.9-.3,1.2-.2.3-.5.6-.9.7l-.3-.5c.3-.1.5-.3.6-.5.1-.2.2-.5.2-1h-.7Z"/>
          <path d="M536.5,179.4c0-1.3.4-2.3,1.1-3,.6-.5,1.4-.8,2.3-.8s1.8.3,2.4,1c.6.7,1,1.6,1,2.7s-.1,1.7-.4,2.2c-.3.5-.7,1-1.2,1.2-.5.3-1.1.4-1.8.4-1,0-1.8-.3-2.5-1-.6-.7-.9-1.6-.9-2.8ZM537.8,179.4c0,.9.2,1.6.6,2.1.4.5.9.7,1.5.7s1.1-.2,1.5-.7.6-1.2.6-2.1-.2-1.6-.6-2c-.4-.5-.9-.7-1.5-.7s-1.1.2-1.5.7c-.4.5-.6,1.2-.6,2.1Z"/>
          <path d="M543.9,183l2.7-3.8-2.5-3.5h1.5l1.1,1.7c.2.3.4.6.5.8.2-.3.4-.6.6-.8l1.2-1.7h1.5l-2.5,3.4,2.7,3.8h-1.5l-1.5-2.3-.4-.6-1.9,2.9h-1.5Z"/>
          <path d="M559.1,179.5l1.3.3c-.3,1.1-.8,1.9-1.5,2.5-.7.6-1.6.9-2.6.9s-2-.2-2.6-.7c-.7-.4-1.2-1.1-1.5-1.9s-.5-1.7-.5-2.7.2-2,.6-2.7c.4-.8,1-1.4,1.7-1.8s1.5-.6,2.4-.6,1.8.3,2.5.8c.7.5,1.2,1.2,1.4,2.2l-1.3.3c-.2-.7-.6-1.3-1-1.6-.4-.3-1-.5-1.7-.5s-1.4.2-1.9.6-.9.9-1.1,1.5-.3,1.3-.3,1.9.1,1.6.4,2.2.6,1.1,1.2,1.4,1.1.5,1.7.5,1.4-.2,1.9-.6c.5-.4.9-1.1,1-1.9Z"/>
          <path d="M562,183v-10h1.3v8.8h4.9v1.2h-6.3Z"/>
          <path d="M568.7,183.2l2.9-10.4h1l-2.9,10.4h-1Z"/>
          <path d="M580.9,179.5l1.3.3c-.3,1.1-.8,1.9-1.5,2.5-.7.6-1.6.9-2.6.9s-2-.2-2.6-.7c-.7-.4-1.2-1.1-1.5-1.9s-.5-1.7-.5-2.7.2-2,.6-2.7c.4-.8,1-1.4,1.7-1.8s1.5-.6,2.4-.6,1.8.3,2.5.8c.7.5,1.2,1.2,1.4,2.2l-1.3.3c-.2-.7-.6-1.3-1-1.6-.4-.3-1-.5-1.7-.5s-1.4.2-1.9.6-.9.9-1.1,1.5-.3,1.3-.3,1.9.1,1.6.4,2.2.6,1.1,1.2,1.4,1.1.5,1.7.5,1.4-.2,1.9-.6c.5-.4.9-1.1,1-1.9Z"/>
          <path d="M583.8,183v-10h1.3v8.8h4.9v1.2h-6.3Z"/>
          <path d="M591.8,183v-1.4h1.4v1.4c0,.5,0,.9-.3,1.2-.2.3-.5.6-.9.7l-.3-.5c.3-.1.5-.3.6-.5.1-.2.2-.5.2-1h-.7Z"/>
          <path d="M606.1,173v1.2h-5.4l3.4,3.6-3.4,4h5.7v1.2h-7.1v-1.4l3.3-3.8-3.3-3.5v-1.3h6.8Z"/>
          <path d="M615.2,179.5l1.3.3c-.3,1.1-.8,1.9-1.5,2.5-.7.6-1.6.9-2.6.9s-2-.2-2.6-.7c-.7-.4-1.2-1.1-1.5-1.9s-.5-1.7-.5-2.7.2-2,.6-2.7c.4-.8,1-1.4,1.7-1.8s1.5-.6,2.4-.6,1.8.3,2.5.8c.7.5,1.2,1.2,1.4,2.2l-1.3.3c-.2-.7-.6-1.3-1-1.6-.4-.3-1-.5-1.7-.5s-1.4.2-1.9.6-.9.9-1.1,1.5-.3,1.3-.3,1.9.1,1.6.4,2.2.6,1.1,1.2,1.4,1.1.5,1.7.5,1.4-.2,1.9-.6c.5-.4.9-1.1,1-1.9Z"/>
          <path d="M618.1,183v-10h1.3v8.8h4.9v1.2h-6.3Z"/>
          <path d="M626.1,183v-1.4h1.4v1.4c0,.5,0,.9-.3,1.2-.2.3-.5.6-.9.7l-.3-.5c.3-.1.5-.3.6-.5.1-.2.2-.5.2-1h-.7Z"/>
          <path d="M640.5,173v1.2h-5.4l3.4,3.6-3.4,4h5.7v1.2h-7.1v-1.4l3.3-3.8-3.3-3.5v-1.3h6.8Z"/>
          <path d="M642.4,183v-10h3.8c.7,0,1.2,0,1.5,0,.5,0,.9.2,1.2.5.3.2.6.6.8,1,.2.4.3.9.3,1.4,0,.9-.3,1.6-.8,2.2-.5.6-1.5.9-2.9.9h-2.6v4.1h-1.3ZM643.7,177.7h2.6c.9,0,1.5-.2,1.8-.5.4-.3.5-.8.5-1.3s-.1-.8-.3-1.1c-.2-.3-.5-.5-.8-.6-.2,0-.6,0-1.2,0h-2.6v3.6Z"/>
          <path d="M656.4,179.1v-1.2h4.2s0,3.7,0,3.7c-.7.5-1.3.9-2,1.2-.7.3-1.4.4-2.1.4s-1.9-.2-2.7-.6c-.8-.4-1.4-1-1.8-1.8-.4-.8-.6-1.7-.6-2.7s.2-1.9.6-2.7c.4-.8,1-1.5,1.8-1.9s1.6-.6,2.6-.6,1.4.1,2,.4c.6.2,1,.6,1.4,1,.3.4.6,1,.8,1.6l-1.2.3c-.2-.5-.3-.9-.6-1.2-.2-.3-.5-.5-1-.7-.4-.2-.9-.3-1.4-.3s-1.1,0-1.6.3-.8.4-1.1.7-.5.6-.6,1c-.3.6-.4,1.3-.4,2s.2,1.6.5,2.2.8,1,1.3,1.3c.6.3,1.2.4,1.9.4s1.1-.1,1.7-.3c.5-.2,1-.5,1.2-.7v-1.9h-2.9Z"/>
          <path d="M662.8,183v-1.4h1.4v1.4c0,.5,0,.9-.3,1.2-.2.3-.5.6-.9.7l-.3-.5c.3-.1.5-.3.6-.5.1-.2.2-.5.2-1h-.7Z"/>
          <path d="M670.9,183v-1.4h1.4v1.4h-1.4ZM675.6,183v-1.4h1.4v1.4h-1.4ZM680.3,183v-1.4h1.4v1.4h-1.4Z"/>
        </g>
      </g>
      <g>
        <rect class="cls-9" x="852.4" y="151.4" width="182.7" height="34.6"/>
        <text class="cls-3" transform="translate(853.4 165.1)"><tspan x="0" y="0">Batch-specific axis Z</tspan><tspan x="0" y="16.8" xml:space="preserve"> (lipid mechanistic axis scores)</tspan></text>
      </g>
      <g>
        <rect class="cls-9" x="1126.4" y="151.4" width="218.4" height="34.6"/>
        <text class="cls-3" transform="translate(1157.7 165.1)"><tspan x="0" y="0">HO vs WT axis-level effects</tspan><tspan x="21" y="16.8">(δ_axis, z_lipid_axis)</tspan></text>
      </g>
      <g id="edge1-5" data-name="edge1">
        <path class="cls-10" d="M190.7,168.7h47.5"/>
        <polygon class="cls-11" points="238 165.2 245.5 168.7 238 172.2 238 165.2"/>
      </g>
      <g id="edge1-6" data-name="edge1">
        <path class="cls-10" d="M436.2,168.7h47.5"/>
        <polygon class="cls-11" points="483.6 165.2 491.1 168.7 483.6 172.2 483.6 165.2"/>
      </g>
      <g id="edge1-7" data-name="edge1">
        <path class="cls-10" d="M779.6,168.7h47.5"/>
        <polygon class="cls-11" points="827 165.2 834.5 168.7 827 172.2 827 165.2"/>
      </g>
      <g id="edge1-8" data-name="edge1">
        <path class="cls-10" d="M1053.6,168.7h47.5"/>
        <polygon class="cls-11" points="1100.9 165.2 1108.4 168.7 1100.9 172.2 1100.9 165.2"/>
      </g>
      <polyline class="cls-10" points="1356.6 51.9 1378.6 51.9 1378.6 177.2 1356.6 177.2"/>
      <g>
        <line class="cls-10" x1="1378.8" y1="114.5" x2="1426.6" y2="114.5"/>
        <polygon points="1425.2 119.5 1433.8 114.5 1425.2 109.5 1425.2 119.5"/>
      </g>
      <g id="clust1-3" data-name="clust1">
        <path class="cls-8" d="M1449.4,162.5h1428.6c6.2,0,12.5-6,12.5-12v-69c0-6-6.2-12-12.5-12h-1428.6c-6.2,0-12.5,6-12.5,12v69c0,6,6.2,12,12.5,12"/>
        <text class="cls-2" transform="translate(2115.2 83) scale(1 1)"><tspan x="0" y="0">Mechanistic axis scores (RNA &amp; lipid, per batch)</tspan></text>
      </g>
      <g>
        <rect class="cls-9" x="1736.9" y="96" width="228.7" height="34.6"/>
        <text class="cls-7" transform="translate(1743.4 110.5)"><tspan class="cls-5"><tspan x="0" y="0">Upstream &amp; downstream RNA pathway Z</tspan></tspan><tspan class="cls-1" x="17.2" y="14.4">（上游通路</tspan><tspan class="cls-5" x="77.2" y="14.4" xml:space="preserve"> + EphB1 </tspan><tspan class="cls-1" x="130.2" y="14.4">下游基因集）</tspan></text>
      </g>
      <g>
        <text class="cls-7" transform="translate(1498.6 111)"><tspan class="cls-5"><tspan x="0" y="0">Axis-level multi-omics integration</tspan></tspan><tspan class="cls-1" x="-49.7" y="14.4">（</tspan><tspan class="cls-5" x="-37.7" y="14.4">Stouffer </tspan><tspan class="cls-1" x="7.7" y="14.4">等权合并，得到</tspan><tspan class="cls-5" x="91.7" y="14.4" xml:space="preserve"> per-axis multi-omics Z</tspan><tspan class="cls-1" x="212.4" y="14.4">）</tspan></text>
        <rect class="cls-9" x="1446.7" y="98.4" width="273.2" height="34.6"/>
      </g>
      <g>
        <rect class="cls-9" x="1984.4" y="97.2" width="263.9" height="34.6"/>
        <text class="cls-7" transform="translate(2051.9 110.9)"><tspan class="cls-5"><tspan x="0" y="0">Axis–pathway alignment</tspan></tspan><tspan class="cls-1" x="-72.5" y="14.4">（</tspan><tspan class="cls-5" x="-60.5" y="14.4">axis × pathway </tspan><tspan class="cls-1" x="22.5" y="14.4">跨批次</tspan><tspan class="cls-5" x="58.5" y="14.4" xml:space="preserve"> mean_Z, cor, support_Z</tspan><tspan class="cls-1" x="189.9" y="14.4">）</tspan></text>
      </g>
      <g>
        <rect class="cls-9" x="2271.7" y="95.8" width="354.2" height="34.6"/>
        <text class="cls-7" transform="translate(2367.7 110.4)"><tspan class="cls-5"><tspan x="0" y="0">Sample-level RNA–lipid scores</tspan></tspan><tspan class="cls-1" x="-100.7" y="14.4">（</tspan><tspan class="cls-5" x="-88.7" y="14.4">EphB1 </tspan><tspan class="cls-1" x="-49.3" y="14.4">下游</tspan><tspan class="cls-5" x="-25.3" y="14.4" xml:space="preserve"> M_score_RNA</tspan><tspan class="cls-1" x="56" y="14.4">，轴级</tspan><tspan class="cls-5" x="92" y="14.4" xml:space="preserve"> Y_score_RNA / Y_score_lipid</tspan><tspan class="cls-1" x="253.4" y="14.4">）</tspan></text>
      </g>
      <g>
        <rect class="cls-9" x="2646.6" y="95.8" width="237" height="34.6"/>
        <text class="cls-4" transform="translate(2716.8 109.4)"><tspan x="0" y="0">Mediation analysis</tspan><tspan x="-49.2" y="14.4">(X = group, M = RNA, Y = lipid / axis)</tspan></text>
      </g>
    </g>
  </g>
</svg>