<?xml version="1.0" encoding="UTF-8"?>
<svg xmlns="http://www.w3.org/2000/svg" xmlns:xlink="http://www.w3.org/1999/xlink" version="1.1" viewBox="0 0 703.5 347">
  <defs>
    <style>
      .cls-1, .cls-2, .cls-3, .cls-4 {
        fill: none;
      }

      .cls-2 {
        stroke-width: 1.5px;
      }

      .cls-2, .cls-3, .cls-5, .cls-6, .cls-4 {
        stroke: #000;
      }

      .cls-3 {
        stroke-linecap: round;
        stroke-linejoin: round;
      }

      .cls-5, .cls-6 {
        fill: #fff;
      }

      .cls-7 {
        clip-path: url(#clippath-1);
      }

      .cls-8 {
        clip-path: url(#clippath-3);
      }

      .cls-9 {
        clip-path: url(#clippath-4);
      }

      .cls-10 {
        clip-path: url(#clippath-2);
      }

      .cls-11 {
        clip-path: url(#clippath-6);
      }

      .cls-12 {
        clip-path: url(#clippath-5);
      }

      .cls-6, .cls-4 {
        stroke-miterlimit: 10;
      }

      .cls-13 {
        font-family: ArialMT, Arial;
      }

      .cls-13, .cls-14, .cls-15 {
        font-size: 9px;
      }

      .cls-14 {
        font-family: Arial-BoldMT, Arial;
        font-weight: 700;
      }

      .cls-15 {
        font-family: AdobeSongStd-Light-GBpc-EUC-H, 'Adobe Song Std';
        font-weight: 300;
      }

      .cls-16 {
        clip-path: url(#clippath);
      }
    </style>
    <clipPath id="clippath">
      <rect class="cls-1" x="116.6" y="7.2" width="446.4" height="332.6"/>
    </clipPath>
    <clipPath id="clippath-1">
      <rect class="cls-1" x="116.6" y="7.2" width="446.4" height="332.6"/>
    </clipPath>
    <clipPath id="clippath-2">
      <rect class="cls-1" x="116.6" y="7.2" width="446.4" height="332.6"/>
    </clipPath>
    <clipPath id="clippath-3">
      <rect class="cls-1" x="116.6" y="7.2" width="446.4" height="332.6"/>
    </clipPath>
    <clipPath id="clippath-4">
      <rect class="cls-1" x="116.6" y="7.2" width="446.4" height="332.6"/>
    </clipPath>
    <clipPath id="clippath-5">
      <rect class="cls-1" x="120.8" y="22.8" width="446.4" height="332.6"/>
    </clipPath>
    <clipPath id="clippath-6">
      <rect class="cls-1" x="121.4" y="30.9" width="446.4" height="332.6"/>
    </clipPath>
  </defs>
  <!-- Generator: Adobe Illustrator 28.6.0, SVG Export Plug-In . SVG Version: 1.2.0 Build 709)  -->
  <g>
    <g id="_图层_1" data-name="图层_1">
      <g id="patch_2">
        <g class="cls-16">
          <path class="cls-2" d="M179.1,311.3h321.4c23.8,0,35.7-12.7,35.7-38V73.7c0-25.3-11.9-38-35.7-38H179.1c-23.8,0-35.7,12.7-35.7,38v199.6c0,25.3,11.9,38,35.7,38h0Z"/>
        </g>
      </g>
      <rect class="cls-6" x="521.1" y="125.2" width="129.9" height="95.9"/>
      <g id="patch_3">
        <g class="cls-7">
          <path class="cls-5" d="M167.9,140.3h160.7c1.5,0,2.2-.8,2.2-2.4v-71.3c0-1.6-.7-2.4-2.2-2.4h-160.7c-1.5,0-2.2.8-2.2,2.4v71.3c0,1.6.7,2.4,2.2,2.4Z"/>
        </g>
      </g>
      <g id="patch_4">
        <g class="cls-10">
          <path class="cls-5" d="M351,140.3h160.7c1.5,0,2.2-.8,2.2-2.4v-71.3c0-1.6-.7-2.4-2.2-2.4h-160.7c-1.5,0-2.2.8-2.2,2.4v71.3c0,1.6.7,2.4,2.2,2.4h0Z"/>
        </g>
      </g>
      <g id="patch_5">
        <g class="cls-8">
          <path class="cls-5" d="M167.9,282.8h160.7c1.5,0,2.2-.8,2.2-2.4v-76c0-1.6-.7-2.4-2.2-2.4h-160.7c-1.5,0-2.2.8-2.2,2.4v76c0,1.6.7,2.4,2.2,2.4Z"/>
        </g>
      </g>
      <g id="patch_6">
        <g class="cls-9">
          <path class="cls-5" d="M351,282.8h160.7c1.5,0,2.2-.8,2.2-2.4v-76c0-1.6-.7-2.4-2.2-2.4h-160.7c-1.5,0-2.2.8-2.2,2.4v76c0,1.6.7,2.4,2.2,2.4h0Z"/>
        </g>
      </g>
      <g id="patch_7">
        <g class="cls-12">
          <path class="cls-3" d="M254.7,148.4"/>
        </g>
        <line class="cls-3" x1="246.6" y1="142.2" x2="333.9" y2="169.8"/>
        <line class="cls-3" x1="342.7" y1="169.2" x2="416.4" y2="146.2"/>
      </g>
      <g>
        <path id="DejaVuSans-53" d="M233.7,77.5v.8c-.3,0-.6-.2-.8-.3-.3,0-.5,0-.8,0s-.8,0-1,.2-.3.4-.3.7,0,.5.2.6.4.2.9.3h.5c.6.2,1,.4,1.3.7s.4.7.4,1.1-.2,1-.6,1.3-.9.4-1.7.4h-.9c-.3,0-.6-.2-1-.3v-.8c.3.2.6.3.9.4.3,0,.6,0,.9,0s.8,0,1-.3c.2-.2.4-.4.4-.8s0-.5-.3-.7-.5-.3-.9-.4h-.5c-.6-.2-1-.4-1.3-.6s-.4-.6-.4-1,.2-.9.5-1.2c.4-.3.9-.4,1.5-.4h.8c.3,0,.6,0,.9.2h.3Z"/>
        <path id="DejaVuSans-79" d="M237.1,83.5c-.2.5-.4.9-.6,1-.2.2-.4.2-.8.2h-.6v-.6h.4c.2,0,.4,0,.5,0,0,0,.2-.3.4-.7v-.3c0,0-1.6-4.3-1.6-4.3h.8l1.4,3.4,1.4-3.4h.8l-1.9,4.8h-.2Z"/>
        <path id="DejaVuSans-6e" d="M243.6,80.5v2.6h-.7v-2.6c0-.4,0-.7-.2-.9-.2-.2-.4-.3-.7-.3s-.7,0-.9.4c-.2.2-.3.6-.3,1v2.5h-.7v-4.4h.7v.7c.2-.3.4-.5.6-.6s.5-.2.8-.2c.5,0,.9.2,1.1.5.3.3.4.8.4,1.4h-.1Z"/>
        <path id="DejaVuSans-74" d="M245.8,77.5v1.2h1.5v.6h-1.5v2.4c0,.4,0,.6,0,.7s.3.2.6.2h.7v.6h-.7c-.6,0-.9,0-1.1-.3-.2-.2-.3-.6-.3-1.1v-2.4h-.5v-.6h.5v-1.2h.7Z"/>
        <path id="DejaVuSans-68" d="M251.8,80.5v2.6h-.7v-2.6c0-.4,0-.7-.2-.9-.2-.2-.4-.3-.7-.3s-.7,0-.9.4c-.2.2-.3.6-.3,1v2.5h-.7v-6.1h.7v2.4c.2-.3.4-.5.6-.6.2,0,.5-.2.8-.2.5,0,.9.2,1.1.5.3.3.4.8.4,1.4h-.1Z"/>
        <path id="DejaVuSans-65" d="M257,80.8v.4h-3.3c0,.5.2.9.4,1.1.3.3.6.4,1.1.4s.5,0,.8,0,.5-.2.8-.3v.7c-.3,0-.5.2-.8.2h-.8c-.7,0-1.3-.2-1.7-.6s-.6-1-.6-1.6.2-1.3.6-1.7c.4-.4.9-.6,1.6-.6s1.1.2,1.4.6c.3.4.5.9.5,1.5ZM256.3,80.6c0-.4-.1-.7-.3-.9-.2-.2-.5-.4-.9-.4s-.7,0-1,.3-.4.5-.4,1h2.6,0Z"/>
        <path id="DejaVuSans-73" d="M261,78.9v.7c-.2,0-.4-.2-.6-.2h-.7c-.4,0-.6,0-.8.2-.2,0-.3.3-.3.5s0,.3.2.4.4.2.8.3h.2c.5.2.9.3,1.1.5s.3.5.3.8-.2.7-.5,1c-.3.2-.8.4-1.3.4h-.7c-.3,0-.5,0-.8-.2v-.7c.3,0,.5.2.8.3.3,0,.5,0,.8,0s.6,0,.8-.2c.2,0,.3-.3.3-.5s0-.3-.2-.4c-.1,0-.4-.2-.9-.3h-.2c-.4-.2-.8-.3-1-.5s-.3-.5-.3-.8.1-.7.4-1c.3-.2.7-.3,1.2-.3h.7c.2,0,.5,0,.6.2v-.3Z"/>
        <path id="DejaVuSans-69" d="M262.4,78.8h.7v4.4h-.7v-4.4ZM262.4,77.1h.7v.9h-.7v-.9Z"/>
        <path id="DejaVuSans-73-2" d="M267.4,78.9v.7c-.2,0-.4-.2-.6-.2h-.7c-.4,0-.6,0-.8.2-.2,0-.3.3-.3.5s0,.3.2.4.4.2.8.3h.2c.5.2.9.3,1.1.5s.3.5.3.8-.2.7-.5,1c-.3.2-.8.4-1.3.4h-.7c-.3,0-.5,0-.8-.2v-.7c.3,0,.5.2.8.3.3,0,.5,0,.8,0s.6,0,.8-.2c.2,0,.3-.3.3-.5s0-.3-.2-.4c-.1,0-.4-.2-.9-.3h-.2c-.4-.2-.8-.3-1-.5s-.3-.5-.3-.8.1-.7.4-1c.3-.2.7-.3,1.2-.3h.7c.2,0,.5,0,.6.2v-.3Z"/>
        <path id="DejaVuSans-20" d="M268,83.1"/>
        <path id="DejaVuSans-61" d="M273.3,80.9c-.6,0-1,0-1.2.2s-.3.4-.3.7,0,.5.3.6c.2,0,.4.2.7.2s.7,0,1-.4.4-.7.4-1.1v-.2h-.9ZM274.7,80.6v2.5h-.7v-.7c-.2.3-.4.5-.6.6-.2,0-.5.2-.9.2s-.8,0-1.1-.4-.4-.6-.4-1,.2-.9.5-1.1.8-.4,1.5-.4h1c0-.4-.1-.7-.3-.8s-.5-.3-.9-.3h-.7c-.2,0-.5,0-.7.3v-.7c.3,0,.5-.2.8-.2h.7c.6,0,1.1.2,1.4.5.3.3.5.8.5,1.5h-.1Z"/>
        <path id="DejaVuSans-78" d="M279.8,78.8l-1.6,2.1,1.7,2.2h-.8l-1.3-1.7-1.3,1.7h-.8l1.7-2.3-1.6-2.1h.8l1.2,1.6,1.2-1.6h.8Z"/>
        <path id="DejaVuSans-69-2" d="M280.9,78.8h.7v4.4h-.7v-4.4ZM280.9,77.1h.7v.9h-.7v-.9Z"/>
        <path id="DejaVuSans-73-3" d="M285.9,78.9v.7c-.2,0-.4-.2-.6-.2h-.7c-.4,0-.6,0-.8.2-.2,0-.3.3-.3.5s0,.3.2.4.4.2.8.3h.2c.5.2.9.3,1.1.5s.3.5.3.8-.2.7-.5,1c-.3.2-.8.4-1.3.4h-.7c-.3,0-.5,0-.8-.2v-.7c.3,0,.5.2.8.3.3,0,.5,0,.8,0s.6,0,.8-.2c.2,0,.3-.3.3-.5s0-.3-.2-.4c-.1,0-.4-.2-.9-.3h-.2c-.4-.2-.8-.3-1-.5s-.3-.5-.3-.8.1-.7.4-1c.3-.2.7-.3,1.2-.3h.7c.2,0,.5,0,.6.2v-.3Z"/>
      </g>
      <g>
        <path id="DejaVuSans-52-2" d="M401.9,80.4c.2,0,.3.2.5.4s.3.4.5.8l.8,1.6h-.8l-.7-1.5c-.2-.4-.4-.6-.6-.8s-.4-.2-.7-.2h-.9v2.5h-.8v-5.8h1.8c.7,0,1.2,0,1.5.4s.5.7.5,1.3,0,.7-.3.9c-.2.2-.4.4-.7.5h0ZM399.9,78v2.1h1c.4,0,.7,0,.9-.3s.3-.4.3-.8,0-.6-.3-.8-.5-.3-.9-.3h-1Z"/>
        <path id="DejaVuSans-65-6" d="M408,80.8v.4h-3.3c0,.5.2.9.4,1.1.3.3.6.4,1.1.4s.5,0,.8,0,.5-.2.8-.3v.7c-.3,0-.5.2-.8.2h-.8c-.7,0-1.3-.2-1.7-.6-.4-.4-.6-1-.6-1.6s.2-1.3.6-1.7c.4-.4.9-.6,1.6-.6s1.1.2,1.4.6.5.9.5,1.5ZM407.3,80.6c0-.4-.1-.7-.3-.9-.2-.2-.5-.4-.9-.4s-.7,0-1,.3-.4.5-.4,1h2.6,0Z"/>
        <path id="DejaVuSans-6d" d="M412.6,79.6c.2-.3.4-.6.6-.7s.5-.2.9-.2.8.2,1.1.5c.2.3.4.8.4,1.4v2.6h-.7v-2.6c0-.4,0-.7-.2-.9-.1-.2-.4-.3-.7-.3s-.7,0-.9.4c-.2.2-.3.6-.3,1v2.5h-.7v-2.6c0-.4,0-.7-.2-.9s-.4-.3-.7-.3-.7,0-.9.4c-.2.2-.3.6-.3,1v2.5h-.7v-4.4h.7v.7c.2-.3.4-.5.6-.6s.5-.2.8-.2.6,0,.8.2c.2.2.4.4.5.7v-.2Z"/>
        <path id="DejaVuSans-6f-2" d="M418.7,79.3c-.4,0-.7.2-.9.5s-.3.7-.3,1.2.1.9.3,1.2c.2.3.5.5.9.5s.7-.2.9-.5c.2-.3.3-.7.3-1.2s-.1-.9-.3-1.2c-.2-.3-.5-.5-.9-.5ZM418.7,78.7c.6,0,1.1.2,1.5.6s.5,1,.5,1.7-.2,1.3-.5,1.7c-.4.4-.8.6-1.5.6s-1.1-.2-1.5-.6-.5-1-.5-1.7.2-1.3.5-1.7c.4-.4.8-.6,1.5-.6Z"/>
        <path id="DejaVuSans-64-3" d="M424.8,79.4v-2.4h.7v6.1h-.7v-.7c-.2.3-.3.5-.6.6-.2,0-.5.2-.8.2-.5,0-1-.2-1.3-.6s-.5-1-.5-1.7.2-1.2.5-1.7c.3-.4.8-.6,1.3-.6s.6,0,.8.2c.2,0,.4.3.6.6ZM422.3,81c0,.5.1.9.3,1.2.2.3.5.5.9.5s.7-.2.9-.5c.2-.3.3-.7.3-1.2s-.1-.9-.3-1.2c-.2-.3-.5-.5-.9-.5s-.7.2-.9.5-.3.7-.3,1.2Z"/>
        <path id="DejaVuSans-65-7" d="M430.7,80.8v.4h-3.3c0,.5.2.9.4,1.1.3.3.6.4,1.1.4s.5,0,.8,0,.5-.2.8-.3v.7c-.3,0-.5.2-.8.2h-.8c-.7,0-1.3-.2-1.7-.6-.4-.4-.6-1-.6-1.6s.2-1.3.6-1.7c.4-.4.9-.6,1.6-.6s1.1.2,1.4.6.5.9.5,1.5ZM430,80.6c0-.4-.1-.7-.3-.9-.2-.2-.5-.4-.9-.4s-.7,0-1,.3-.4.5-.4,1h2.6,0Z"/>
        <path id="DejaVuSans-6c" d="M431.9,77.1h.7v6.1h-.7v-6.1Z"/>
        <path id="DejaVuSans-69-5" d="M434.1,78.8h.7v4.4h-.7v-4.4ZM434.1,77.1h.7v.9h-.7v-.9Z"/>
        <path id="DejaVuSans-6e-3" d="M440,80.5v2.6h-.7v-2.6c0-.4,0-.7-.2-.9-.2-.2-.4-.3-.7-.3s-.7,0-.9.4c-.2.2-.3.6-.3,1v2.5h-.7v-4.4h.7v.7c.2-.3.4-.5.6-.6s.5-.2.8-.2c.5,0,.9.2,1.1.5.3.3.4.8.4,1.4h0Z"/>
        <path id="DejaVuSans-67-2" d="M444.3,80.9c0-.5-.1-.9-.3-1.2-.2-.3-.5-.4-.9-.4s-.7,0-.9.4c-.2.3-.3.7-.3,1.2s.1.9.3,1.2c.2.3.5.4.9.4s.7,0,.9-.4c.2-.3.3-.7.3-1.2ZM445,82.6c0,.7-.2,1.3-.5,1.7-.3.4-.8.5-1.5.5h-.7c-.2,0-.4,0-.7-.2v-.7c.2,0,.4.2.6.3h.6c.5,0,.8,0,1.1-.4.2-.2.4-.6.4-1.1v-.4c-.1.3-.3.5-.6.6s-.5.2-.8.2c-.5,0-1-.2-1.3-.6s-.5-1-.5-1.6.2-1.2.5-1.6.8-.6,1.3-.6.6,0,.8.2.4.3.6.6v-.7h.7s0,3.8,0,3.8Z"/>
        <path id="DejaVuSans-20-16" d="M445.7,83.1"/>
        <path id="DejaVuSans-61-3" d="M451,80.9c-.6,0-1,0-1.2.2s-.3.4-.3.7,0,.5.3.6c.2,0,.4.2.7.2s.7,0,1-.4.4-.7.4-1.1v-.2h-.9ZM452.4,80.6v2.5h-.7v-.7c-.2.3-.4.5-.6.6s-.5.2-.9.2-.8,0-1.1-.4c-.3-.3-.4-.6-.4-1s.2-.9.5-1.1.8-.4,1.5-.4h1c0-.4-.1-.7-.3-.8s-.5-.3-.9-.3h-.7c-.2,0-.5,0-.7.3v-.7c.3,0,.5-.2.8-.2h.7c.6,0,1.1.2,1.4.5s.5.8.5,1.5h0Z"/>
        <path id="DejaVuSans-78-2" d="M457.6,78.8l-1.6,2.1,1.7,2.2h-.8l-1.3-1.7-1.3,1.7h-.8l1.7-2.3-1.6-2.1h.8l1.2,1.6,1.2-1.6h.8,0Z"/>
        <path id="DejaVuSans-69-6" d="M458.7,78.8h.7v4.4h-.7v-4.4ZM458.7,77.1h.7v.9h-.7v-.9Z"/>
        <path id="DejaVuSans-73-6" d="M463.7,78.9v.7c-.2,0-.4-.2-.6-.2h-.7c-.4,0-.6,0-.8.2-.2,0-.3.3-.3.5s0,.3.2.4.4.2.8.3h.2c.5.2.9.3,1.1.5s.3.5.3.8-.2.7-.5,1c-.3.2-.8.4-1.3.4h-.7c-.3,0-.5,0-.8-.2v-.7c.3,0,.5.2.8.3.3,0,.5,0,.8,0s.6,0,.8-.2c.2,0,.3-.3.3-.5s0-.3-.2-.4c-.1,0-.4-.2-.9-.3h-.2c-.4-.2-.8-.3-1-.5s-.3-.5-.3-.8.1-.7.4-1c.3-.2.7-.3,1.2-.3h.7c.2,0,.5,0,.6.2v-.3Z"/>
      </g>
      <g>
        <path id="DejaVuSans-4f" d="M405.6,218.3c-.6,0-1,.2-1.4.6-.3.4-.5,1-.5,1.7s.2,1.3.5,1.7.8.6,1.4.6,1-.2,1.4-.6c.3-.4.5-1,.5-1.7s-.2-1.3-.5-1.7-.8-.6-1.4-.6ZM405.6,217.6c.8,0,1.5.3,2,.8s.7,1.3.7,2.2-.2,1.7-.7,2.2-1.1.8-2,.8-1.5-.3-2-.8-.7-1.3-.7-2.2.2-1.7.7-2.2,1.1-.8,2-.8Z"/>
        <path id="DejaVuSans-78-3" d="M413.1,219.2l-1.6,2.1,1.7,2.2h-.8l-1.3-1.7-1.3,1.7h-.8l1.7-2.3-1.6-2.1h.8l1.2,1.6,1.2-1.6h.8,0Z"/>
        <path id="DejaVuSans-69-9" d="M414.2,219.2h.7v4.4h-.7v-4.4ZM414.2,217.5h.7v.9h-.7v-.9Z"/>
        <path id="DejaVuSans-64-6" d="M419.3,219.8v-2.4h.7v6.1h-.7v-.7c-.2.3-.3.5-.6.6-.2.1-.5.2-.8.2-.5,0-1-.2-1.3-.6-.3-.4-.5-1-.5-1.7s.2-1.2.5-1.7c.3-.4.8-.6,1.3-.6s.6,0,.8.2c.2.1.4.3.6.6h0ZM416.9,221.4c0,.5.1.9.3,1.2.2.3.5.5.9.5s.7-.2.9-.5c.2-.3.3-.7.3-1.2s-.1-.9-.3-1.2c-.2-.3-.5-.5-.9-.5s-.7.2-.9.5-.3.7-.3,1.2Z"/>
        <path id="DejaVuSans-61-5" d="M423.5,221.4c-.6,0-1,0-1.2.2s-.3.4-.3.7,0,.5.3.6c.2.1.4.2.7.2s.7-.1,1-.4.4-.7.4-1.1v-.2h-.9ZM425,221.1v2.5h-.7v-.7c-.2.3-.4.5-.6.6s-.5.2-.9.2-.8-.1-1.1-.4c-.3-.3-.4-.6-.4-1s.2-.9.5-1.1c.3-.2.8-.4,1.5-.4h1c0-.4-.1-.7-.3-.8s-.5-.3-.9-.3h-.7c-.2,0-.5.1-.7.3v-.7c.3-.1.5-.2.8-.2h.7c.6,0,1.1.2,1.4.5s.5.8.5,1.5h0Z"/>
        <path id="DejaVuSans-74-4" d="M427.1,217.9v1.2h1.5v.6h-1.5v2.4c0,.4,0,.6.1.7s.3.2.6.2h.7v.6h-.7c-.6,0-.9-.1-1.1-.3s-.3-.6-.3-1.1v-2.4h-.5v-.6h.5v-1.2h.7,0Z"/>
        <path id="DejaVuSans-69-10" d="M429.6,219.2h.7v4.4h-.7v-4.4ZM429.6,217.5h.7v.9h-.7v-.9Z"/>
        <path id="DejaVuSans-6f-4" d="M433.5,219.7c-.4,0-.7.2-.9.5s-.3.7-.3,1.2.1.9.3,1.2c.2.3.5.5.9.5s.7-.2.9-.5c.2-.3.3-.7.3-1.2s-.1-.9-.3-1.2c-.2-.3-.5-.5-.9-.5ZM433.5,219.1c.6,0,1.1.2,1.5.6.4.4.5,1,.5,1.7s-.2,1.3-.5,1.7c-.4.4-.8.6-1.5.6s-1.1-.2-1.5-.6c-.4-.4-.5-1-.5-1.7s.2-1.3.5-1.7c.4-.4.8-.6,1.5-.6Z"/>
        <path id="DejaVuSans-6e-5" d="M440.3,220.9v2.6h-.7v-2.6c0-.4,0-.7-.2-.9s-.4-.3-.7-.3-.7.1-.9.4c-.2.2-.3.6-.3,1v2.5h-.7v-4.4h.7v.7c.2-.3.4-.5.6-.6s.5-.2.8-.2c.5,0,.9.2,1.1.5.3.3.4.8.4,1.4h0Z"/>
        <path id="DejaVuSans-20-24" d="M441,223.6"/>
        <path id="DejaVuSans-61-6" d="M446.3,221.4c-.6,0-1,0-1.2.2s-.3.4-.3.7,0,.5.3.6c.2.1.4.2.7.2s.7-.1,1-.4.4-.7.4-1.1v-.2h-.9ZM447.7,221.1v2.5h-.7v-.7c-.2.3-.4.5-.6.6s-.5.2-.9.2-.8-.1-1.1-.4c-.3-.3-.4-.6-.4-1s.2-.9.5-1.1c.3-.2.8-.4,1.5-.4h1c0-.4-.1-.7-.3-.8s-.5-.3-.9-.3h-.7c-.2,0-.5.1-.7.3v-.7c.3-.1.5-.2.8-.2h.7c.6,0,1.1.2,1.4.5s.5.8.5,1.5h0Z"/>
        <path id="DejaVuSans-78-4" d="M452.8,219.2l-1.6,2.1,1.7,2.2h-.8l-1.3-1.7-1.3,1.7h-.8l1.7-2.3-1.6-2.1h.8l1.2,1.6,1.2-1.6h.8,0Z"/>
        <path id="DejaVuSans-69-11" d="M453.9,219.2h.7v4.4h-.7v-4.4ZM453.9,217.5h.7v.9h-.7v-.9Z"/>
        <path id="DejaVuSans-73-9" d="M458.9,219.3v.7c-.2-.1-.4-.2-.6-.2h-.7c-.4,0-.6,0-.8.2-.2.1-.3.3-.3.5s0,.3.2.4.4.2.8.3h.2c.5.2.9.3,1.1.5s.3.5.3.8-.2.7-.5,1c-.3.2-.8.4-1.3.4h-.7c-.3,0-.5-.1-.8-.2v-.7c.3.1.5.2.8.3.3,0,.5.1.8.1s.6,0,.8-.2c.2-.1.3-.3.3-.5s0-.3-.2-.4c-.1-.1-.4-.2-.9-.3h-.2c-.4-.2-.8-.3-1-.5s-.3-.5-.3-.8.1-.7.4-1c.3-.2.7-.3,1.2-.3h.7c.2,0,.5,0,.6.2v-.3Z"/>
      </g>
      <g id="text_6">
        <g>
          <path id="DejaVuSans-43-17" d="M232.7,157.5v.8c-.3-.2-.5-.4-.8-.6-.3-.1-.6-.2-1-.2-.7,0-1.2.2-1.5.6s-.5,1-.5,1.8.2,1.4.5,1.8.9.6,1.5.6.7,0,1-.2.6-.3.8-.6v.8c-.3.2-.6.3-.9.4-.3,0-.6.1-1,.1-.9,0-1.6-.3-2.1-.8s-.8-1.3-.8-2.2.3-1.7.8-2.2,1.2-.8,2.1-.8.7,0,1,.1c.3,0,.6.2.9.4v.2Z"/>
          <path id="DejaVuSans-4c-25" d="M233.9,157h.8v5.2h2.8v.7h-3.6v-5.8h0Z"/>
          <path id="DejaVuSans-20-43" d="M237.6,162.9"/>
          <path id="DejaVuSans-73-17" d="M243.7,158.6v.7c-.2-.1-.4-.2-.6-.2h-.7c-.4,0-.6,0-.8.2-.2.1-.3.3-.3.5s0,.3.2.4.4.2.8.3h.2c.5.2.9.3,1.1.5s.3.5.3.8-.2.7-.5,1c-.3.2-.8.4-1.3.4h-.7c-.3,0-.5-.1-.8-.2v-.7c.3.1.5.2.8.3.3,0,.5.1.8.1s.6,0,.8-.2c.2-.1.3-.3.3-.5s0-.3-.2-.4c-.1-.1-.4-.2-.9-.3h-.2c-.4-.2-.8-.3-1-.5s-.3-.5-.3-.8.1-.7.4-1c.3-.2.7-.3,1.2-.3h.7c.2,0,.5,0,.6.2v-.3Z"/>
          <path id="DejaVuSans-79-9" d="M246.9,163.3c-.2.5-.4.9-.6,1-.2.2-.4.2-.8.2h-.6v-.6h.4c.2,0,.4,0,.5-.1.1,0,.2-.3.4-.7v-.3c.1,0-1.6-4.3-1.6-4.3h.8l1.4,3.4,1.4-3.4h.8l-1.9,4.8h-.2Z"/>
          <path id="DejaVuSans-6e-9" d="M253.4,160.2v2.6h-.7v-2.6c0-.4,0-.7-.2-.9s-.4-.3-.7-.3-.7.1-.9.4c-.2.2-.3.6-.3,1v2.5h-.7v-4.4h.7v.7c.2-.3.4-.5.6-.6.2-.1.5-.2.8-.2.5,0,.9.2,1.1.5.3.3.4.8.4,1.4h-.1Z"/>
          <path id="DejaVuSans-74-9" d="M255.6,157.2v1.2h1.5v.6h-1.5v2.4c0,.4,0,.6.1.7s.3.2.6.2h.7v.6h-.7c-.6,0-.9-.1-1.1-.3-.2-.2-.3-.6-.3-1.1v-2.4h-.5v-.6h.5v-1.2h.7Z"/>
          <path id="DejaVuSans-68-2" d="M261.6,160.2v2.6h-.7v-2.6c0-.4,0-.7-.2-.9s-.4-.3-.7-.3-.7.1-.9.4c-.2.2-.3.6-.3,1v2.5h-.7v-6.1h.7v2.4c.2-.3.4-.5.6-.6.2-.1.5-.2.8-.2.5,0,.9.2,1.1.5.3.3.4.8.4,1.4h-.1Z"/>
          <path id="DejaVuSans-65-20" d="M266.8,160.5v.4h-3.3c0,.5.2.9.4,1.1.3.3.6.4,1.1.4s.5,0,.8-.1.5-.2.8-.3v.7c-.3.1-.5.2-.8.2h-.8c-.7,0-1.3-.2-1.7-.6-.4-.4-.6-1-.6-1.6s.2-1.3.6-1.7c.4-.4.9-.6,1.6-.6s1.1.2,1.4.6c.3.4.5.9.5,1.5h0ZM266.1,160.3c0-.4-.1-.7-.3-.9s-.5-.4-.9-.4-.7.1-1,.3-.4.5-.4,1h2.6,0Z"/>
          <path id="DejaVuSans-73-18" d="M270.8,158.6v.7c-.2-.1-.4-.2-.6-.2h-.7c-.4,0-.6,0-.8.2-.2.1-.3.3-.3.5s0,.3.2.4.4.2.8.3h.2c.5.2.9.3,1.1.5s.3.5.3.8-.2.7-.5,1c-.3.2-.8.4-1.3.4h-.7c-.3,0-.5-.1-.8-.2v-.7c.3.1.5.2.8.3.3,0,.5.1.8.1s.6,0,.8-.2c.2-.1.3-.3.3-.5s0-.3-.2-.4c-.1-.1-.4-.2-.9-.3h-.2c-.4-.2-.8-.3-1-.5s-.3-.5-.3-.8.1-.7.4-1c.3-.2.7-.3,1.2-.3h.7c.2,0,.5,0,.6.2v-.3Z"/>
          <path id="DejaVuSans-69-19" d="M272.1,158.5h.7v4.4h-.7v-4.4ZM272.1,156.8h.7v.9h-.7v-.9Z"/>
          <path id="DejaVuSans-73-19" d="M277.2,158.6v.7c-.2-.1-.4-.2-.6-.2h-.7c-.4,0-.6,0-.8.2-.2.1-.3.3-.3.5s0,.3.2.4.4.2.8.3h.2c.5.2.9.3,1.1.5s.3.5.3.8-.2.7-.5,1c-.3.2-.8.4-1.3.4h-.7c-.3,0-.5-.1-.8-.2v-.7c.3.1.5.2.8.3.3,0,.5.1.8.1s.6,0,.8-.2c.2-.1.3-.3.3-.5s0-.3-.2-.4c-.1-.1-.4-.2-.9-.3h-.2c-.4-.2-.8-.3-1-.5s-.3-.5-.3-.8.1-.7.4-1c.3-.2.7-.3,1.2-.3h.7c.2,0,.5,0,.6.2v-.3Z"/>
        </g>
      </g>
      <g id="text_7">
        <g>
          <path id="DejaVuSans-43-18" d="M404.6,156.3v.8c-.3-.2-.5-.4-.8-.6-.3-.1-.6-.2-1-.2-.7,0-1.2.2-1.5.6s-.5,1-.5,1.8.2,1.4.5,1.8.9.6,1.5.6.7,0,1-.2.6-.3.8-.6v.8c-.3.2-.6.3-.9.4-.3,0-.6.1-1,.1-.9,0-1.6-.3-2.1-.8s-.8-1.3-.8-2.2.3-1.7.8-2.2,1.2-.8,2.1-.8.7,0,1,.1c.3,0,.6.2.9.4v.2Z"/>
          <path id="DejaVuSans-4c-26" d="M405.9,155.8h.8v5.2h2.8v.7h-3.6v-5.8h0Z"/>
          <path id="DejaVuSans-20-44" d="M409.5,161.6"/>
          <path id="DejaVuSans-72-7" d="M415.4,157.9s-.2,0-.3-.1h-.3c-.4,0-.7.1-.9.4s-.3.6-.3,1.1v2.3h-.7v-4.4h.7v.7c.2-.3.3-.5.6-.6.2-.1.5-.2.9-.2s.1,0,.2,0h.2v.7h-.1Z"/>
          <path id="DejaVuSans-65-21" d="M419.7,159.3v.4h-3.3c0,.5.2.9.4,1.1.3.3.6.4,1.1.4s.5,0,.8-.1.5-.2.8-.3v.7c-.3.1-.5.2-.8.2h-.8c-.7,0-1.3-.2-1.7-.6-.4-.4-.6-1-.6-1.6s.2-1.3.6-1.7.9-.6,1.6-.6,1.1.2,1.4.6c.3.4.5.9.5,1.5h0ZM419,159.1c0-.4-.1-.7-.3-.9-.2-.2-.5-.4-.9-.4s-.7.1-1,.3-.4.5-.4,1h2.6,0Z"/>
          <path id="DejaVuSans-6d-4" d="M424.3,158.1c.2-.3.4-.6.6-.7s.5-.2.9-.2.8.2,1.1.5c.2.3.4.8.4,1.4v2.6h-.7v-2.6c0-.4,0-.7-.2-.9-.1-.2-.4-.3-.7-.3s-.7.1-.9.4c-.2.2-.3.6-.3,1v2.5h-.7v-2.6c0-.4,0-.7-.2-.9s-.4-.3-.7-.3-.7.1-.9.4c-.2.2-.3.6-.3,1v2.5h-.7v-4.4h.7v.7c.2-.3.4-.5.6-.6s.5-.2.8-.2.6,0,.8.2c.2.2.4.4.5.7v-.2Z"/>
          <path id="DejaVuSans-6f-11" d="M430.3,157.8c-.4,0-.7.2-.9.5s-.3.7-.3,1.2.1.9.3,1.2c.2.3.5.5.9.5s.7-.2.9-.5c.2-.3.3-.7.3-1.2s-.1-.9-.3-1.2c-.2-.3-.5-.5-.9-.5ZM430.3,157.2c.6,0,1.1.2,1.5.6.4.4.5,1,.5,1.7s-.2,1.3-.5,1.7c-.4.4-.8.6-1.5.6s-1.1-.2-1.5-.6c-.4-.4-.5-1-.5-1.7s.2-1.3.5-1.7c.4-.4.8-.6,1.5-.6Z"/>
          <path id="DejaVuSans-64-11" d="M436.4,157.9v-2.4h.7v6.1h-.7v-.7c-.2.3-.3.5-.6.6-.2.1-.5.2-.8.2-.5,0-1-.2-1.3-.6-.3-.4-.5-1-.5-1.7s.2-1.2.5-1.7c.3-.4.8-.6,1.3-.6s.6,0,.8.2c.2.1.4.3.6.6h0ZM434,159.5c0,.5.1.9.3,1.2.2.3.5.5.9.5s.7-.2.9-.5c.2-.3.3-.7.3-1.2s-.1-.9-.3-1.2c-.2-.3-.5-.5-.9-.5s-.7.2-.9.5-.3.7-.3,1.2Z"/>
          <path id="DejaVuSans-65-22" d="M442.4,159.3v.4h-3.3c0,.5.2.9.4,1.1.3.3.6.4,1.1.4s.5,0,.8-.1.5-.2.8-.3v.7c-.3.1-.5.2-.8.2h-.8c-.7,0-1.3-.2-1.7-.6-.4-.4-.6-1-.6-1.6s.2-1.3.6-1.7.9-.6,1.6-.6,1.1.2,1.4.6c.3.4.5.9.5,1.5h0ZM441.6,159.1c0-.4-.1-.7-.3-.9-.2-.2-.5-.4-.9-.4s-.7.1-1,.3-.4.5-.4,1h2.6,0Z"/>
          <path id="DejaVuSans-6c-5" d="M443.5,155.6h.7v6.1h-.7v-6.1Z"/>
          <path id="DejaVuSans-69-20" d="M445.8,157.3h.7v4.4h-.7v-4.4ZM445.8,155.6h.7v.9h-.7v-.9Z"/>
          <path id="DejaVuSans-6e-10" d="M451.6,159v2.6h-.7v-2.6c0-.4,0-.7-.2-.9s-.4-.3-.7-.3-.7.1-.9.4c-.2.2-.3.6-.3,1v2.5h-.7v-4.4h.7v.7c.2-.3.4-.5.6-.6s.5-.2.8-.2c.5,0,.9.2,1.1.5.3.3.4.8.4,1.4h0Z"/>
          <path id="DejaVuSans-67-6" d="M455.9,159.4c0-.5-.1-.9-.3-1.2-.2-.3-.5-.4-.9-.4s-.7.1-.9.4c-.2.3-.3.7-.3,1.2s.1.9.3,1.2c.2.3.5.4.9.4s.7-.1.9-.4c.2-.3.3-.7.3-1.2ZM456.7,161.1c0,.7-.2,1.3-.5,1.7s-.8.5-1.5.5h-.7c-.2,0-.4,0-.7-.2v-.7l.6.3h.6c.5,0,.8-.1,1.1-.4.2-.2.4-.6.4-1.1v-.4c-.1.3-.3.5-.6.6s-.5.2-.8.2c-.5,0-1-.2-1.3-.6-.3-.4-.5-1-.5-1.6s.2-1.2.5-1.6c.3-.4.8-.6,1.3-.6s.6,0,.8.2.4.3.6.6v-.7h.7v3.8Z"/>
        </g>
      </g>
      <g id="text_8">
        <g>
          <path id="DejaVuSans-43-19" d="M338.1,173.3v.9c-.3-.3-.6-.5-1-.6-.3-.1-.7-.2-1.1-.2-.7,0-1.3.2-1.7.7s-.6,1.1-.6,2,.2,1.5.6,2,1,.7,1.7.7.7,0,1.1-.2.7-.3,1-.6v.9c-.3.2-.6.4-1,.5-.3.1-.7.2-1.1.2-1,0-1.8-.3-2.3-.9-.6-.6-.9-1.4-.9-2.5s.3-1.9.9-2.5c.6-.6,1.4-.9,2.3-.9s.8,0,1.1.2c.3.1.7.3,1,.5v-.2Z"/>
          <path id="DejaVuSans-4c-27" d="M339.5,172.8h.9v5.8h3.2v.7h-4.1v-6.6h0Z"/>
        </g>
      </g>
      <g id="text_11">
        <g>
          <path id="DejaVuSans-6f-13" d="M423.7,186.7c-.4,0-.7.2-.9.5s-.3.7-.3,1.2.1.9.3,1.2c.2.3.5.5.9.5s.7-.2.9-.5c.2-.3.3-.7.3-1.2s-.1-.9-.3-1.2c-.2-.3-.5-.5-.9-.5ZM423.7,186.1c.6,0,1.1.2,1.5.6.4.4.5,1,.5,1.7s-.2,1.3-.5,1.7c-.4.4-.8.6-1.5.6s-1.1-.2-1.5-.6c-.4-.4-.5-1-.5-1.7s.2-1.3.5-1.7c.4-.4.8-.6,1.5-.6Z"/>
          <path id="DejaVuSans-78-9" d="M430.3,186.2l-1.6,2.1,1.7,2.2h-.8l-1.3-1.7-1.3,1.7h-.8l1.7-2.3-1.6-2.1h.8l1.2,1.6,1.2-1.6h.8,0Z"/>
          <path id="DejaVuSans-69-21" d="M431.4,186.2h.7v4.4h-.7v-4.4ZM431.4,184.5h.7v.9h-.7v-.9Z"/>
          <path id="DejaVuSans-64-12" d="M436.5,186.9v-2.4h.7v6.1h-.7v-.7c-.2.3-.3.5-.6.6-.2.1-.5.2-.8.2-.5,0-1-.2-1.3-.6-.3-.4-.5-1-.5-1.7s.2-1.2.5-1.7c.3-.4.8-.6,1.3-.6s.6,0,.8.2c.2.1.4.3.6.6h0ZM434.1,188.4c0,.5.1.9.3,1.2.2.3.5.5.9.5s.7-.2.9-.5c.2-.3.3-.7.3-1.2s-.1-.9-.3-1.2c-.2-.3-.5-.5-.9-.5s-.7.2-.9.5-.3.7-.3,1.2Z"/>
          <path id="DejaVuSans-61-12" d="M440.7,188.4c-.6,0-1,0-1.2.2s-.3.4-.3.7,0,.5.3.6c.2.1.4.2.7.2s.7-.1,1-.4.4-.7.4-1.1v-.2h-.9ZM442.1,188.1v2.5h-.7v-.7c-.2.3-.4.5-.6.6s-.5.2-.9.2-.8-.1-1.1-.4c-.3-.3-.4-.6-.4-1s.2-.9.5-1.1c.3-.2.8-.4,1.5-.4h1c0-.4-.1-.7-.3-.8s-.5-.3-.9-.3h-.7c-.2,0-.5.1-.7.3v-.7c.3-.1.5-.2.8-.2h.7c.6,0,1.1.2,1.4.5s.5.8.5,1.5h0Z"/>
          <path id="DejaVuSans-74-10" d="M444.3,185v1.2h1.5v.6h-1.5v2.4c0,.4,0,.6.1.7s.3.2.6.2h.7v.6h-.7c-.6,0-.9-.1-1.1-.3s-.3-.6-.3-1.1v-2.4h-.5v-.6h.5v-1.2h.7,0Z"/>
          <path id="DejaVuSans-69-22" d="M446.8,186.2h.7v4.4h-.7v-4.4ZM446.8,184.5h.7v.9h-.7v-.9Z"/>
          <path id="DejaVuSans-6f-14" d="M450.7,186.7c-.4,0-.7.2-.9.5s-.3.7-.3,1.2.1.9.3,1.2c.2.3.5.5.9.5s.7-.2.9-.5c.2-.3.3-.7.3-1.2s-.1-.9-.3-1.2c-.2-.3-.5-.5-.9-.5ZM450.7,186.1c.6,0,1.1.2,1.5.6.4.4.5,1,.5,1.7s-.2,1.3-.5,1.7c-.4.4-.8.6-1.5.6s-1.1-.2-1.5-.6c-.4-.4-.5-1-.5-1.7s.2-1.3.5-1.7c.4-.4.8-.6,1.5-.6Z"/>
          <path id="DejaVuSans-6e-11" d="M457.5,188v2.6h-.7v-2.6c0-.4,0-.7-.2-.9s-.4-.3-.7-.3-.7.1-.9.4c-.2.2-.3.6-.3,1v2.5h-.7v-4.4h.7v.7c.2-.3.4-.5.6-.6s.5-.2.8-.2c.5,0,.9.2,1.1.5.3.3.4.8.4,1.4h0Z"/>
        </g>
      </g>
      <g id="text_14">
        <g>
          <path id="DejaVuSans-45-4" d="M182.8,318.6h4.1v.7h-3.3v1.9h3.1v.7h-3.1v2.4h3.3v.7h-4.2v-6.6.2Z"/>
          <path id="DejaVuSans-61-14" d="M190.7,322.7c-.7,0-1.1,0-1.4.2s-.4.4-.4.8,0,.5.3.7c.2.2.4.3.8.3s.8-.2,1.1-.5.4-.7.4-1.3v-.2h-.8ZM192.3,322.3v2.8h-.8v-.7c-.2.3-.4.5-.7.7-.3.1-.6.2-1,.2s-.9-.1-1.2-.4c-.3-.3-.4-.7-.4-1.1s.2-1,.6-1.3.9-.4,1.7-.4h1.1c0-.5,0-.7-.4-.9s-.6-.3-1-.3-.6,0-.8.1c-.3,0-.5.2-.8.3v-.7c.3-.1.6-.2.9-.3h.8c.7,0,1.2.2,1.6.6s.5.9.5,1.7v-.3Z"/>
          <path id="DejaVuSans-63" d="M197.5,320.4v.8c-.2-.1-.5-.2-.7-.3s-.5,0-.7,0c-.5,0-.9.2-1.2.5-.3.3-.4.8-.4,1.4s0,1.1.4,1.4.7.5,1.2.5h.7c.2,0,.5-.2.7-.3v.7c-.2.1-.5.2-.7.2h-.8c-.7,0-1.3-.2-1.8-.7-.4-.5-.7-1.1-.7-1.9s.2-1.4.7-1.9c.4-.5,1-.7,1.8-.7s.5,0,.7,0,.5.1.7.2h.1Z"/>
          <path id="DejaVuSans-68-3" d="M203,322.2v3h-.8v-2.9c0-.5,0-.8-.3-1-.2-.2-.5-.3-.8-.3s-.8.1-1,.4c-.3.3-.4.7-.4,1.1v2.8h-.8v-6.8h.8v2.7c.2-.3.4-.5.7-.7.3-.1.6-.2.9-.2.6,0,1,.2,1.3.5s.4.9.4,1.5h0Z"/>
          <path id="DejaVuSans-20-47" d="M203.7,325.1"/>
          <path id="DejaVuSans-61-15" d="M209.7,322.7c-.7,0-1.1,0-1.4.2s-.4.4-.4.8,0,.5.3.7c.2.2.4.3.8.3s.8-.2,1.1-.5.4-.7.4-1.3v-.2h-.8ZM211.3,322.3v2.8h-.8v-.7c-.2.3-.4.5-.7.7-.3.1-.6.2-1,.2s-.9-.1-1.2-.4c-.3-.3-.4-.7-.4-1.1s.2-1,.6-1.3.9-.4,1.7-.4h1.1c0-.5,0-.7-.4-.9s-.6-.3-1-.3-.6,0-.8.1c-.3,0-.5.2-.8.3v-.7c.3-.1.6-.2.9-.3h.8c.7,0,1.2.2,1.6.6s.5.9.5,1.7v-.3Z"/>
          <path id="DejaVuSans-78-10" d="M217.1,320.2l-1.8,2.4,1.9,2.5h-1l-1.4-1.9-1.4,1.9h-1l1.9-2.6-1.7-2.3h1l1.3,1.8,1.3-1.8h1-.1Z"/>
          <path id="DejaVuSans-69-23" d="M218.3,320.2h.8v4.9h-.8v-4.9ZM218.3,318.3h.8v1h-.8v-1Z"/>
          <path id="DejaVuSans-73-21" d="M223.9,320.3v.8c-.2-.1-.5-.2-.7-.3h-.8c-.4,0-.7,0-.9.2-.2.1-.3.3-.3.6s0,.3.2.4.4.2.9.3h.3c.6.2,1,.4,1.2.6s.4.5.4.9-.2.8-.5,1.1c-.4.3-.9.4-1.5.4h-.8c-.3,0-.6-.1-.9-.2v-.8c.3.2.6.3.9.4.3,0,.6.1.9.1s.7,0,.9-.2c.2-.1.3-.3.3-.6s0-.4-.2-.5c0-.1-.5-.2-1-.3h-.3c-.5-.2-.9-.3-1.1-.6-.2-.2-.3-.5-.3-.9s.2-.8.5-1.1c.3-.3.8-.4,1.4-.4h.8c.3,0,.5.1.7.2h0Z"/>
          <path id="DejaVuSans-20-48" d="M224.6,325.1"/>
          <path id="DejaVuSans-69-24" d="M228.3,320.2h.8v4.9h-.8v-4.9ZM228.3,318.3h.8v1h-.8v-1Z"/>
          <path id="DejaVuSans-73-22" d="M234,320.3v.8c-.2-.1-.5-.2-.7-.3h-.8c-.4,0-.7,0-.9.2-.2.1-.3.3-.3.6s0,.3.2.4.4.2.9.3h.3c.6.2,1,.4,1.2.6s.4.5.4.9-.2.8-.5,1.1c-.4.3-.9.4-1.5.4h-.8c-.3,0-.6-.1-.9-.2v-.8c.3.2.6.3.9.4.3,0,.6.1.9.1s.7,0,.9-.2c.2-.1.3-.3.3-.6s0-.4-.2-.5c0-.1-.5-.2-1-.3h-.3c-.5-.2-.9-.3-1.1-.6-.2-.2-.3-.5-.3-.9s.2-.8.5-1.1c.3-.3.8-.4,1.4-.4h.8c.3,0,.5.1.7.2h0Z"/>
          <path id="DejaVuSans-20-49" d="M234.7,325.1"/>
          <path id="DejaVuSans-71" d="M238.9,322.7c0,.6.1,1.1.4,1.4.2.3.6.5,1,.5s.8-.2,1-.5.4-.8.4-1.4-.1-1.1-.4-1.4c-.2-.3-.6-.5-1-.5s-.8.2-1,.5-.4.8-.4,1.4ZM241.6,324.4c-.2.3-.4.5-.6.7-.3.1-.6.2-.9.2-.6,0-1.1-.2-1.5-.7s-.6-1.1-.6-1.9.2-1.4.6-1.9c.4-.5.9-.7,1.5-.7s.7,0,.9.2c.3.1.5.4.6.7v-.7h.8v6.8h-.8v-2.6h0Z"/>
          <path id="DejaVuSans-75-7" d="M244,323.2v-3h.8v2.9c0,.5,0,.8.3,1,.2.2.5.3.8.3s.8-.1,1-.4c.3-.3.4-.7.4-1.1v-2.8h.8v4.9h-.8v-.8c-.2.3-.4.5-.7.7-.3.1-.6.2-.9.2-.6,0-1-.2-1.3-.5-.3-.4-.4-.9-.4-1.5h0ZM246.1,320.1h0Z"/>
          <path id="DejaVuSans-61-16" d="M252,322.7c-.7,0-1.1,0-1.4.2s-.4.4-.4.8,0,.5.3.7c.2.2.4.3.8.3s.8-.2,1.1-.5.4-.7.4-1.3v-.2h-.8ZM253.7,322.3v2.8h-.8v-.7c-.2.3-.4.5-.7.7-.3.1-.6.2-1,.2s-.9-.1-1.2-.4-.4-.7-.4-1.1.2-1,.6-1.3c.4-.3.9-.4,1.7-.4h1.1c0-.5-.1-.7-.4-.9s-.6-.3-1-.3-.6,0-.8.1c-.3,0-.5.2-.8.3v-.7c.3-.1.6-.2.9-.3h.8c.7,0,1.2.2,1.6.6.4.4.5.9.5,1.7v-.3Z"/>
          <path id="DejaVuSans-6e-13" d="M259.4,322.2v3h-.8v-2.9c0-.5,0-.8-.3-1-.2-.2-.5-.3-.8-.3s-.8.1-1,.4c-.3.3-.4.7-.4,1.1v2.8h-.8v-4.9h.8v.8c.2-.3.4-.5.7-.7.3-.1.6-.2.9-.2.6,0,1,.2,1.3.5s.4.9.4,1.5h0Z"/>
          <path id="DejaVuSans-74-13" d="M261.8,318.8v1.4h1.7v.6h-1.7v2.7c0,.4,0,.7.2.8s.3.2.7.2h.8v.7h-.8c-.6,0-1.1-.1-1.3-.3-.2-.2-.4-.7-.4-1.3v-2.7h-.6v-.6h.6v-1.4h.8Z"/>
          <path id="DejaVuSans-69-25" d="M264.6,320.2h.8v4.9h-.8v-4.9ZM264.6,318.3h.8v1h-.8v-1Z"/>
          <path id="DejaVuSans-66-2" d="M269.6,318.3v.7h-.8c-.3,0-.5,0-.6.2-.1.1-.2.3-.2.6v.4h1.3v.6h-1.3v4.3h-.8v-4.3h-.8v-.6h.8v-.3c0-.5.1-.9.4-1.2.3-.3.7-.4,1.2-.4h.8Z"/>
          <path id="DejaVuSans-69-26" d="M270.2,320.2h.8v4.9h-.8v-4.9ZM270.2,318.3h.8v1h-.8v-1Z"/>
          <path id="DejaVuSans-65-23" d="M276.9,322.5v.4h-3.7c0,.6.2,1,.5,1.3s.7.4,1.3.4.6,0,.9-.1.6-.2.9-.3v.8c-.3.1-.6.2-.9.3s-.6,0-.9,0c-.8,0-1.4-.2-1.9-.7s-.7-1.1-.7-1.9.2-1.4.7-1.9c.4-.5,1-.7,1.8-.7s1.2.2,1.6.6c.4.4.6,1,.6,1.7h-.2ZM276.1,322.2c0-.4-.1-.8-.4-1.1-.2-.3-.6-.4-1-.4s-.8.1-1.1.4-.4.6-.5,1.1h3Z"/>
          <path id="DejaVuSans-64-13" d="M281.5,321v-2.7h.8v6.8h-.8v-.7c-.2.3-.4.5-.6.7-.3.1-.6.2-.9.2-.6,0-1.1-.2-1.5-.7s-.6-1.1-.6-1.9.2-1.4.6-1.9c.4-.5.9-.7,1.5-.7s.7,0,.9.2c.3.1.5.4.6.7ZM278.7,322.7c0,.6.1,1.1.4,1.4.2.3.6.5,1,.5s.8-.2,1-.5.4-.8.4-1.4-.1-1.1-.4-1.4c-.2-.3-.6-.5-1-.5s-.8.2-1,.5-.4.8-.4,1.4Z"/>
          <path id="DejaVuSans-20-50" d="M283.1,325.1"/>
          <path id="DejaVuSans-62" d="M290.4,322.7c0-.6-.1-1.1-.4-1.4s-.6-.5-1-.5-.8.2-1,.5-.4.8-.4,1.4.1,1.1.4,1.4c.2.3.6.5,1,.5s.8-.2,1-.5.4-.8.4-1.4ZM287.6,321c.2-.3.4-.5.6-.7.3-.1.6-.2.9-.2.6,0,1.1.2,1.5.7s.6,1.1.6,1.9-.2,1.4-.6,1.9c-.4.5-.9.7-1.5.7s-.7,0-.9-.2c-.3-.1-.5-.4-.6-.7v.7h-.8v-6.8h.8v2.7Z"/>
          <path id="DejaVuSans-79-10" d="M294.6,325.6c-.2.6-.5,1-.7,1.1-.2.2-.5.3-.9.3h-.6v-.7h.5c.2,0,.4,0,.5-.2.1-.1.3-.4.4-.7v-.4c.1,0-1.8-4.8-1.8-4.8h.9l1.5,3.8,1.5-3.8h.9l-2.2,5.4h0Z"/>
          <path id="DejaVuSans-20-51" d="M297,325.1"/>
          <path id="DejaVuSans-62-2" d="M304.3,322.7c0-.6-.1-1.1-.4-1.4s-.6-.5-1-.5-.8.2-1,.5-.4.8-.4,1.4.1,1.1.4,1.4c.2.3.6.5,1,.5s.8-.2,1-.5.4-.8.4-1.4ZM301.5,321c.2-.3.4-.5.6-.7.3-.1.6-.2.9-.2.6,0,1.1.2,1.5.7s.6,1.1.6,1.9-.2,1.4-.6,1.9c-.4.5-.9.7-1.5.7s-.7,0-.9-.2c-.3-.1-.5-.4-.6-.7v.7h-.8v-6.8h.8v2.7Z"/>
          <path id="DejaVuSans-6f-16" d="M308.4,320.8c-.4,0-.8.2-1,.5s-.4.8-.4,1.4.1,1.1.4,1.4c.3.3.6.5,1,.5s.8-.2,1-.5c.3-.3.4-.8.4-1.4s-.1-1-.4-1.4c-.3-.3-.6-.5-1-.5ZM308.4,320.1c.7,0,1.3.2,1.7.7s.6,1.1.6,1.9-.2,1.4-.6,1.9c-.4.5-1,.7-1.7.7s-1.3-.2-1.7-.7-.6-1.1-.6-1.9.2-1.4.6-1.9c.4-.5,1-.7,1.7-.7Z"/>
          <path id="DejaVuSans-74-14" d="M312.8,318.8v1.4h1.7v.6h-1.7v2.7c0,.4,0,.7.2.8s.3.2.7.2h.8v.7h-.8c-.6,0-1.1-.1-1.3-.3-.2-.2-.4-.7-.4-1.3v-2.7h-.6v-.6h.6v-1.4h.8Z"/>
          <path id="DejaVuSans-68-4" d="M319.6,322.2v3h-.8v-2.9c0-.5,0-.8-.3-1-.2-.2-.5-.3-.8-.3s-.8.1-1,.4c-.3.3-.4.7-.4,1.1v2.8h-.8v-6.8h.8v2.7c.2-.3.4-.5.7-.7.3-.1.6-.2.9-.2.6,0,1,.2,1.3.5s.4.9.4,1.5h0Z"/>
          <path id="DejaVuSans-20-52" d="M320.3,325.1"/>
          <path id="DejaVuSans-74-15" d="M324.9,318.8v1.4h1.7v.6h-1.7v2.7c0,.4,0,.7.2.8s.3.2.7.2h.8v.7h-.8c-.6,0-1.1-.1-1.3-.3-.2-.2-.4-.7-.4-1.3v-2.7h-.6v-.6h.6v-1.4h.8Z"/>
          <path id="DejaVuSans-72-10" d="M330.4,321s-.2,0-.3-.1h-.4c-.5,0-.8.1-1.1.4s-.4.7-.4,1.3v2.6h-.8v-4.9h.8v.8c.2-.3.4-.5.7-.7.3-.1.6-.2,1-.2s.1,0,.2,0h.2v.8h.1Z"/>
          <path id="DejaVuSans-61-17" d="M333.5,322.7c-.7,0-1.1,0-1.4.2s-.4.4-.4.8,0,.5.3.7c.2.2.4.3.8.3s.8-.2,1.1-.5.4-.7.4-1.3v-.2h-.8ZM335.1,322.3v2.8h-.8v-.7c-.2.3-.4.5-.7.7-.3.1-.6.2-1,.2s-.9-.1-1.2-.4-.4-.7-.4-1.1.2-1,.6-1.3c.4-.3.9-.4,1.7-.4h1.1c0-.5-.1-.7-.4-.9s-.6-.3-1-.3-.6,0-.8.1c-.3,0-.5.2-.8.3v-.7c.3-.1.6-.2.9-.3h.8c.7,0,1.2.2,1.6.6.4.4.5.9.5,1.7v-.3Z"/>
          <path id="DejaVuSans-6e-14" d="M340.9,322.2v3h-.8v-2.9c0-.5,0-.8-.3-1-.2-.2-.5-.3-.8-.3s-.8.1-1,.4c-.3.3-.4.7-.4,1.1v2.8h-.8v-4.9h.8v.8c.2-.3.4-.5.7-.7.3-.1.6-.2.9-.2.6,0,1,.2,1.3.5s.4.9.4,1.5h0Z"/>
          <path id="DejaVuSans-73-23" d="M345.6,320.3v.8c-.2-.1-.5-.2-.7-.3h-.8c-.4,0-.7,0-.9.2-.2.1-.3.3-.3.6s0,.3.2.4.4.2.9.3h.3c.6.2,1,.4,1.2.6s.4.5.4.9-.2.8-.5,1.1c-.4.3-.9.4-1.5.4h-.8c-.3,0-.6-.1-.9-.2v-.8c.3.2.6.3.9.4.3,0,.6.1.9.1s.7,0,.9-.2c.2-.1.3-.3.3-.6s0-.4-.2-.5c-.1-.1-.5-.2-1-.3h-.3c-.5-.2-.9-.3-1.1-.6-.2-.2-.3-.5-.3-.9s.2-.8.5-1.1c.3-.3.8-.4,1.4-.4h.8c.3,0,.5.1.7.2h0Z"/>
          <path id="DejaVuSans-63-2" d="M350.7,320.4v.8c-.2-.1-.5-.2-.7-.3s-.5,0-.7,0c-.5,0-.9.2-1.2.5s-.4.8-.4,1.4.1,1.1.4,1.4c.3.3.7.5,1.2.5h.7c.2,0,.5-.2.7-.3v.7c-.2.1-.5.2-.7.2h-.8c-.7,0-1.3-.2-1.8-.7-.4-.5-.7-1.1-.7-1.9s.2-1.4.7-1.9c.4-.5,1-.7,1.8-.7s.5,0,.7,0,.5.1.7.2h.1Z"/>
          <path id="DejaVuSans-72-11" d="M355,321s-.2,0-.3-.1h-.4c-.5,0-.8.1-1.1.4s-.4.7-.4,1.3v2.6h-.8v-4.9h.8v.8c.2-.3.4-.5.7-.7.3-.1.6-.2,1-.2s.1,0,.2,0h.2v.8h.1Z"/>
          <path id="DejaVuSans-69-27" d="M355.8,320.2h.8v4.9h-.8v-4.9ZM355.8,318.3h.8v1h-.8v-1Z"/>
          <path id="DejaVuSans-70-11" d="M359.1,324.4v2.6h-.8v-6.8h.8v.7c.2-.3.4-.5.6-.7.3-.1.6-.2.9-.2.6,0,1.1.2,1.5.7s.6,1.1.6,1.9-.2,1.4-.6,1.9c-.4.5-.9.7-1.5.7s-.7,0-.9-.2c-.3-.1-.5-.4-.6-.7h0ZM361.9,322.7c0-.6-.1-1.1-.4-1.4s-.6-.5-1-.5-.8.2-1,.5-.4.8-.4,1.4.1,1.1.4,1.4c.2.3.6.5,1,.5s.8-.2,1-.5.4-.8.4-1.4Z"/>
          <path id="DejaVuSans-74-16" d="M364.9,318.8v1.4h1.7v.6h-1.7v2.7c0,.4,0,.7.2.8s.3.2.7.2h.8v.7h-.8c-.6,0-1.1-.1-1.3-.3-.2-.2-.4-.7-.4-1.3v-2.7h-.6v-.6h.6v-1.4h.8,0Z"/>
          <path id="DejaVuSans-69-28" d="M367.6,320.2h.8v4.9h-.8v-4.9ZM367.6,318.3h.8v1h-.8v-1Z"/>
          <path id="DejaVuSans-6f-17" d="M372,320.8c-.4,0-.8.2-1,.5s-.4.8-.4,1.4.1,1.1.4,1.4.6.5,1,.5.8-.2,1-.5c.3-.3.4-.8.4-1.4s-.1-1-.4-1.4c-.3-.3-.6-.5-1-.5ZM372,320.1c.7,0,1.3.2,1.7.7.4.5.6,1.1.6,1.9s-.2,1.4-.6,1.9-1,.7-1.7.7-1.3-.2-1.7-.7c-.4-.5-.6-1.1-.6-1.9s.2-1.4.6-1.9,1-.7,1.7-.7Z"/>
          <path id="DejaVuSans-6e-15" d="M379.7,322.2v3h-.8v-2.9c0-.5,0-.8-.3-1-.2-.2-.5-.3-.8-.3s-.8.1-1,.4c-.3.3-.4.7-.4,1.1v2.8h-.8v-4.9h.8v.8c.2-.3.4-.5.7-.7.3-.1.6-.2.9-.2.6,0,1,.2,1.3.5s.4.9.4,1.5h0Z"/>
          <path id="DejaVuSans-61-18" d="M383.5,322.7c-.7,0-1.1,0-1.4.2s-.4.4-.4.8,0,.5.3.7c.2.2.4.3.8.3s.8-.2,1.1-.5.4-.7.4-1.3v-.2h-.8ZM385.1,322.3v2.8h-.8v-.7c-.2.3-.4.5-.7.7-.3.1-.6.2-1,.2s-.9-.1-1.2-.4c-.3-.3-.4-.7-.4-1.1s.2-1,.6-1.3.9-.4,1.7-.4h1.1c0-.5-.1-.7-.4-.9s-.6-.3-1-.3-.6,0-.8.1c-.3,0-.5.2-.8.3v-.7c.3-.1.6-.2.9-.3h.8c.7,0,1.2.2,1.6.6s.5.9.5,1.7v-.3Z"/>
          <path id="DejaVuSans-6c-6" d="M386.8,318.3h.8v6.8h-.8v-6.8Z"/>
          <path id="DejaVuSans-20-53" d="M388.5,325.1"/>
          <path id="DejaVuSans-61-19" d="M394.4,322.7c-.7,0-1.1,0-1.4.2s-.4.4-.4.8,0,.5.3.7c.2.2.4.3.8.3s.8-.2,1.1-.5.4-.7.4-1.3v-.2h-.8ZM396,322.3v2.8h-.8v-.7c-.2.3-.4.5-.7.7-.3.1-.6.2-1,.2s-.9-.1-1.2-.4c-.3-.3-.4-.7-.4-1.1s.2-1,.6-1.3.9-.4,1.7-.4h1.1c0-.5-.1-.7-.4-.9s-.6-.3-1-.3-.6,0-.8.1c-.3,0-.5.2-.8.3v-.7c.3-.1.6-.2.9-.3h.8c.7,0,1.2.2,1.6.6s.5.9.5,1.7v-.3Z"/>
          <path id="DejaVuSans-6e-16" d="M401.8,322.2v3h-.8v-2.9c0-.5,0-.8-.3-1-.2-.2-.5-.3-.8-.3s-.8.1-1,.4c-.3.3-.4.7-.4,1.1v2.8h-.8v-4.9h.8v.8c.2-.3.4-.5.7-.7.3-.1.6-.2.9-.2.6,0,1,.2,1.3.5s.4.9.4,1.5h0Z"/>
          <path id="DejaVuSans-64-14" d="M406.6,321v-2.7h.8v6.8h-.8v-.7c-.2.3-.4.5-.6.7-.3.1-.6.2-.9.2-.6,0-1.1-.2-1.5-.7s-.6-1.1-.6-1.9.2-1.4.6-1.9.9-.7,1.5-.7.7,0,.9.2c.3.1.5.4.6.7ZM403.9,322.7c0,.6.1,1.1.4,1.4.2.3.6.5,1,.5s.8-.2,1-.5.4-.8.4-1.4-.1-1.1-.4-1.4c-.2-.3-.6-.5-1-.5s-.8.2-1,.5-.4.8-.4,1.4Z"/>
          <path id="DejaVuSans-20-54" d="M408.3,325.1"/>
          <path id="DejaVuSans-6c-7" d="M412,318.3h.8v6.8h-.8v-6.8Z"/>
          <path id="DejaVuSans-69-29" d="M414.5,320.2h.8v4.9h-.8v-4.9ZM414.5,318.3h.8v1h-.8v-1Z"/>
          <path id="DejaVuSans-70-12" d="M417.7,324.4v2.6h-.8v-6.8h.8v.7c.2-.3.4-.5.6-.7.3-.1.6-.2.9-.2.6,0,1.1.2,1.5.7s.6,1.1.6,1.9-.2,1.4-.6,1.9-.9.7-1.5.7-.7,0-.9-.2c-.3-.1-.5-.4-.6-.7h0ZM420.5,322.7c0-.6-.1-1.1-.4-1.4s-.6-.5-1-.5-.8.2-1,.5-.4.8-.4,1.4.1,1.1.4,1.4c.2.3.6.5,1,.5s.8-.2,1-.5.4-.8.4-1.4Z"/>
          <path id="DejaVuSans-69-30" d="M422.7,320.2h.8v4.9h-.8v-4.9ZM422.7,318.3h.8v1h-.8v-1Z"/>
          <path id="DejaVuSans-64-15" d="M428.4,321v-2.7h.8v6.8h-.8v-.7c-.2.3-.4.5-.6.7-.3.1-.6.2-.9.2-.6,0-1.1-.2-1.5-.7s-.6-1.1-.6-1.9.2-1.4.6-1.9.9-.7,1.5-.7.7,0,.9.2c.3.1.5.4.6.7ZM425.7,322.7c0,.6.1,1.1.4,1.4.2.3.6.5,1,.5s.8-.2,1-.5.4-.8.4-1.4-.1-1.1-.4-1.4c-.2-.3-.6-.5-1-.5s-.8.2-1,.5-.4.8-.4,1.4Z"/>
          <path id="DejaVuSans-6f-18" d="M432.8,320.8c-.4,0-.8.2-1,.5s-.4.8-.4,1.4.1,1.1.4,1.4.6.5,1,.5.8-.2,1-.5c.3-.3.4-.8.4-1.4s-.1-1-.4-1.4c-.3-.3-.6-.5-1-.5ZM432.8,320.1c.7,0,1.3.2,1.7.7.4.5.6,1.1.6,1.9s-.2,1.4-.6,1.9-1,.7-1.7.7-1.3-.2-1.7-.7c-.4-.5-.6-1.1-.6-1.9s.2-1.4.6-1.9,1-.7,1.7-.7Z"/>
          <path id="DejaVuSans-6d-5" d="M440.2,321.1c.2-.4.4-.6.7-.8s.6-.3,1-.3.9.2,1.2.5c.3.4.4.9.4,1.5v3h-.8v-2.9c0-.5,0-.8-.3-1-.2-.2-.4-.3-.8-.3s-.8.1-1,.4-.4.7-.4,1.1v2.8h-.8v-2.9c0-.5,0-.8-.3-1.1s-.4-.3-.8-.3-.7.1-1,.4c-.2.3-.4.7-.4,1.1v2.8h-.8v-4.9h.8v.8c.2-.3.4-.5.7-.7s.6-.2.9-.2.7,0,.9.3c.3.2.4.4.6.8h.2Z"/>
          <path id="DejaVuSans-69-31" d="M445.2,320.2h.8v4.9h-.8v-4.9ZM445.2,318.3h.8v1h-.8v-1Z"/>
          <path id="DejaVuSans-63-3" d="M451.2,320.4v.8c-.2-.1-.5-.2-.7-.3s-.5,0-.7,0c-.5,0-.9.2-1.2.5-.3.3-.4.8-.4,1.4s.1,1.1.4,1.4.7.5,1.2.5h.7c.2,0,.5-.2.7-.3v.7c-.2.1-.5.2-.7.2h-.8c-.7,0-1.3-.2-1.8-.7-.4-.5-.7-1.1-.7-1.9s.2-1.4.7-1.9c.4-.5,1-.7,1.8-.7s.5,0,.7,0,.5.1.7.2h0Z"/>
          <path id="DejaVuSans-20-55" d="M451.8,325.1"/>
          <path id="DejaVuSans-72-12" d="M458.3,321s-.2,0-.3-.1h-.4c-.5,0-.8.1-1.1.4s-.4.7-.4,1.3v2.6h-.8v-4.9h.8v.8c.2-.3.4-.5.7-.7.3-.1.6-.2,1-.2s.1,0,.2,0h.2v.8h0Z"/>
          <path id="DejaVuSans-65-24" d="M463.2,322.5v.4h-3.7c0,.6.2,1,.5,1.3s.7.4,1.3.4.6,0,.9-.1.6-.2.9-.3v.8c-.3.1-.6.2-.9.3s-.6,0-.9,0c-.8,0-1.4-.2-1.9-.7s-.7-1.1-.7-1.9.2-1.4.7-1.9c.4-.5,1-.7,1.8-.7s1.2.2,1.6.6.6,1,.6,1.7h-.2ZM462.4,322.2c0-.4-.1-.8-.4-1.1-.2-.3-.6-.4-1-.4s-.8.1-1.1.4-.4.6-.5,1.1h3Z"/>
          <path id="DejaVuSans-61-20" d="M466.7,322.7c-.7,0-1.1,0-1.4.2s-.4.4-.4.8,0,.5.3.7c.2.2.4.3.8.3s.8-.2,1.1-.5.4-.7.4-1.3v-.2h-.8ZM468.4,322.3v2.8h-.8v-.7c-.2.3-.4.5-.7.7-.3.1-.6.2-1,.2s-.9-.1-1.2-.4c-.3-.3-.4-.7-.4-1.1s.2-1,.6-1.3.9-.4,1.7-.4h1.1c0-.5-.1-.7-.4-.9s-.6-.3-1-.3-.6,0-.8.1c-.3,0-.5.2-.8.3v-.7c.3-.1.6-.2.9-.3h.8c.7,0,1.2.2,1.6.6s.5.9.5,1.7v-.3Z"/>
          <path id="DejaVuSans-64-16" d="M473.3,321v-2.7h.8v6.8h-.8v-.7c-.2.3-.4.5-.6.7-.3.1-.6.2-.9.2-.6,0-1.1-.2-1.5-.7s-.6-1.1-.6-1.9.2-1.4.6-1.9.9-.7,1.5-.7.7,0,.9.2c.3.1.5.4.6.7ZM470.5,322.7c0,.6.1,1.1.4,1.4.2.3.6.5,1,.5s.8-.2,1-.5.4-.8.4-1.4-.1-1.1-.4-1.4c-.2-.3-.6-.5-1-.5s-.8.2-1,.5-.4.8-.4,1.4Z"/>
          <path id="DejaVuSans-6f-19" d="M477.6,320.8c-.4,0-.8.2-1,.5s-.4.8-.4,1.4.1,1.1.4,1.4.6.5,1,.5.8-.2,1-.5c.3-.3.4-.8.4-1.4s-.1-1-.4-1.4c-.3-.3-.6-.5-1-.5ZM477.6,320.1c.7,0,1.3.2,1.7.7.4.5.6,1.1.6,1.9s-.2,1.4-.6,1.9-1,.7-1.7.7-1.3-.2-1.7-.7c-.4-.5-.6-1.1-.6-1.9s.2-1.4.6-1.9,1-.7,1.7-.7Z"/>
          <path id="DejaVuSans-75-8" d="M481.2,323.2v-3h.8v2.9c0,.5,0,.8.3,1,.2.2.5.3.8.3s.8-.1,1-.4c.3-.3.4-.7.4-1.1v-2.8h.8v4.9h-.8v-.8c-.2.3-.4.5-.7.7-.3.1-.6.2-.9.2-.6,0-1-.2-1.3-.5-.3-.4-.4-.9-.4-1.5h0ZM483.2,320.1h0Z"/>
          <path id="DejaVuSans-74-17" d="M487.7,318.8v1.4h1.7v.6h-1.7v2.7c0,.4,0,.7.2.8s.3.2.7.2h.8v.7h-.8c-.6,0-1.1-.1-1.3-.3s-.4-.7-.4-1.3v-2.7h-.6v-.6h.6v-1.4h.8,0Z"/>
          <path id="DejaVuSans-73-24" d="M493.6,320.3v.8c-.2-.1-.5-.2-.7-.3h-.8c-.4,0-.7,0-.9.2-.2.1-.3.3-.3.6s0,.3.2.4.4.2.9.3h.3c.6.2,1,.4,1.2.6s.4.5.4.9-.2.8-.5,1.1c-.4.3-.9.4-1.5.4h-.8c-.3,0-.6-.1-.9-.2v-.8c.3.2.6.3.9.4.3,0,.6.1.9.1s.7,0,.9-.2c.2-.1.3-.3.3-.6s0-.4-.2-.5c-.1-.1-.5-.2-1-.3h-.3c-.5-.2-.9-.3-1.1-.6-.2-.2-.3-.5-.3-.9s.2-.8.5-1.1c.3-.3.8-.4,1.4-.4h.8c.3,0,.5.1.7.2h-.1Z"/>
          <path id="DejaVuSans-2c-11" d="M495.4,324h.9v.8l-.7,1.4h-.6l.4-1.4v-.8h0Z"/>
        </g>
        <g>
          <path id="DejaVuSans-79-11" d="M229.4,335.7c-.2.6-.5,1-.7,1.1-.2.2-.5.3-.9.3h-.6v-.7h.5c.2,0,.4,0,.5-.2,0-.1.3-.4.4-.7v-.4c0,0-1.8-4.8-1.8-4.8h.9l1.5,3.8,1.5-3.8h.9l-2.2,5.4h0Z"/>
          <path id="DejaVuSans-69-32" d="M232.7,330.3h.8v4.9h-.8v-4.9ZM232.7,328.4h.8v1h-.8v-1Z"/>
          <path id="DejaVuSans-65-25" d="M239.4,332.5v.4h-3.7c0,.6.2,1,.5,1.3s.7.4,1.3.4.6,0,.9-.1.6-.2.9-.3v.8c-.3.1-.6.2-.9.3s-.6,0-.9,0c-.8,0-1.4-.2-1.9-.7s-.7-1.1-.7-1.9.2-1.4.7-1.9c.4-.5,1-.7,1.8-.7s1.2.2,1.6.6c.4.4.6,1,.6,1.7h-.2ZM238.6,332.3c0-.4-.1-.8-.4-1.1-.2-.3-.6-.4-1-.4s-.8.1-1.1.4-.4.6-.5,1.1h3Z"/>
          <path id="DejaVuSans-6c-8" d="M240.7,328.4h.8v6.8h-.8v-6.8Z"/>
          <path id="DejaVuSans-64-17" d="M246.4,331v-2.7h.8v6.8h-.8v-.7c-.2.3-.4.5-.6.7-.3.1-.6.2-.9.2-.6,0-1.1-.2-1.5-.7s-.6-1.1-.6-1.9.2-1.4.6-1.9c.4-.5.9-.7,1.5-.7s.7,0,.9.2c.3.1.5.4.6.7ZM243.7,332.7c0,.6.1,1.1.4,1.4.2.3.6.5,1,.5s.8-.2,1-.5.4-.8.4-1.4-.1-1.1-.4-1.4c-.2-.3-.6-.5-1-.5s-.8.2-1,.5-.4.8-.4,1.4Z"/>
          <path id="DejaVuSans-69-33" d="M248.9,330.3h.8v4.9h-.8v-4.9ZM248.9,328.4h.8v1h-.8v-1Z"/>
          <path id="DejaVuSans-6e-17" d="M255.5,332.2v3h-.8v-2.9c0-.5,0-.8-.3-1-.2-.2-.5-.3-.8-.3s-.8.1-1,.4c-.3.3-.4.7-.4,1.1v2.8h-.8v-4.9h.8v.8c.2-.3.4-.5.7-.7.3-.1.6-.2.9-.2.6,0,1,.2,1.3.5s.4.9.4,1.5h0Z"/>
          <path id="DejaVuSans-67-7" d="M260.4,332.7c0-.6-.1-1-.4-1.4-.2-.3-.6-.5-1-.5s-.8.2-1,.5-.4.8-.4,1.4.1,1,.4,1.4c.2.3.6.5,1,.5s.8-.2,1-.5.4-.8.4-1.4ZM261.2,334.6c0,.8-.2,1.5-.6,1.9-.4.4-.9.6-1.7.6h-.8c-.2,0-.5-.1-.7-.2v-.8c.2.1.5.2.7.3h.7c.5,0,.9-.1,1.2-.4s.4-.7.4-1.3v-.4c-.2.3-.4.5-.6.7s-.6.2-.9.2c-.6,0-1.1-.2-1.5-.7s-.6-1.1-.6-1.8.2-1.4.6-1.8c.4-.5.9-.7,1.5-.7s.7,0,.9.2.5.4.6.6v-.7h.8v4.3h0Z"/>
          <path id="DejaVuSans-20-56" d="M262,335.2"/>
          <path id="DejaVuSans-61-21" d="M267.9,332.7c-.7,0-1.1,0-1.4.2s-.4.4-.4.8,0,.5.3.7c.2.2.4.3.8.3s.8-.2,1.1-.5.4-.7.4-1.3v-.2h-.8ZM269.5,332.4v2.8h-.8v-.7c-.2.3-.4.5-.7.7-.3.1-.6.2-1,.2s-.9-.1-1.2-.4-.4-.7-.4-1.1.2-1,.6-1.3c.4-.3.9-.4,1.7-.4h1.1c0-.5-.1-.7-.4-.9s-.6-.3-1-.3-.6,0-.8.1c-.3,0-.5.2-.8.3v-.7c.3-.1.6-.2.9-.3h.8c.7,0,1.2.2,1.6.6.4.4.5.9.5,1.7v-.3Z"/>
          <path id="DejaVuSans-20-57" d="M270.4,335.2"/>
          <path id="DejaVuSans-64-18" d="M277.3,331v-2.7h.8v6.8h-.8v-.7c-.2.3-.4.5-.6.7-.3.1-.6.2-.9.2-.6,0-1.1-.2-1.5-.7s-.6-1.1-.6-1.9.2-1.4.6-1.9c.4-.5.9-.7,1.5-.7s.7,0,.9.2c.3.1.5.4.6.7ZM274.6,332.7c0,.6.1,1.1.4,1.4.2.3.6.5,1,.5s.8-.2,1-.5.4-.8.4-1.4-.1-1.1-.4-1.4c-.2-.3-.6-.5-1-.5s-.8.2-1,.5-.4.8-.4,1.4Z"/>
          <path id="DejaVuSans-69-34" d="M279.8,330.3h.8v4.9h-.8v-4.9ZM279.8,328.4h.8v1h-.8v-1Z"/>
          <path id="DejaVuSans-72-13" d="M285.1,331s-.2,0-.3-.1h-.4c-.5,0-.8.1-1.1.4s-.4.7-.4,1.3v2.6h-.8v-4.9h.8v.8c.2-.3.4-.5.7-.7.3-.1.6-.2,1-.2s.1,0,.2,0h.2v.8h.1Z"/>
          <path id="DejaVuSans-65-26" d="M290,332.5v.4h-3.7c0,.6.2,1,.5,1.3s.7.4,1.3.4.6,0,.9-.1.6-.2.9-.3v.8c-.3.1-.6.2-.9.3s-.6,0-.9,0c-.8,0-1.4-.2-1.9-.7s-.7-1.1-.7-1.9.2-1.4.7-1.9c.4-.5,1-.7,1.8-.7s1.2.2,1.6.6c.4.4.6,1,.6,1.7h-.2ZM289.2,332.3c0-.4-.1-.8-.4-1.1-.2-.3-.6-.4-1-.4s-.8.1-1.1.4-.4.6-.5,1.1h3Z"/>
          <path id="DejaVuSans-63-4" d="M294.9,330.5v.8c-.2-.1-.5-.2-.7-.3s-.5,0-.7,0c-.5,0-.9.2-1.2.5s-.4.8-.4,1.4.1,1.1.4,1.4c.3.3.7.5,1.2.5h.7c.2,0,.5-.2.7-.3v.7c-.2.1-.5.2-.7.2h-.8c-.7,0-1.3-.2-1.8-.7-.4-.5-.7-1.1-.7-1.9s.2-1.4.7-1.9c.4-.5,1-.7,1.8-.7s.5,0,.7,0,.5.1.7.2h.1Z"/>
          <path id="DejaVuSans-74-18" d="M297.1,328.9v1.4h1.7v.6h-1.7v2.7c0,.4,0,.7.2.8s.3.2.7.2h.8v.7h-.8c-.6,0-1.1-.1-1.3-.3-.2-.2-.4-.7-.4-1.3v-2.7h-.6v-.6h.6v-1.4h.8Z"/>
          <path id="DejaVuSans-69-35" d="M299.8,330.3h.8v4.9h-.8v-4.9ZM299.8,328.4h.8v1h-.8v-1Z"/>
          <path id="DejaVuSans-6f-20" d="M304.2,330.8c-.4,0-.8.2-1,.5s-.4.8-.4,1.4.1,1.1.4,1.4c.3.3.6.5,1,.5s.8-.2,1-.5c.3-.3.4-.8.4-1.4s-.1-1-.4-1.4c-.3-.3-.6-.5-1-.5ZM304.2,330.2c.7,0,1.3.2,1.7.7s.6,1.1.6,1.9-.2,1.4-.6,1.9c-.4.5-1,.7-1.7.7s-1.3-.2-1.7-.7-.6-1.1-.6-1.9.2-1.4.6-1.9c.4-.5,1-.7,1.7-.7Z"/>
          <path id="DejaVuSans-6e-18" d="M311.9,332.2v3h-.8v-2.9c0-.5,0-.8-.3-1-.2-.2-.5-.3-.8-.3s-.8.1-1,.4c-.3.3-.4.7-.4,1.1v2.8h-.8v-4.9h.8v.8c.2-.3.4-.5.7-.7.3-.1.6-.2.9-.2.6,0,1,.2,1.3.5s.4.9.4,1.5h0Z"/>
          <path id="DejaVuSans-61-22" d="M315.7,332.7c-.7,0-1.1,0-1.4.2s-.4.4-.4.8,0,.5.3.7c.2.2.4.3.8.3s.8-.2,1.1-.5.4-.7.4-1.3v-.2h-.8ZM317.4,332.4v2.8h-.8v-.7c-.2.3-.4.5-.7.7-.3.1-.6.2-1,.2s-.9-.1-1.2-.4-.4-.7-.4-1.1.2-1,.6-1.3c.4-.3.9-.4,1.7-.4h1.1c0-.5-.1-.7-.4-.9s-.6-.3-1-.3-.6,0-.8.1c-.3,0-.5.2-.8.3v-.7c.3-.1.6-.2.9-.3h.8c.7,0,1.2.2,1.6.6.4.4.5.9.5,1.7v-.3Z"/>
          <path id="DejaVuSans-6c-9" d="M319,328.4h.8v6.8h-.8v-6.8Z"/>
          <path id="DejaVuSans-20-58" d="M320.7,335.2"/>
          <path id="DejaVuSans-5a-3" d="M324,328.6h5.2v.7l-4.1,5.1h4.2v.7h-5.4v-.7l4.1-5.1h-4v-.7Z"/>
          <path id="DejaVuSans-20-59" d="M329.7,335.2"/>
          <path id="DejaVuSans-73-25" d="M336.5,330.4v.8c-.2-.1-.5-.2-.7-.3h-.8c-.4,0-.7,0-.9.2-.2.1-.3.3-.3.6s0,.3.2.4.4.2.9.3h.3c.6.2,1,.4,1.2.6s.4.5.4.9-.2.8-.5,1.1c-.4.3-.9.4-1.5.4h-.8c-.3,0-.6-.1-.9-.2v-.8c.3.2.6.3.9.4.3,0,.6.1.9.1s.7,0,.9-.2c.2-.1.3-.3.3-.6s0-.4-.2-.5c-.1-.1-.5-.2-1-.3h-.3c-.5-.2-.9-.3-1.1-.6-.2-.2-.3-.5-.3-.9s.2-.8.5-1.1c.3-.3.8-.4,1.4-.4h.8c.3,0,.5.1.7.2h0Z"/>
          <path id="DejaVuSans-63-5" d="M341.6,330.5v.8c-.2-.1-.5-.2-.7-.3s-.5,0-.7,0c-.5,0-.9.2-1.2.5s-.4.8-.4,1.4.1,1.1.4,1.4c.3.3.7.5,1.2.5h.7c.2,0,.5-.2.7-.3v.7c-.2.1-.5.2-.7.2h-.8c-.7,0-1.3-.2-1.8-.7-.4-.5-.7-1.1-.7-1.9s.2-1.4.7-1.9c.4-.5,1-.7,1.8-.7s.5,0,.7,0,.5.1.7.2h.1Z"/>
          <path id="DejaVuSans-6f-21" d="M345,330.8c-.4,0-.8.2-1,.5s-.4.8-.4,1.4.1,1.1.4,1.4c.3.3.6.5,1,.5s.8-.2,1-.5c.3-.3.4-.8.4-1.4s-.1-1-.4-1.4c-.3-.3-.6-.5-1-.5ZM345,330.2c.7,0,1.3.2,1.7.7s.6,1.1.6,1.9-.2,1.4-.6,1.9c-.4.5-1,.7-1.7.7s-1.3-.2-1.7-.7-.6-1.1-.6-1.9.2-1.4.6-1.9c.4-.5,1-.7,1.7-.7Z"/>
          <path id="DejaVuSans-72-14" d="M351.4,331s-.2,0-.3-.1h-.4c-.5,0-.8.1-1.1.4s-.4.7-.4,1.3v2.6h-.8v-4.9h.8v.8c.2-.3.4-.5.7-.7.3-.1.6-.2,1-.2s.1,0,.2,0h.2v.8h.1Z"/>
          <path id="DejaVuSans-65-27" d="M356.3,332.5v.4h-3.7c0,.6.2,1,.5,1.3s.7.4,1.3.4.6,0,.9-.1.6-.2.9-.3v.8c-.3.1-.6.2-.9.3s-.6,0-.9,0c-.8,0-1.4-.2-1.9-.7s-.7-1.1-.7-1.9.2-1.4.7-1.9c.4-.5,1-.7,1.8-.7s1.2.2,1.6.6c.4.4.6,1,.6,1.7h-.2ZM355.5,332.3c0-.4-.1-.8-.4-1.1-.2-.3-.6-.4-1-.4s-.8.1-1.1.4-.4.6-.5,1.1h3Z"/>
          <path id="DejaVuSans-20-60" d="M356.7,335.2"/>
          <path id="DejaVuSans-28-3" d="M362.4,328.4c-.4.7-.7,1.3-.9,2s-.3,1.3-.3,2,0,1.3.3,2,.5,1.3.9,2h-.7c-.4-.7-.8-1.4-1-2-.2-.7-.3-1.3-.3-2s.1-1.3.3-2,.5-1.3,1-2h.7Z"/>
          <path id="DejaVuSans-6d-6" d="M367.8,331.2c.2-.4.4-.6.7-.8s.6-.3,1-.3.9.2,1.2.5c.3.4.4.9.4,1.5v3h-.8v-2.9c0-.5,0-.8-.3-1-.2-.2-.4-.3-.8-.3s-.8.1-1,.4-.4.7-.4,1.1v2.8h-.8v-2.9c0-.5,0-.8-.3-1.1s-.4-.3-.8-.3-.7.1-1,.4c-.2.3-.4.7-.4,1.1v2.8h-.8v-4.9h.8v.8c.2-.3.4-.5.7-.7s.6-.2.9-.2.7,0,.9.3c.3.2.4.4.6.8h.2Z"/>
          <path id="DejaVuSans-65-28" d="M376.9,332.5v.4h-3.7c0,.6.2,1,.5,1.3s.7.4,1.3.4.6,0,.9-.1.6-.2.9-.3v.8c-.3.1-.6.2-.9.3s-.6,0-.9,0c-.8,0-1.4-.2-1.9-.7s-.7-1.1-.7-1.9.2-1.4.7-1.9c.4-.5,1-.7,1.8-.7s1.2.2,1.6.6.6,1,.6,1.7h-.2ZM376.1,332.3c0-.4-.1-.8-.4-1.1-.2-.3-.6-.4-1-.4s-.8.1-1.1.4-.4.6-.5,1.1h3Z"/>
          <path id="DejaVuSans-63-6" d="M381.8,330.5v.8c-.2-.1-.5-.2-.7-.3s-.5,0-.7,0c-.5,0-.9.2-1.2.5-.3.3-.4.8-.4,1.4s.1,1.1.4,1.4.7.5,1.2.5h.7c.2,0,.5-.2.7-.3v.7c-.2.1-.5.2-.7.2h-.8c-.7,0-1.3-.2-1.8-.7-.4-.5-.7-1.1-.7-1.9s.2-1.4.7-1.9c.4-.5,1-.7,1.8-.7s.5,0,.7,0,.5.1.7.2h0Z"/>
          <path id="DejaVuSans-68-5" d="M387.3,332.2v3h-.8v-2.9c0-.5,0-.8-.3-1-.2-.2-.5-.3-.8-.3s-.8.1-1,.4c-.3.3-.4.7-.4,1.1v2.8h-.8v-6.8h.8v2.7c.2-.3.4-.5.7-.7.3-.1.6-.2.9-.2.6,0,1,.2,1.3.5s.4.9.4,1.5h0Z"/>
          <path id="DejaVuSans-61-23" d="M391.2,332.7c-.7,0-1.1,0-1.4.2s-.4.4-.4.8,0,.5.3.7c.2.2.4.3.8.3s.8-.2,1.1-.5.4-.7.4-1.3v-.2h-.8ZM392.8,332.4v2.8h-.8v-.7c-.2.3-.4.5-.7.7-.3.1-.6.2-1,.2s-.9-.1-1.2-.4c-.3-.3-.4-.7-.4-1.1s.2-1,.6-1.3.9-.4,1.7-.4h1.1c0-.5-.1-.7-.4-.9s-.6-.3-1-.3-.6,0-.8.1c-.3,0-.5.2-.8.3v-.7c.3-.1.6-.2.9-.3h.8c.7,0,1.2.2,1.6.6s.5.9.5,1.7v-.3Z"/>
          <path id="DejaVuSans-6e-19" d="M398.5,332.2v3h-.8v-2.9c0-.5,0-.8-.3-1-.2-.2-.5-.3-.8-.3s-.8.1-1,.4c-.3.3-.4.7-.4,1.1v2.8h-.8v-4.9h.8v.8c.2-.3.4-.5.7-.7.3-.1.6-.2.9-.2.6,0,1,.2,1.3.5s.4.9.4,1.5h0Z"/>
          <path id="DejaVuSans-69-36" d="M400.1,330.3h.8v4.9h-.8v-4.9ZM400.1,328.4h.8v1h-.8v-1Z"/>
          <path id="DejaVuSans-73-26" d="M405.8,330.4v.8c-.2-.1-.5-.2-.7-.3h-.8c-.4,0-.7,0-.9.2-.2.1-.3.3-.3.6s0,.3.2.4.4.2.9.3h.3c.6.2,1,.4,1.2.6s.4.5.4.9-.2.8-.5,1.1c-.4.3-.9.4-1.5.4h-.8c-.3,0-.6-.1-.9-.2v-.8c.3.2.6.3.9.4.3,0,.6.1.9.1s.7,0,.9-.2c.2-.1.3-.3.3-.6s0-.4-.2-.5c-.1-.1-.5-.2-1-.3h-.3c-.5-.2-.9-.3-1.1-.6-.2-.2-.3-.5-.3-.9s.2-.8.5-1.1c.3-.3.8-.4,1.4-.4h.8c.3,0,.5.1.7.2h-.1Z"/>
          <path id="DejaVuSans-74-19" d="M408.1,328.9v1.4h1.7v.6h-1.7v2.7c0,.4,0,.7.2.8s.3.2.7.2h.8v.7h-.8c-.6,0-1.1-.1-1.3-.3s-.4-.7-.4-1.3v-2.7h-.6v-.6h.6v-1.4h.8,0Z"/>
          <path id="DejaVuSans-69-37" d="M410.9,330.3h.8v4.9h-.8v-4.9ZM410.9,328.4h.8v1h-.8v-1Z"/>
          <path id="DejaVuSans-63-7" d="M416.9,330.5v.8c-.2-.1-.5-.2-.7-.3s-.5,0-.7,0c-.5,0-.9.2-1.2.5-.3.3-.4.8-.4,1.4s.1,1.1.4,1.4.7.5,1.2.5h.7c.2,0,.5-.2.7-.3v.7c-.2.1-.5.2-.7.2h-.8c-.7,0-1.3-.2-1.8-.7-.4-.5-.7-1.1-.7-1.9s.2-1.4.7-1.9c.4-.5,1-.7,1.8-.7s.5,0,.7,0,.5.1.7.2h0Z"/>
          <path id="DejaVuSans-20-61" d="M417.5,335.2"/>
          <path id="DejaVuSans-65-29" d="M425.4,332.5v.4h-3.7c0,.6.2,1,.5,1.3s.7.4,1.3.4.6,0,.9-.1.6-.2.9-.3v.8c-.3.1-.6.2-.9.3s-.6,0-.9,0c-.8,0-1.4-.2-1.9-.7s-.7-1.1-.7-1.9.2-1.4.7-1.9c.4-.5,1-.7,1.8-.7s1.2.2,1.6.6.6,1,.6,1.7h-.2ZM424.6,332.3c0-.4-.1-.8-.4-1.1-.2-.3-.6-.4-1-.4s-.8.1-1.1.4-.4.6-.5,1.1h3Z"/>
          <path id="DejaVuSans-66-3" d="M429.2,328.4v.7h-.8c-.3,0-.5,0-.6.2-.1.1-.2.3-.2.6v.4h1.3v.6h-1.3v4.3h-.8v-4.3h-.8v-.6h.8v-.3c0-.5.1-.9.4-1.2.3-.3.7-.4,1.2-.4h.8Z"/>
          <path id="DejaVuSans-66-4" d="M432.4,328.4v.7h-.8c-.3,0-.5,0-.6.2-.1.1-.2.3-.2.6v.4h1.3v.6h-1.3v4.3h-.8v-4.3h-.8v-.6h.8v-.3c0-.5.1-.9.4-1.2.3-.3.7-.4,1.2-.4h.8Z"/>
          <path id="DejaVuSans-65-30" d="M437.2,332.5v.4h-3.7c0,.6.2,1,.5,1.3s.7.4,1.3.4.6,0,.9-.1.6-.2.9-.3v.8c-.3.1-.6.2-.9.3s-.6,0-.9,0c-.8,0-1.4-.2-1.9-.7s-.7-1.1-.7-1.9.2-1.4.7-1.9c.4-.5,1-.7,1.8-.7s1.2.2,1.6.6.6,1,.6,1.7h-.2ZM436.4,332.3c0-.4-.1-.8-.4-1.1-.2-.3-.6-.4-1-.4s-.8.1-1.1.4-.4.6-.5,1.1h3Z"/>
          <path id="DejaVuSans-63-8" d="M442.1,330.5v.8c-.2-.1-.5-.2-.7-.3s-.5,0-.7,0c-.5,0-.9.2-1.2.5-.3.3-.4.8-.4,1.4s.1,1.1.4,1.4.7.5,1.2.5h.7c.2,0,.5-.2.7-.3v.7c-.2.1-.5.2-.7.2h-.8c-.7,0-1.3-.2-1.8-.7-.4-.5-.7-1.1-.7-1.9s.2-1.4.7-1.9c.4-.5,1-.7,1.8-.7s.5,0,.7,0,.5.1.7.2h0Z"/>
          <path id="DejaVuSans-74-20" d="M444.3,328.9v1.4h1.7v.6h-1.7v2.7c0,.4,0,.7.2.8s.3.2.7.2h.8v.7h-.8c-.6,0-1.1-.1-1.3-.3s-.4-.7-.4-1.3v-2.7h-.6v-.6h.6v-1.4h.8,0Z"/>
          <path id="DejaVuSans-29-3" d="M446.9,328.4h.7c.4.7.8,1.4,1,2,.2.7.3,1.3.3,2s-.1,1.3-.3,2c-.2.7-.5,1.3-1,2h-.7c.4-.7.7-1.3.9-2,.2-.7.3-1.3.3-2s0-1.3-.3-2c-.2-.7-.5-1.3-.9-2Z"/>
          <path id="DejaVuSans-2e" d="M450.7,334.1h.9v1.1h-.9v-1.1Z"/>
        </g>
      </g>
      <g class="cls-11">
        <path class="cls-3" d="M255.3,156.4"/>
      </g>
      <line class="cls-3" x1="255.8" y1="199" x2="331.1" y2="181.4"/>
      <line class="cls-3" x1="342.1" y1="182.1" x2="442.9" y2="199.7"/>
      <line class="cls-3" x1="137.8" y1="177.4" x2="328.1" y2="177.4"/>
      <line class="cls-3" x1="345.3" y1="177.1" x2="512.8" y2="177.1"/>
      <text class="cls-13" transform="translate(181.8 119.9)"><tspan x="0" y="0">Lipid readouts: ΣCL, ΣPG, CL/PG……</tspan></text>
      <text class="cls-13" transform="translate(365.9 120.1)"><tspan x="0" y="0">Lipid readouts: ΣMLCL, CL/PG</tspan></text>
      <text class="cls-13" transform="translate(369.1 260.1)"><tspan x="0" y="0">Lipid readouts: ΣoxCL, oxCL/CL</tspan></text>
      <text class="cls-13" transform="translate(50 144.2)"><tspan x="0" y="0">Supply axis</tspan></text>
      <text class="cls-13" transform="translate(221.6 226.5)"><tspan x="0" y="0">Transport axis</tspan></text>
      <text class="cls-13" transform="translate(173.7 266.9)"><tspan x="0" y="0">Lipid readouts: PA_PG_mismatch……</tspan></text>
      <text class="cls-13" transform="translate(541.1 142.5)"><tspan x="0" y="0">Membrane context axis</tspan></text>
      <text/>
      <text class="cls-13" transform="translate(534.7 172.7)"><tspan x="0" y="0">key gene: Ppargc1a, Tfam</tspan></text>
      <text class="cls-13" transform="translate(565.3 156.8)"><tspan x="0" y="0">CL function</tspan></text>
      <text class="cls-13" transform="translate(228.6 242)"><tspan x="0" y="0">ER -&gt; mito</tspan></text>
      <text class="cls-13" transform="translate(53.3 159.9)"><tspan x="0" y="0">PA supply</tspan></text>
      <rect class="cls-4" x="4.3" y="117" width="129.9" height="107.8"/>
      <text class="cls-13" transform="translate(11.2 196.6)"><tspan x="0" y="0">Lipid readouts: ΣPG, ΣPA, </tspan><tspan x="0" y="10.8">PG/PA……</tspan></text>
      <g>
        <path d="M528.7,189.4v-6.4h.9v5.7h3.2v.8h-4Z"/>
        <path d="M533.6,183.9v-.9h.8v.9h-.8ZM533.6,189.4v-4.7h.8v4.7h-.8Z"/>
        <path d="M535.6,191.2v-6.5h.7v.6c.2-.2.4-.4.6-.5.2-.1.5-.2.8-.2s.8.1,1.1.3.5.5.7.9c.2.4.2.8.2,1.2s0,.9-.3,1.3c-.2.4-.4.7-.7.9-.3.2-.7.3-1,.3s-.5,0-.7-.2c-.2-.1-.4-.3-.5-.4v2.3h-.8ZM536.3,187.1c0,.6.1,1,.4,1.3s.5.4.9.4.7-.1.9-.4c.2-.3.4-.8.4-1.4s-.1-1-.4-1.3c-.2-.3-.5-.4-.9-.4s-.6.2-.9.5c-.3.3-.4.8-.4,1.4Z"/>
        <path d="M540.6,183.9v-.9h.8v.9h-.8ZM540.6,189.4v-4.7h.8v4.7h-.8Z"/>
        <path d="M545.7,189.4v-.6c-.3.5-.7.7-1.3.7s-.7-.1-1-.3c-.3-.2-.6-.5-.7-.9-.2-.4-.3-.8-.3-1.3s0-.9.2-1.3c.2-.4.4-.7.7-.9.3-.2.7-.3,1-.3s.5,0,.8.2c.2.1.4.3.5.5v-2.3h.8v6.4h-.7ZM543.2,187.1c0,.6.1,1,.4,1.3s.5.4.9.4.6-.1.9-.4c.2-.3.4-.7.4-1.3s-.1-1.1-.4-1.4-.5-.4-.9-.4-.6.1-.9.4c-.2.3-.4.7-.4,1.4Z"/>
        <path d="M550.1,189.4v-4.7h.7v.7c.2-.3.3-.5.5-.7.2-.1.3-.2.5-.2.3,0,.5,0,.8.3l-.3.7c-.2-.1-.4-.2-.6-.2s-.3,0-.5.2c-.1.1-.2.2-.3.4,0,.3-.1.6-.1.9v2.4h-.8Z"/>
        <path d="M556.3,187.9h.8c-.1.6-.4.9-.7,1.2s-.8.4-1.3.4-1.2-.2-1.6-.6c-.4-.4-.6-1-.6-1.8s.2-1.4.6-1.8.9-.7,1.6-.7,1.1.2,1.5.6.6,1,.6,1.8,0,.1,0,.2h-3.5c0,.5.2.9.4,1.2.3.3.6.4,1,.4s.5,0,.7-.2.4-.4.5-.7ZM553.7,186.7h2.6c0-.4-.1-.7-.3-.9-.3-.3-.6-.5-1-.5s-.7.1-.9.4c-.2.2-.4.6-.4,1Z"/>
        <path d="M561.2,188.9c-.3.2-.6.4-.8.5-.3.1-.6.2-.9.2-.5,0-.9-.1-1.2-.4-.3-.2-.4-.6-.4-1s0-.4.2-.6c.1-.2.2-.3.4-.5.2-.1.4-.2.6-.3.2,0,.4,0,.7-.1.6,0,1.1-.2,1.4-.3,0-.1,0-.2,0-.2,0-.3,0-.5-.2-.7-.2-.2-.5-.3-.9-.3s-.6,0-.8.2c-.2.1-.3.4-.4.7h-.8c0-.4.2-.7.3-.9.2-.2.4-.4.7-.5.3-.1.7-.2,1.1-.2s.7,0,1,.1.4.2.5.4c.1.1.2.3.2.5,0,.1,0,.4,0,.7v1.1c0,.7,0,1.2,0,1.4,0,.2.1.4.2.6h-.8c0-.2-.1-.4-.2-.6ZM561.1,187.1c-.3.1-.7.2-1.3.3-.3,0-.6,0-.7.2s-.2.1-.3.3c0,.1-.1.2-.1.4,0,.2,0,.4.2.5.2.1.4.2.7.2s.6,0,.8-.2c.2-.1.4-.3.5-.5,0-.2.1-.4.1-.8v-.3Z"/>
        <path d="M566.2,189.4v-.6c-.3.5-.7.7-1.3.7s-.7-.1-1-.3c-.3-.2-.6-.5-.7-.9-.2-.4-.3-.8-.3-1.3s0-.9.2-1.3c.2-.4.4-.7.7-.9.3-.2.7-.3,1-.3s.5,0,.8.2c.2.1.4.3.5.5v-2.3h.8v6.4h-.7ZM563.7,187.1c0,.6.1,1,.4,1.3s.5.4.9.4.6-.1.9-.4c.2-.3.4-.7.4-1.3s-.1-1.1-.4-1.4-.5-.4-.9-.4-.6.1-.9.4c-.2.3-.4.7-.4,1.4Z"/>
        <path d="M567.8,187.1c0-.9.2-1.5.7-1.9.4-.3.9-.5,1.5-.5s1.2.2,1.6.6c.4.4.6,1,.6,1.7s0,1.1-.3,1.4c-.2.3-.4.6-.8.8-.3.2-.7.3-1.1.3-.7,0-1.2-.2-1.6-.6-.4-.4-.6-1-.6-1.8ZM568.7,187.1c0,.6.1,1,.4,1.3.3.3.6.4,1,.4s.7-.1,1-.4.4-.8.4-1.4-.1-1-.4-1.3c-.3-.3-.6-.4-1-.4s-.7.1-1,.4-.4.7-.4,1.3Z"/>
        <path d="M576.2,189.4v-.7c-.4.5-.9.8-1.5.8s-.5,0-.8-.2c-.2-.1-.4-.2-.5-.4-.1-.2-.2-.4-.2-.6,0-.2,0-.4,0-.7v-2.9h.8v2.6c0,.4,0,.7,0,.8,0,.2.2.4.3.5.2.1.4.2.6.2s.5,0,.7-.2c.2-.1.4-.3.4-.5,0-.2.1-.5.1-.9v-2.5h.8v4.7h-.7Z"/>
        <path d="M579.9,188.7v.7c-.1,0-.3,0-.5,0-.3,0-.5,0-.7-.1-.2,0-.3-.2-.3-.4,0-.1,0-.5,0-.9v-2.7h-.6v-.6h.6v-1.2l.8-.5v1.6h.8v.6h-.8v2.7c0,.2,0,.4,0,.4,0,0,0,.1.1.2,0,0,.2,0,.3,0s.2,0,.3,0Z"/>
        <path d="M580.3,188h.8c0,.2.2.4.4.6.2.2.5.2.8.2s.6,0,.8-.2c.2-.1.3-.3.3-.5s0-.3-.2-.4c-.1,0-.4-.2-.8-.3-.6-.1-1-.3-1.2-.4-.2-.1-.4-.3-.5-.4-.1-.2-.2-.4-.2-.6s0-.4.1-.6c0-.2.2-.3.4-.4.1,0,.3-.2.5-.2.2,0,.4,0,.7,0,.4,0,.7,0,1,.2.3.1.5.2.6.4.1.2.2.4.3.7h-.8c0-.1-.1-.3-.3-.5-.2-.1-.4-.2-.7-.2s-.6,0-.8.2-.2.3-.2.4,0,.2,0,.3c0,0,.2.2.3.2,0,0,.3,0,.7.2.6.1.9.3,1.2.4.2,0,.4.2.5.4s.2.4.2.7,0,.5-.2.7c-.2.2-.4.4-.7.5-.3.1-.6.2-1,.2-.6,0-1.1-.1-1.4-.4-.3-.3-.5-.6-.6-1.1Z"/>
        <path d="M585.4,185.7v-.9h.9v.9h-.9ZM585.4,189.4v-.9h.9v.9h-.9Z"/>
        <path d="M590.2,189.4v-4.7h.7v.7c.1-.2.3-.4.6-.6.2-.1.5-.2.8-.2s.6,0,.9.2c.2.1.4.3.5.6.4-.5.8-.8,1.4-.8s.8.1,1.1.4c.2.3.4.7.4,1.2v3.2h-.8v-2.9c0-.3,0-.5,0-.7,0-.1-.1-.3-.3-.3s-.3-.1-.5-.1c-.3,0-.6.1-.8.3-.2.2-.3.6-.3,1v2.7h-.8v-3c0-.4,0-.6-.2-.8s-.3-.3-.6-.3-.4,0-.6.2c-.2.1-.3.3-.4.5s-.1.6-.1,1v2.4h-.8Z"/>
        <path d="M597.7,183.9v-.9h.8v.9h-.8ZM597.7,189.4v-4.7h.8v4.7h-.8Z"/>
        <path d="M601.4,188.7v.7c-.1,0-.3,0-.5,0-.3,0-.5,0-.7-.1-.2,0-.3-.2-.3-.4,0-.1,0-.5,0-.9v-2.7h-.6v-.6h.6v-1.2l.8-.5v1.6h.8v.6h-.8v2.7c0,.2,0,.4,0,.4,0,0,0,.1.1.2,0,0,.2,0,.3,0s.2,0,.3,0Z"/>
        <path d="M601.9,187.1c0-.9.2-1.5.7-1.9.4-.3.9-.5,1.5-.5s1.2.2,1.6.6c.4.4.6,1,.6,1.7s0,1.1-.3,1.4c-.2.3-.4.6-.8.8-.3.2-.7.3-1.1.3-.7,0-1.2-.2-1.6-.6-.4-.4-.6-1-.6-1.8ZM602.7,187.1c0,.6.1,1,.4,1.3.3.3.6.4,1,.4s.7-.1,1-.4.4-.8.4-1.4-.1-1-.4-1.3c-.3-.3-.6-.4-1-.4s-.7.1-1,.4-.4.7-.4,1.3Z"/>
        <path d="M606.4,191.2v-.6h5.2v.6h-5.2Z"/>
        <path d="M612.1,189.4v-6.4h.8v6.4h-.8Z"/>
        <path d="M614.2,183.9v-.9h.8v.9h-.8ZM614.2,189.4v-4.7h.8v4.7h-.8Z"/>
        <path d="M616.2,191.2v-6.5h.7v.6c.2-.2.4-.4.6-.5.2-.1.5-.2.8-.2s.8.1,1.1.3.5.5.7.9c.2.4.2.8.2,1.2s0,.9-.3,1.3c-.2.4-.4.7-.7.9-.3.2-.7.3-1,.3s-.5,0-.7-.2c-.2-.1-.4-.3-.5-.4v2.3h-.8ZM616.9,187.1c0,.6.1,1,.4,1.3s.5.4.9.4.7-.1.9-.4c.2-.3.4-.8.4-1.4s-.1-1-.4-1.3c-.2-.3-.5-.4-.9-.4s-.6.2-.9.5c-.3.3-.4.8-.4,1.4Z"/>
        <path d="M620.9,187.5v-.8h2.4v.8h-2.4Z"/>
        <path d="M528.6,194.7v-.9h.8v.9h-.8ZM528.6,200.2v-4.7h.8v4.7h-.8Z"/>
        <path d="M533.6,200.2v-.6c-.3.5-.7.7-1.3.7s-.7-.1-1-.3c-.3-.2-.6-.5-.7-.9-.2-.4-.3-.8-.3-1.3s0-.9.2-1.3c.2-.4.4-.7.7-.9.3-.2.7-.3,1-.3s.5,0,.8.2c.2.1.4.3.5.5v-2.3h.8v6.4h-.7ZM531.1,197.9c0,.6.1,1,.4,1.3s.5.4.9.4.6-.1.9-.4c.2-.3.4-.7.4-1.3s-.1-1.1-.4-1.4-.5-.4-.9-.4-.6.1-.9.4c-.2.3-.4.7-.4,1.4Z"/>
        <path d="M534.9,202v-.6h5.2v.6h-5.2Z"/>
        <path d="M540.6,200.2v-4.7h.7v.7c.1-.2.3-.4.6-.6.2-.1.5-.2.8-.2s.6,0,.9.2c.2.1.4.3.5.6.4-.5.8-.8,1.4-.8s.8.1,1.1.4c.2.3.4.7.4,1.2v3.2h-.8v-2.9c0-.3,0-.5,0-.7,0-.1-.1-.3-.3-.3s-.3-.1-.5-.1c-.3,0-.6.1-.8.3-.2.2-.3.6-.3,1v2.7h-.8v-3c0-.4,0-.6-.2-.8s-.3-.3-.6-.3-.4,0-.6.2c-.2.1-.3.3-.4.5s-.1.6-.1,1v2.4h-.8Z"/>
        <path d="M551.2,199.7c-.3.2-.6.4-.8.5-.3.1-.6.2-.9.2-.5,0-.9-.1-1.2-.4-.3-.2-.4-.6-.4-1s0-.4.2-.6c.1-.2.2-.3.4-.5.2-.1.4-.2.6-.3.2,0,.4,0,.7-.1.6,0,1.1-.2,1.4-.3,0-.1,0-.2,0-.2,0-.3,0-.5-.2-.7-.2-.2-.5-.3-.9-.3s-.6,0-.8.2c-.2.1-.3.4-.4.7h-.8c0-.4.2-.7.3-.9.2-.2.4-.4.7-.5.3-.1.7-.2,1.1-.2s.7,0,1,.1.4.2.5.4c.1.1.2.3.2.5,0,.1,0,.4,0,.7v1.1c0,.7,0,1.2,0,1.4,0,.2.1.4.2.6h-.8c0-.2-.1-.4-.2-.6ZM551.1,197.9c-.3.1-.7.2-1.3.3-.3,0-.6,0-.7.2s-.2.1-.3.3c0,.1-.1.2-.1.4,0,.2,0,.4.2.5.2.1.4.2.7.2s.6,0,.8-.2c.2-.1.4-.3.5-.5,0-.2.1-.4.1-.8v-.3Z"/>
        <path d="M552.8,198.8h.8c0,.2.2.4.4.6.2.2.5.2.8.2s.6,0,.8-.2c.2-.1.3-.3.3-.5s0-.3-.2-.4c-.1,0-.4-.2-.8-.3-.6-.1-1-.3-1.2-.4-.2-.1-.4-.3-.5-.4-.1-.2-.2-.4-.2-.6s0-.4.1-.6c0-.2.2-.3.4-.4.1,0,.3-.2.5-.2.2,0,.4,0,.7,0,.4,0,.7,0,1,.2.3.1.5.2.6.4.1.2.2.4.3.7h-.8c0-.1-.1-.3-.3-.5-.2-.1-.4-.2-.7-.2s-.6,0-.8.2-.2.3-.2.4,0,.2,0,.3c0,0,.2.2.3.2,0,0,.3,0,.7.2.6.1.9.3,1.2.4.2,0,.4.2.5.4s.2.4.2.7,0,.5-.2.7c-.2.2-.4.4-.7.5-.3.1-.6.2-1,.2-.6,0-1.1-.1-1.4-.4-.3-.3-.5-.6-.6-1.1Z"/>
        <path d="M557.3,198.8h.8c0,.2.2.4.4.6.2.2.5.2.8.2s.6,0,.8-.2c.2-.1.3-.3.3-.5s0-.3-.2-.4c-.1,0-.4-.2-.8-.3-.6-.1-1-.3-1.2-.4-.2-.1-.4-.3-.5-.4-.1-.2-.2-.4-.2-.6s0-.4.1-.6c0-.2.2-.3.4-.4.1,0,.3-.2.5-.2.2,0,.4,0,.7,0,.4,0,.7,0,1,.2.3.1.5.2.6.4.1.2.2.4.3.7h-.8c0-.1-.1-.3-.3-.5-.2-.1-.4-.2-.7-.2s-.6,0-.8.2-.2.3-.2.4,0,.2,0,.3c0,0,.2.2.3.2,0,0,.3,0,.7.2.6.1.9.3,1.2.4.2,0,.4.2.5.4s.2.4.2.7,0,.5-.2.7c-.2.2-.4.4-.7.5-.3.1-.6.2-1,.2-.6,0-1.1-.1-1.4-.4-.3-.3-.5-.6-.6-1.1Z"/>
        <path d="M563.6,202.1c-.4-.6-.8-1.2-1.1-1.9s-.5-1.5-.5-2.3.1-1.4.3-2c.3-.7.7-1.5,1.2-2.2h.6c-.4.6-.6,1-.7,1.3-.2.4-.3.8-.4,1.3-.1.5-.2,1.1-.2,1.7,0,1.4.4,2.8,1.3,4.2h-.6Z"/>
        <path d="M565.2,200.2v-6.4h2.4c.4,0,.8,0,1,0,.3,0,.6.2.8.3.2.1.4.4.5.6.1.3.2.6.2.9,0,.5-.2,1-.5,1.4-.3.4-1,.6-1.9.6h-1.7v2.6h-.9ZM566.1,196.9h1.7c.6,0,.9-.1,1.2-.3.2-.2.3-.5.3-.9s0-.5-.2-.7c-.1-.2-.3-.3-.5-.4-.1,0-.4,0-.8,0h-1.6v2.3Z"/>
        <path d="M575.8,198l.9.2c-.2.7-.5,1.2-1,1.6-.5.4-1,.6-1.7.6s-1.3-.1-1.7-.4c-.4-.3-.8-.7-1-1.2-.2-.5-.3-1.1-.3-1.7s.1-1.3.4-1.8c.3-.5.6-.9,1.1-1.1.5-.3,1-.4,1.6-.4s1.2.2,1.6.5c.4.3.7.8.9,1.4l-.8.2c-.1-.5-.4-.8-.7-1s-.6-.3-1.1-.3-.9.1-1.2.4c-.3.2-.6.6-.7,1-.1.4-.2.8-.2,1.2s0,1,.2,1.4c.2.4.4.7.7.9s.7.3,1.1.3.9-.1,1.2-.4c.3-.3.6-.7.7-1.2Z"/>
        <path d="M579.3,199.2v-1.8h-1.8v-.7h1.8v-1.8h.7v1.8h1.8v.7h-1.8v1.8h-.7Z"/>
        <path d="M583,200.2v-6.4h2.4c.4,0,.8,0,1,0,.3,0,.6.2.8.3.2.1.4.4.5.6.1.3.2.6.2.9,0,.5-.2,1-.5,1.4-.3.4-1,.6-1.9.6h-1.7v2.6h-.9ZM583.8,196.9h1.7c.6,0,.9-.1,1.2-.3.2-.2.3-.5.3-.9s0-.5-.2-.7c-.1-.2-.3-.3-.5-.4-.1,0-.4,0-.8,0h-1.6v2.3Z"/>
        <path d="M589,200.2v-6.4h4.7v.8h-3.8v2h3.6v.8h-3.6v2.2h4v.8h-4.8Z"/>
        <path d="M596.5,199.2v-1.8h-1.8v-.7h1.8v-1.8h.7v1.8h1.8v.7h-1.8v1.8h-.7Z"/>
        <path d="M604.8,198l.9.2c-.2.7-.5,1.2-1,1.6-.5.4-1,.6-1.7.6s-1.3-.1-1.7-.4c-.4-.3-.8-.7-1-1.2-.2-.5-.3-1.1-.3-1.7s.1-1.3.4-1.8c.3-.5.6-.9,1.1-1.1.5-.3,1-.4,1.6-.4s1.2.2,1.6.5c.4.3.7.8.9,1.4l-.8.2c-.1-.5-.4-.8-.7-1s-.6-.3-1.1-.3-.9.1-1.2.4c-.3.2-.6.6-.7,1-.1.4-.2.8-.2,1.2s0,1,.2,1.4c.2.4.4.7.7.9s.7.3,1.1.3.9-.1,1.2-.4c.3-.3.6-.7.7-1.2Z"/>
        <path d="M606.7,200.2v-6.4h.9v5.7h3.2v.8h-4Z"/>
        <path d="M612.2,202.1h-.6c.9-1.4,1.3-2.8,1.3-4.2s0-1.1-.2-1.6c0-.4-.2-.9-.4-1.3-.1-.3-.3-.7-.7-1.3h.6c.6.7,1,1.5,1.2,2.2.2.6.3,1.3.3,2s-.2,1.6-.5,2.3c-.3.7-.7,1.4-1.1,1.9Z"/>
        <path d="M614.9,200.2v-.9h.9v.9c0,.3,0,.6-.2.8-.1.2-.3.4-.6.5l-.2-.3c.2,0,.3-.2.4-.3,0-.1.1-.3.1-.6h-.4Z"/>
        <path d="M533.3,208.8l.9.2c-.2.7-.5,1.2-1,1.6-.5.4-1,.6-1.7.6s-1.3-.1-1.7-.4c-.4-.3-.8-.7-1-1.2-.2-.5-.3-1.1-.3-1.7s.1-1.3.4-1.8c.3-.5.6-.9,1.1-1.1.5-.3,1-.4,1.6-.4s1.2.2,1.6.5c.4.3.7.8.9,1.4l-.8.2c-.1-.5-.4-.8-.7-1s-.6-.3-1.1-.3-.9.1-1.2.4c-.3.2-.6.6-.7,1-.1.4-.2.8-.2,1.2s0,1,.2,1.4c.2.4.4.7.7.9s.7.3,1.1.3.9-.1,1.2-.4c.3-.3.6-.7.7-1.2Z"/>
        <path d="M535.2,211v-6.4h.9v5.7h3.2v.8h-4Z"/>
        <path d="M539.4,212.8v-.6h5.2v.6h-5.2Z"/>
        <path d="M545.3,211v-4.1h-.7v-.6h.7v-.5c0-.3,0-.5,0-.7,0-.2.2-.4.4-.5.2-.1.5-.2.8-.2s.5,0,.7,0v.7c-.3,0-.4,0-.6,0-.2,0-.4,0-.5.2,0,.1-.1.3-.1.6v.4h.9v.6h-.9v4.1h-.8Z"/>
        <path d="M547.6,211v-4.7h.7v.7c.2-.3.3-.5.5-.7.2-.1.3-.2.5-.2.3,0,.5,0,.8.3l-.3.7c-.2-.1-.4-.2-.6-.2s-.3,0-.5.2c-.1.1-.2.2-.3.4,0,.3-.1.6-.1.9v2.4h-.8Z"/>
        <path d="M553.7,210.5c-.3.2-.6.4-.8.5-.3.1-.6.2-.9.2-.5,0-.9-.1-1.2-.4-.3-.2-.4-.6-.4-1s0-.4.2-.6c.1-.2.2-.3.4-.5.2-.1.4-.2.6-.3.2,0,.4,0,.7-.1.6,0,1.1-.2,1.4-.3,0-.1,0-.2,0-.2,0-.3,0-.5-.2-.7-.2-.2-.5-.3-.9-.3s-.6,0-.8.2c-.2.1-.3.4-.4.7h-.8c0-.4.2-.7.3-.9.2-.2.4-.4.7-.5.3-.1.7-.2,1.1-.2s.7,0,1,.1.4.2.5.4c.1.1.2.3.2.5,0,.1,0,.4,0,.7v1.1c0,.7,0,1.2,0,1.4,0,.2.1.4.2.6h-.8c0-.2-.1-.4-.2-.6ZM553.6,208.7c-.3.1-.7.2-1.3.3-.3,0-.6,0-.7.2s-.2.1-.3.3c0,.1-.1.2-.1.4,0,.2,0,.4.2.5.2.1.4.2.7.2s.6,0,.8-.2c.2-.1.4-.3.5-.5,0-.2.1-.4.1-.8v-.3Z"/>
        <path d="M558.7,209.3h.8c0,.6-.3,1.1-.7,1.4-.4.3-.8.5-1.3.5s-1.2-.2-1.5-.6c-.4-.4-.6-1-.6-1.8s0-.9.2-1.3.4-.7.8-.9c.3-.2.7-.3,1.1-.3s.9.1,1.2.4c.3.3.5.6.6,1.1h-.8c0-.2-.2-.4-.4-.6-.2-.2-.4-.2-.7-.2-.4,0-.7.1-1,.4-.2.3-.4.7-.4,1.4s.1,1.1.4,1.4.6.4.9.4.6,0,.8-.3.3-.5.4-.9Z"/>
        <path d="M561.9,210.3v.7c-.1,0-.3,0-.5,0-.3,0-.5,0-.7-.1-.2,0-.3-.2-.3-.4,0-.1,0-.5,0-.9v-2.7h-.6v-.6h.6v-1.2l.8-.5v1.6h.8v.6h-.8v2.7c0,.2,0,.4,0,.4,0,0,0,.1.1.2,0,0,.2,0,.3,0s.2,0,.3,0Z"/>
        <path d="M562.6,205.5v-.9h.8v.9h-.8ZM562.6,211v-4.7h.8v4.7h-.8Z"/>
        <path d="M564.3,208.7c0-.9.2-1.5.7-1.9.4-.3.9-.5,1.5-.5s1.2.2,1.6.6c.4.4.6,1,.6,1.7s0,1.1-.3,1.4c-.2.3-.4.6-.8.8-.3.2-.7.3-1.1.3-.7,0-1.2-.2-1.6-.6-.4-.4-.6-1-.6-1.8ZM565.1,208.7c0,.6.1,1,.4,1.3.3.3.6.4,1,.4s.7-.1,1-.4.4-.8.4-1.4-.1-1-.4-1.3c-.3-.3-.6-.4-1-.4s-.7.1-1,.4-.4.7-.4,1.3Z"/>
        <path d="M569.6,211v-4.7h.7v.7c.3-.5.8-.8,1.5-.8s.5,0,.8.2c.2.1.4.2.5.4s.2.4.2.6c0,.1,0,.4,0,.8v2.9h-.8v-2.8c0-.3,0-.6,0-.7,0-.2-.2-.3-.3-.4-.2,0-.3-.1-.6-.1-.3,0-.6.1-.9.3-.2.2-.4.6-.4,1.2v2.5h-.8Z"/>
        <path d="M576.2,212.9c-.4-.6-.8-1.2-1.1-1.9s-.5-1.5-.5-2.3.1-1.4.3-2c.3-.7.7-1.5,1.2-2.2h.6c-.4.6-.6,1-.7,1.3-.2.4-.3.8-.4,1.3-.1.5-.2,1.1-.2,1.7,0,1.4.4,2.8,1.3,4.2h-.6Z"/>
        <path d="M582.3,208.8l.9.2c-.2.7-.5,1.2-1,1.6-.5.4-1,.6-1.7.6s-1.3-.1-1.7-.4c-.4-.3-.8-.7-1-1.2-.2-.5-.3-1.1-.3-1.7s.1-1.3.4-1.8c.3-.5.6-.9,1.1-1.1.5-.3,1-.4,1.6-.4s1.2.2,1.6.5c.4.3.7.8.9,1.4l-.8.2c-.1-.5-.4-.8-.7-1s-.6-.3-1.1-.3-.9.1-1.2.4c-.3.2-.6.6-.7,1-.1.4-.2.8-.2,1.2s0,1,.2,1.4c.2.4.4.7.7.9s.7.3,1.1.3.9-.1,1.2-.4c.3-.3.6-.7.7-1.2Z"/>
        <path d="M584.2,211v-6.4h.9v5.7h3.2v.8h-4Z"/>
        <path d="M588.5,211.1l1.9-6.7h.6l-1.9,6.7h-.6Z"/>
        <path d="M593.2,212.9c-.4-.6-.8-1.2-1.1-1.9s-.5-1.5-.5-2.3.1-1.4.3-2c.3-.7.7-1.5,1.2-2.2h.6c-.4.6-.6,1-.7,1.3-.2.4-.3.8-.4,1.3-.1.5-.2,1.1-.2,1.7,0,1.4.4,2.8,1.3,4.2h-.6Z"/>
        <path d="M594.7,211v-6.4h2.4c.4,0,.8,0,1,0,.3,0,.6.2.8.3.2.1.4.4.5.6.1.3.2.6.2.9,0,.5-.2,1-.5,1.4-.3.4-1,.6-1.9.6h-1.7v2.6h-.9ZM595.6,207.7h1.7c.6,0,.9-.1,1.2-.3.2-.2.3-.5.3-.9s0-.5-.2-.7c-.1-.2-.3-.3-.5-.4-.1,0-.4,0-.8,0h-1.6v2.3Z"/>
        <path d="M605.3,208.8l.9.2c-.2.7-.5,1.2-1,1.6-.5.4-1,.6-1.7.6s-1.3-.1-1.7-.4c-.4-.3-.8-.7-1-1.2-.2-.5-.3-1.1-.3-1.7s.1-1.3.4-1.8c.3-.5.6-.9,1.1-1.1.5-.3,1-.4,1.6-.4s1.2.2,1.6.5c.4.3.7.8.9,1.4l-.8.2c-.1-.5-.4-.8-.7-1s-.6-.3-1.1-.3-.9.1-1.2.4c-.3.2-.6.6-.7,1-.1.4-.2.8-.2,1.2s0,1,.2,1.4c.2.4.4.7.7.9s.7.3,1.1.3.9-.1,1.2-.4c.3-.3.6-.7.7-1.2Z"/>
        <path d="M608.8,210v-1.8h-1.8v-.7h1.8v-1.8h.7v1.8h1.8v.7h-1.8v1.8h-.7Z"/>
        <path d="M612.5,211v-6.4h2.4c.4,0,.8,0,1,0,.3,0,.6.2.8.3.2.1.4.4.5.6.1.3.2.6.2.9,0,.5-.2,1-.5,1.4-.3.4-1,.6-1.9.6h-1.7v2.6h-.9ZM613.4,207.7h1.7c.6,0,.9-.1,1.2-.3.2-.2.3-.5.3-.9s0-.5-.2-.7c-.1-.2-.3-.3-.5-.4-.1,0-.4,0-.8,0h-1.6v2.3Z"/>
        <path d="M618.5,211v-6.4h4.7v.8h-3.8v2h3.6v.8h-3.6v2.2h4v.8h-4.8Z"/>
        <path d="M626.1,210v-1.8h-1.8v-.7h1.8v-1.8h.7v1.8h1.8v.7h-1.8v1.8h-.7Z"/>
        <path d="M634.4,208.8l.9.2c-.2.7-.5,1.2-1,1.6-.5.4-1,.6-1.7.6s-1.3-.1-1.7-.4c-.4-.3-.8-.7-1-1.2-.2-.5-.3-1.1-.3-1.7s.1-1.3.4-1.8c.3-.5.6-.9,1.1-1.1.5-.3,1-.4,1.6-.4s1.2.2,1.6.5c.4.3.7.8.9,1.4l-.8.2c-.1-.5-.4-.8-.7-1s-.6-.3-1.1-.3-.9.1-1.2.4c-.3.2-.6.6-.7,1-.1.4-.2.8-.2,1.2s0,1,.2,1.4c.2.4.4.7.7.9s.7.3,1.1.3.9-.1,1.2-.4c.3-.3.6-.7.7-1.2Z"/>
        <path d="M636.2,211v-6.4h.9v5.7h3.2v.8h-4Z"/>
        <path d="M641.7,212.9h-.6c.9-1.4,1.3-2.8,1.3-4.2s0-1.1-.2-1.6c0-.4-.2-.9-.4-1.3-.1-.3-.3-.7-.7-1.3h.6c.6.7,1,1.5,1.2,2.2.2.6.3,1.3.3,2s-.2,1.6-.5,2.3c-.3.7-.7,1.4-1.1,1.9Z"/>
        <path d="M644.7,212.9h-.6c.9-1.4,1.3-2.8,1.3-4.2s0-1.1-.2-1.6c0-.4-.2-.9-.4-1.3-.1-.3-.3-.7-.7-1.3h.6c.6.7,1,1.5,1.2,2.2.2.6.3,1.3.3,2s-.2,1.6-.5,2.3c-.3.7-.7,1.4-1.1,1.9Z"/>
      </g>
      <text class="cls-13" transform="translate(471.7 171.8)"><tspan x="0" y="0">Availability</tspan></text>
      <text class="cls-13" transform="translate(178.4 110)"><tspan x="0" y="0">Key genes: Tamm41, Pgs1, Ptpmt1……</tspan></text>
      <text class="cls-13" transform="translate(199.7 97.3)"><tspan x="0" y="0">PA -&gt; CDP-DAG -&gt; PG -&gt; CL</tspan></text>
      <text class="cls-13" transform="translate(402.7 95.2)"><tspan x="0" y="0">MLCL &lt;-&gt; CL</tspan></text>
      <text class="cls-13" transform="translate(356.4 108.5)"><tspan x="0" y="0">Key genes: Taz, Lclat1, Pla2g6……</tspan></text>
      <text class="cls-13" transform="translate(5.1 176.2)"><tspan x="0" y="0">Key genes: Acly, Acaca, Fasn……</tspan></text>
      <text class="cls-13" transform="translate(355.5 250.1)"><tspan x="0" y="0">Key genes: Alox15, cybb, cyp2e……</tspan></text>
      <text class="cls-13" transform="translate(171.1 253.3)"><tspan x="0" y="0">Key genes: Prelid1, Triap1, Stard7…… </tspan></text>
      <text class="cls-14" transform="translate(313.9 54.1)"><tspan x="0" y="0">Mitochondrion</tspan></text>
      <text class="cls-14" transform="translate(66.5 128.2)"><tspan x="0" y="0">ER</tspan></text>
      <text class="cls-15" transform="translate(162.7 173)"><tspan x="0" y="0">PA supply</tspan></text>
      <text class="cls-15" transform="translate(214.7 193.8)"><tspan x="0" y="0">PA transport</tspan></text>
      <text class="cls-13" transform="translate(378.9 233.8)"><tspan x="0" y="0">CL -&gt; oxCL</tspan></text>
    </g>
  </g>
</svg>